%TF.GenerationSoftware,KiCad,Pcbnew,9.0.3*%
%TF.CreationDate,2025-11-06T13:26:50-06:00*%
%TF.ProjectId,PDN Schematic,50444e20-5363-4686-956d-617469632e6b,rev?*%
%TF.SameCoordinates,Original*%
%TF.FileFunction,Soldermask,Top*%
%TF.FilePolarity,Negative*%
%FSLAX46Y46*%
G04 Gerber Fmt 4.6, Leading zero omitted, Abs format (unit mm)*
G04 Created by KiCad (PCBNEW 9.0.3) date 2025-11-06 13:26:50*
%MOMM*%
%LPD*%
G01*
G04 APERTURE LIST*
G04 Aperture macros list*
%AMRoundRect*
0 Rectangle with rounded corners*
0 $1 Rounding radius*
0 $2 $3 $4 $5 $6 $7 $8 $9 X,Y pos of 4 corners*
0 Add a 4 corners polygon primitive as box body*
4,1,4,$2,$3,$4,$5,$6,$7,$8,$9,$2,$3,0*
0 Add four circle primitives for the rounded corners*
1,1,$1+$1,$2,$3*
1,1,$1+$1,$4,$5*
1,1,$1+$1,$6,$7*
1,1,$1+$1,$8,$9*
0 Add four rect primitives between the rounded corners*
20,1,$1+$1,$2,$3,$4,$5,0*
20,1,$1+$1,$4,$5,$6,$7,0*
20,1,$1+$1,$6,$7,$8,$9,0*
20,1,$1+$1,$8,$9,$2,$3,0*%
G04 Aperture macros list end*
%ADD10RoundRect,0.760000X1.140000X1.140000X-1.140000X1.140000X-1.140000X-1.140000X1.140000X-1.140000X0*%
%ADD11C,3.800000*%
%ADD12C,3.200000*%
%ADD13RoundRect,0.760000X-1.140000X-1.140000X1.140000X-1.140000X1.140000X1.140000X-1.140000X1.140000X0*%
%ADD14RoundRect,1.500000X1.500000X-1.500000X1.500000X1.500000X-1.500000X1.500000X-1.500000X-1.500000X0*%
%ADD15C,6.000000*%
%ADD16R,1.700000X1.700000*%
%ADD17C,1.700000*%
%ADD18RoundRect,0.250000X0.625000X-0.312500X0.625000X0.312500X-0.625000X0.312500X-0.625000X-0.312500X0*%
%ADD19RoundRect,0.250000X0.250000X0.475000X-0.250000X0.475000X-0.250000X-0.475000X0.250000X-0.475000X0*%
%ADD20C,2.286000*%
%ADD21C,1.879600*%
%ADD22C,3.301600*%
G04 APERTURE END LIST*
D10*
%TO.C,J10*%
X202500000Y-38000000D03*
D11*
X197500000Y-38000000D03*
%TD*%
D12*
%TO.C,REF\u002A\u002A*%
X209000000Y-104000000D03*
%TD*%
D13*
%TO.C,J11*%
X163175400Y-95780000D03*
D11*
X168175400Y-95780000D03*
%TD*%
D14*
%TO.C,J1*%
X163283400Y-79394000D03*
D15*
X163283400Y-72194000D03*
%TD*%
D12*
%TO.C,REF\u002A\u002A*%
X209000000Y-32000000D03*
%TD*%
D10*
%TO.C,J9*%
X202286000Y-50000000D03*
D11*
X197286000Y-50000000D03*
%TD*%
D10*
%TO.C,J8*%
X202032000Y-62024000D03*
D11*
X197032000Y-62024000D03*
%TD*%
D16*
%TO.C,J4*%
X187000000Y-36980000D03*
D17*
X184460000Y-36980000D03*
X181920000Y-36980000D03*
X179380000Y-36980000D03*
%TD*%
D10*
%TO.C,J3*%
X201992000Y-86000000D03*
D11*
X196992000Y-86000000D03*
%TD*%
D18*
%TO.C,R1*%
X163000000Y-88462500D03*
X163000000Y-85537500D03*
%TD*%
D19*
%TO.C,C1*%
X179625400Y-69180000D03*
X177725400Y-69180000D03*
%TD*%
D10*
%TO.C,J2*%
X202032000Y-98000000D03*
D11*
X197032000Y-98000000D03*
%TD*%
D12*
%TO.C,REF\u002A\u002A*%
X157000000Y-32000000D03*
%TD*%
D20*
%TO.C,U1*%
X174525400Y-59223000D03*
X178025400Y-59223000D03*
X181525400Y-59223000D03*
D21*
X169135400Y-45380000D03*
X171675400Y-45380000D03*
X174215400Y-45380000D03*
X176755400Y-45380000D03*
X179295400Y-45380000D03*
X181835400Y-45380000D03*
X184375400Y-45380000D03*
X186915400Y-45380000D03*
D22*
X188185400Y-60620000D03*
X167865400Y-60620000D03*
%TD*%
D12*
%TO.C,REF\u002A\u002A*%
X157000000Y-104000000D03*
%TD*%
D10*
%TO.C,J7*%
X201992000Y-74360000D03*
D11*
X196992000Y-74360000D03*
%TD*%
M02*
