%TF.GenerationSoftware,KiCad,Pcbnew,9.0.3*%
%TF.CreationDate,2025-11-21T02:37:54-06:00*%
%TF.ProjectId,GSECPM,47534543-504d-42e6-9b69-6361645f7063,rev?*%
%TF.SameCoordinates,Original*%
%TF.FileFunction,Drillmap*%
%TF.FilePolarity,Positive*%
%FSLAX45Y45*%
G04 Gerber Fmt 4.5, Leading zero omitted, Abs format (unit mm)*
G04 Created by KiCad (PCBNEW 9.0.3) date 2025-11-21 02:37:54*
%MOMM*%
%LPD*%
G01*
G04 APERTURE LIST*
%ADD10C,0.050000*%
%ADD11C,0.200000*%
%ADD12C,0.100000*%
%ADD13C,0.110000*%
%ADD14C,0.120000*%
%ADD15C,0.270000*%
G04 APERTURE END LIST*
D10*
X5615000Y-3239904D02*
G75*
G02*
X5814904Y-3039905I200000J-1D01*
G01*
X22395000Y-3232095D02*
X22395000Y-14035024D01*
X5815015Y-14236976D02*
G75*
G02*
X5614994Y-14036985I-25J199996D01*
G01*
X5814904Y-3039905D02*
X22194905Y-3032095D01*
X22194905Y-3032095D02*
G75*
G02*
X22395005Y-3232095I95J-200005D01*
G01*
X22395000Y-14035024D02*
G75*
G02*
X22195024Y-14235030I-200010J4D01*
G01*
X22195024Y-14235024D02*
X5815015Y-14236976D01*
X5614991Y-14036985D02*
X5615000Y-3239904D01*
D11*
D12*
X7915000Y-10160000D02*
X7945000Y-10190000D01*
X7945000Y-10160000D02*
X7915000Y-10190000D01*
X8345000Y-9610000D02*
X8375000Y-9640000D01*
X8375000Y-9610000D02*
X8345000Y-9640000D01*
X8635000Y-10260000D02*
X8665000Y-10290000D01*
X8665000Y-10260000D02*
X8635000Y-10290000D01*
X8845000Y-9045000D02*
X8875000Y-9075000D01*
X8875000Y-9045000D02*
X8845000Y-9075000D01*
X10480000Y-9120000D02*
X10510000Y-9150000D01*
X10510000Y-9120000D02*
X10480000Y-9150000D01*
X10760000Y-8630000D02*
X10790000Y-8660000D01*
X10790000Y-8630000D02*
X10760000Y-8660000D01*
X13925000Y-6115000D02*
X13955000Y-6145000D01*
X13955000Y-6115000D02*
X13925000Y-6145000D01*
X13945000Y-7265000D02*
X13975000Y-7295000D01*
X13975000Y-7265000D02*
X13945000Y-7295000D01*
X13965000Y-6695000D02*
X13995000Y-6725000D01*
X13995000Y-6695000D02*
X13965000Y-6725000D01*
X14075000Y-7695000D02*
X14105000Y-7725000D01*
X14105000Y-7695000D02*
X14075000Y-7725000D01*
X14345000Y-7965000D02*
X14375000Y-7995000D01*
X14375000Y-7965000D02*
X14345000Y-7995000D01*
X10915000Y-4365000D02*
G75*
G02*
X10885000Y-4365000I-15000J0D01*
G01*
X10885000Y-4365000D02*
G75*
G02*
X10915000Y-4365000I15000J0D01*
G01*
X10915000Y-4495000D02*
G75*
G02*
X10885000Y-4495000I-15000J0D01*
G01*
X10885000Y-4495000D02*
G75*
G02*
X10915000Y-4495000I15000J0D01*
G01*
X10915000Y-4625000D02*
G75*
G02*
X10885000Y-4625000I-15000J0D01*
G01*
X10885000Y-4625000D02*
G75*
G02*
X10915000Y-4625000I15000J0D01*
G01*
X10915000Y-4755000D02*
G75*
G02*
X10885000Y-4755000I-15000J0D01*
G01*
X10885000Y-4755000D02*
G75*
G02*
X10915000Y-4755000I15000J0D01*
G01*
X11045000Y-4365000D02*
G75*
G02*
X11015000Y-4365000I-15000J0D01*
G01*
X11015000Y-4365000D02*
G75*
G02*
X11045000Y-4365000I15000J0D01*
G01*
X11045000Y-4495000D02*
G75*
G02*
X11015000Y-4495000I-15000J0D01*
G01*
X11015000Y-4495000D02*
G75*
G02*
X11045000Y-4495000I15000J0D01*
G01*
X11045000Y-4625000D02*
G75*
G02*
X11015000Y-4625000I-15000J0D01*
G01*
X11015000Y-4625000D02*
G75*
G02*
X11045000Y-4625000I15000J0D01*
G01*
X11045000Y-4755000D02*
G75*
G02*
X11015000Y-4755000I-15000J0D01*
G01*
X11015000Y-4755000D02*
G75*
G02*
X11045000Y-4755000I15000J0D01*
G01*
X5750000Y-6775000D02*
X5750000Y-6815000D01*
X5730000Y-6795000D02*
X5770000Y-6795000D01*
X5755000Y-5895000D02*
X5755000Y-5935000D01*
X5735000Y-5915000D02*
X5775000Y-5915000D01*
X5760000Y-7710000D02*
X5760000Y-7750000D01*
X5740000Y-7730000D02*
X5780000Y-7730000D01*
X5790000Y-8760000D02*
X5790000Y-8800000D01*
X5770000Y-8780000D02*
X5810000Y-8780000D01*
X5875000Y-12910000D02*
X5875000Y-12950000D01*
X5855000Y-12930000D02*
X5895000Y-12930000D01*
X5895000Y-12050000D02*
X5895000Y-12090000D01*
X5875000Y-12070000D02*
X5915000Y-12070000D01*
X5900000Y-9345000D02*
X5900000Y-9385000D01*
X5880000Y-9365000D02*
X5920000Y-9365000D01*
X5905000Y-11210000D02*
X5905000Y-11250000D01*
X5885000Y-11230000D02*
X5925000Y-11230000D01*
X5910000Y-10300000D02*
X5910000Y-10340000D01*
X5890000Y-10320000D02*
X5930000Y-10320000D01*
X6000000Y-4890000D02*
X6000000Y-4930000D01*
X5980000Y-4910000D02*
X6020000Y-4910000D01*
X6110000Y-3620000D02*
X6110000Y-3660000D01*
X6090000Y-3640000D02*
X6130000Y-3640000D01*
X6215000Y-10270000D02*
X6215000Y-10310000D01*
X6195000Y-10290000D02*
X6235000Y-10290000D01*
X6245000Y-11080000D02*
X6245000Y-11120000D01*
X6225000Y-11100000D02*
X6265000Y-11100000D01*
X6275000Y-9340000D02*
X6275000Y-9380000D01*
X6255000Y-9360000D02*
X6295000Y-9360000D01*
X6305000Y-13400000D02*
X6305000Y-13440000D01*
X6285000Y-13420000D02*
X6325000Y-13420000D01*
X6725000Y-13840000D02*
X6725000Y-13880000D01*
X6705000Y-13860000D02*
X6745000Y-13860000D01*
X7030000Y-13385000D02*
X7030000Y-13425000D01*
X7010000Y-13405000D02*
X7050000Y-13405000D01*
X7310000Y-3650000D02*
X7310000Y-3690000D01*
X7290000Y-3670000D02*
X7330000Y-3670000D01*
X7345000Y-4230000D02*
X7345000Y-4270000D01*
X7325000Y-4250000D02*
X7365000Y-4250000D01*
X7955000Y-13830000D02*
X7955000Y-13870000D01*
X7935000Y-13850000D02*
X7975000Y-13850000D01*
X8830000Y-9900000D02*
X8830000Y-9940000D01*
X8810000Y-9920000D02*
X8850000Y-9920000D01*
X8835000Y-3215000D02*
X8835000Y-3255000D01*
X8815000Y-3235000D02*
X8855000Y-3235000D01*
X9210000Y-5275000D02*
X9210000Y-5315000D01*
X9190000Y-5295000D02*
X9230000Y-5295000D01*
X9230000Y-5005000D02*
X9230000Y-5045000D01*
X9210000Y-5025000D02*
X9250000Y-5025000D01*
X9230000Y-5625000D02*
X9230000Y-5665000D01*
X9210000Y-5645000D02*
X9250000Y-5645000D01*
X9240000Y-4480000D02*
X9240000Y-4520000D01*
X9220000Y-4500000D02*
X9260000Y-4500000D01*
X9250000Y-4730000D02*
X9250000Y-4770000D01*
X9230000Y-4750000D02*
X9270000Y-4750000D01*
X9350000Y-13675000D02*
X9350000Y-13715000D01*
X9330000Y-13695000D02*
X9370000Y-13695000D01*
X9445000Y-5805000D02*
X9445000Y-5845000D01*
X9425000Y-5825000D02*
X9465000Y-5825000D01*
X9470000Y-4320000D02*
X9470000Y-4360000D01*
X9450000Y-4340000D02*
X9490000Y-4340000D01*
X9740000Y-4500000D02*
X9740000Y-4540000D01*
X9720000Y-4520000D02*
X9760000Y-4520000D01*
X9760000Y-4140000D02*
X9760000Y-4180000D01*
X9740000Y-4160000D02*
X9780000Y-4160000D01*
X9760000Y-5885000D02*
X9760000Y-5925000D01*
X9740000Y-5905000D02*
X9780000Y-5905000D01*
X9760000Y-8290000D02*
X9760000Y-8330000D01*
X9740000Y-8310000D02*
X9780000Y-8310000D01*
X9830000Y-6900000D02*
X9830000Y-6940000D01*
X9810000Y-6920000D02*
X9850000Y-6920000D01*
X9995000Y-4335000D02*
X9995000Y-4375000D01*
X9975000Y-4355000D02*
X10015000Y-4355000D01*
X10150000Y-5895000D02*
X10150000Y-5935000D01*
X10130000Y-5915000D02*
X10170000Y-5915000D01*
X10310000Y-13895000D02*
X10310000Y-13935000D01*
X10290000Y-13915000D02*
X10330000Y-13915000D01*
X10330000Y-6900000D02*
X10330000Y-6940000D01*
X10310000Y-6920000D02*
X10350000Y-6920000D01*
X10330000Y-7400000D02*
X10330000Y-7440000D01*
X10310000Y-7420000D02*
X10350000Y-7420000D01*
X10330000Y-7900000D02*
X10330000Y-7940000D01*
X10310000Y-7920000D02*
X10350000Y-7920000D01*
X10330000Y-8400000D02*
X10330000Y-8440000D01*
X10310000Y-8420000D02*
X10350000Y-8420000D01*
X10330000Y-10900000D02*
X10330000Y-10940000D01*
X10310000Y-10920000D02*
X10350000Y-10920000D01*
X10330000Y-11400000D02*
X10330000Y-11440000D01*
X10310000Y-11420000D02*
X10350000Y-11420000D01*
X10330000Y-11900000D02*
X10330000Y-11940000D01*
X10310000Y-11920000D02*
X10350000Y-11920000D01*
X10415000Y-5055000D02*
X10415000Y-5095000D01*
X10395000Y-5075000D02*
X10435000Y-5075000D01*
X10620000Y-5895000D02*
X10620000Y-5935000D01*
X10600000Y-5915000D02*
X10640000Y-5915000D01*
X10700000Y-4970000D02*
X10700000Y-5010000D01*
X10680000Y-4990000D02*
X10720000Y-4990000D01*
X10720000Y-3215000D02*
X10720000Y-3255000D01*
X10700000Y-3235000D02*
X10740000Y-3235000D01*
X10830000Y-6900000D02*
X10830000Y-6940000D01*
X10810000Y-6920000D02*
X10850000Y-6920000D01*
X10830000Y-7400000D02*
X10830000Y-7440000D01*
X10810000Y-7420000D02*
X10850000Y-7420000D01*
X10830000Y-7900000D02*
X10830000Y-7940000D01*
X10810000Y-7920000D02*
X10850000Y-7920000D01*
X10830000Y-10900000D02*
X10830000Y-10940000D01*
X10810000Y-10920000D02*
X10850000Y-10920000D01*
X10830000Y-11400000D02*
X10830000Y-11440000D01*
X10810000Y-11420000D02*
X10850000Y-11420000D01*
X10830000Y-11900000D02*
X10830000Y-11940000D01*
X10810000Y-11920000D02*
X10850000Y-11920000D01*
X10830000Y-12400000D02*
X10830000Y-12440000D01*
X10810000Y-12420000D02*
X10850000Y-12420000D01*
X10830000Y-12900000D02*
X10830000Y-12940000D01*
X10810000Y-12920000D02*
X10850000Y-12920000D01*
X10875000Y-9955000D02*
X10875000Y-9995000D01*
X10855000Y-9975000D02*
X10895000Y-9975000D01*
X10950000Y-5045000D02*
X10950000Y-5085000D01*
X10930000Y-5065000D02*
X10970000Y-5065000D01*
X11105000Y-3885000D02*
X11105000Y-3925000D01*
X11085000Y-3905000D02*
X11125000Y-3905000D01*
X11220000Y-4075000D02*
X11220000Y-4115000D01*
X11200000Y-4095000D02*
X11240000Y-4095000D01*
X11230000Y-4965000D02*
X11230000Y-5005000D01*
X11210000Y-4985000D02*
X11250000Y-4985000D01*
X11330000Y-6900000D02*
X11330000Y-6940000D01*
X11310000Y-6920000D02*
X11350000Y-6920000D01*
X11330000Y-7400000D02*
X11330000Y-7440000D01*
X11310000Y-7420000D02*
X11350000Y-7420000D01*
X11330000Y-10400000D02*
X11330000Y-10440000D01*
X11310000Y-10420000D02*
X11350000Y-10420000D01*
X11330000Y-10900000D02*
X11330000Y-10940000D01*
X11310000Y-10920000D02*
X11350000Y-10920000D01*
X11330000Y-11400000D02*
X11330000Y-11440000D01*
X11310000Y-11420000D02*
X11350000Y-11420000D01*
X11330000Y-11900000D02*
X11330000Y-11940000D01*
X11310000Y-11920000D02*
X11350000Y-11920000D01*
X11330000Y-12400000D02*
X11330000Y-12440000D01*
X11310000Y-12420000D02*
X11350000Y-12420000D01*
X11330000Y-12900000D02*
X11330000Y-12940000D01*
X11310000Y-12920000D02*
X11350000Y-12920000D01*
X11375000Y-9480000D02*
X11375000Y-9520000D01*
X11355000Y-9500000D02*
X11395000Y-9500000D01*
X11395000Y-3885000D02*
X11395000Y-3925000D01*
X11375000Y-3905000D02*
X11415000Y-3905000D01*
X11470000Y-5075000D02*
X11470000Y-5115000D01*
X11450000Y-5095000D02*
X11490000Y-5095000D01*
X11790000Y-5070000D02*
X11790000Y-5110000D01*
X11770000Y-5090000D02*
X11810000Y-5090000D01*
X11830000Y-9900000D02*
X11830000Y-9940000D01*
X11810000Y-9920000D02*
X11850000Y-9920000D01*
X11830000Y-10400000D02*
X11830000Y-10440000D01*
X11810000Y-10420000D02*
X11850000Y-10420000D01*
X11830000Y-10900000D02*
X11830000Y-10940000D01*
X11810000Y-10920000D02*
X11850000Y-10920000D01*
X11830000Y-11400000D02*
X11830000Y-11440000D01*
X11810000Y-11420000D02*
X11850000Y-11420000D01*
X11830000Y-11900000D02*
X11830000Y-11940000D01*
X11810000Y-11920000D02*
X11850000Y-11920000D01*
X11830000Y-12400000D02*
X11830000Y-12440000D01*
X11810000Y-12420000D02*
X11850000Y-12420000D01*
X11830000Y-12900000D02*
X11830000Y-12940000D01*
X11810000Y-12920000D02*
X11850000Y-12920000D01*
X12120000Y-9250000D02*
X12120000Y-9290000D01*
X12100000Y-9270000D02*
X12140000Y-9270000D01*
X12205000Y-5080000D02*
X12205000Y-5120000D01*
X12185000Y-5100000D02*
X12225000Y-5100000D01*
X12230000Y-8495000D02*
X12230000Y-8535000D01*
X12210000Y-8515000D02*
X12250000Y-8515000D01*
X12460000Y-6940000D02*
X12460000Y-6980000D01*
X12440000Y-6960000D02*
X12480000Y-6960000D01*
X12590000Y-5075000D02*
X12590000Y-5115000D01*
X12570000Y-5095000D02*
X12610000Y-5095000D01*
X12675000Y-3215000D02*
X12675000Y-3255000D01*
X12655000Y-3235000D02*
X12695000Y-3235000D01*
X12795000Y-8740000D02*
X12795000Y-8780000D01*
X12775000Y-8760000D02*
X12815000Y-8760000D01*
X12895000Y-5015000D02*
X12895000Y-5055000D01*
X12875000Y-5035000D02*
X12915000Y-5035000D01*
X13055000Y-4775000D02*
X13055000Y-4815000D01*
X13035000Y-4795000D02*
X13075000Y-4795000D01*
X13150000Y-7030000D02*
X13150000Y-7070000D01*
X13130000Y-7050000D02*
X13170000Y-7050000D01*
X13195000Y-4925000D02*
X13195000Y-4965000D01*
X13175000Y-4945000D02*
X13215000Y-4945000D01*
X13210000Y-9860000D02*
X13210000Y-9900000D01*
X13190000Y-9880000D02*
X13230000Y-9880000D01*
X13210000Y-10515000D02*
X13210000Y-10555000D01*
X13190000Y-10535000D02*
X13230000Y-10535000D01*
X13330000Y-12400000D02*
X13330000Y-12440000D01*
X13310000Y-12420000D02*
X13350000Y-12420000D01*
X13330000Y-12900000D02*
X13330000Y-12940000D01*
X13310000Y-12920000D02*
X13350000Y-12920000D01*
X13335000Y-7710000D02*
X13335000Y-7750000D01*
X13315000Y-7730000D02*
X13355000Y-7730000D01*
X13350000Y-8385000D02*
X13350000Y-8425000D01*
X13330000Y-8405000D02*
X13370000Y-8405000D01*
X13375000Y-4650000D02*
X13375000Y-4690000D01*
X13355000Y-4670000D02*
X13395000Y-4670000D01*
X13475000Y-10260000D02*
X13475000Y-10300000D01*
X13455000Y-10280000D02*
X13495000Y-10280000D01*
X13605000Y-9840000D02*
X13605000Y-9880000D01*
X13585000Y-9860000D02*
X13625000Y-9860000D01*
X13720000Y-4610000D02*
X13720000Y-4650000D01*
X13700000Y-4630000D02*
X13740000Y-4630000D01*
X13720000Y-4880000D02*
X13720000Y-4920000D01*
X13700000Y-4900000D02*
X13740000Y-4900000D01*
X13830000Y-12400000D02*
X13830000Y-12440000D01*
X13810000Y-12420000D02*
X13850000Y-12420000D01*
X13830000Y-12900000D02*
X13830000Y-12940000D01*
X13810000Y-12920000D02*
X13850000Y-12920000D01*
X14070000Y-4610000D02*
X14070000Y-4650000D01*
X14050000Y-4630000D02*
X14090000Y-4630000D01*
X14070000Y-4880000D02*
X14070000Y-4920000D01*
X14050000Y-4900000D02*
X14090000Y-4900000D01*
X14235000Y-11285000D02*
X14235000Y-11325000D01*
X14215000Y-11305000D02*
X14255000Y-11305000D01*
X14235000Y-11600000D02*
X14235000Y-11640000D01*
X14215000Y-11620000D02*
X14255000Y-11620000D01*
X14330000Y-12900000D02*
X14330000Y-12940000D01*
X14310000Y-12920000D02*
X14350000Y-12920000D01*
X14390000Y-3215000D02*
X14390000Y-3255000D01*
X14370000Y-3235000D02*
X14410000Y-3235000D01*
X14470000Y-4610000D02*
X14470000Y-4650000D01*
X14450000Y-4630000D02*
X14490000Y-4630000D01*
X14470000Y-4880000D02*
X14470000Y-4920000D01*
X14450000Y-4900000D02*
X14490000Y-4900000D01*
X14830000Y-12900000D02*
X14830000Y-12940000D01*
X14810000Y-12920000D02*
X14850000Y-12920000D01*
X14875000Y-4610000D02*
X14875000Y-4650000D01*
X14855000Y-4630000D02*
X14895000Y-4630000D01*
X14875000Y-4880000D02*
X14875000Y-4920000D01*
X14855000Y-4900000D02*
X14895000Y-4900000D01*
X15275000Y-4610000D02*
X15275000Y-4650000D01*
X15255000Y-4630000D02*
X15295000Y-4630000D01*
X15275000Y-4880000D02*
X15275000Y-4920000D01*
X15255000Y-4900000D02*
X15295000Y-4900000D01*
X15330000Y-12900000D02*
X15330000Y-12940000D01*
X15310000Y-12920000D02*
X15350000Y-12920000D01*
X15445000Y-3215000D02*
X15445000Y-3255000D01*
X15425000Y-3235000D02*
X15465000Y-3235000D01*
X15675000Y-4610000D02*
X15675000Y-4650000D01*
X15655000Y-4630000D02*
X15695000Y-4630000D01*
X15675000Y-4880000D02*
X15675000Y-4920000D01*
X15655000Y-4900000D02*
X15695000Y-4900000D01*
X15830000Y-10900000D02*
X15830000Y-10940000D01*
X15810000Y-10920000D02*
X15850000Y-10920000D01*
X15830000Y-12900000D02*
X15830000Y-12940000D01*
X15810000Y-12920000D02*
X15850000Y-12920000D01*
X16330000Y-12900000D02*
X16330000Y-12940000D01*
X16310000Y-12920000D02*
X16350000Y-12920000D01*
X16490000Y-3490000D02*
X16490000Y-3530000D01*
X16470000Y-3510000D02*
X16510000Y-3510000D01*
X17024500Y-8627000D02*
X17024500Y-8667000D01*
X17004500Y-8647000D02*
X17044500Y-8647000D01*
X17130000Y-3385000D02*
X17130000Y-3425000D01*
X17110000Y-3405000D02*
X17150000Y-3405000D01*
X17234500Y-8477000D02*
X17234500Y-8517000D01*
X17214500Y-8497000D02*
X17254500Y-8497000D01*
X17284500Y-9507000D02*
X17284500Y-9547000D01*
X17264500Y-9527000D02*
X17304500Y-9527000D01*
X17375000Y-12605000D02*
X17375000Y-12645000D01*
X17355000Y-12625000D02*
X17395000Y-12625000D01*
X17424500Y-8677000D02*
X17424500Y-8717000D01*
X17404500Y-8697000D02*
X17444500Y-8697000D01*
X17424500Y-9324500D02*
X17424500Y-9364500D01*
X17404500Y-9344500D02*
X17444500Y-9344500D01*
X17450000Y-3815000D02*
X17450000Y-3855000D01*
X17430000Y-3835000D02*
X17470000Y-3835000D01*
X17465000Y-11815000D02*
X17465000Y-11855000D01*
X17445000Y-11835000D02*
X17485000Y-11835000D01*
X17990000Y-12600000D02*
X17990000Y-12640000D01*
X17970000Y-12620000D02*
X18010000Y-12620000D01*
X18025000Y-8585000D02*
X18025000Y-8625000D01*
X18005000Y-8605000D02*
X18045000Y-8605000D01*
X18035000Y-10525000D02*
X18035000Y-10565000D01*
X18015000Y-10545000D02*
X18055000Y-10545000D01*
X18060000Y-9265000D02*
X18060000Y-9305000D01*
X18040000Y-9285000D02*
X18080000Y-9285000D01*
X18095000Y-3395000D02*
X18095000Y-3435000D01*
X18075000Y-3415000D02*
X18115000Y-3415000D01*
X18120000Y-9945000D02*
X18120000Y-9985000D01*
X18100000Y-9965000D02*
X18140000Y-9965000D01*
X18170000Y-5760000D02*
X18170000Y-5800000D01*
X18150000Y-5780000D02*
X18190000Y-5780000D01*
X18170000Y-6160000D02*
X18170000Y-6200000D01*
X18150000Y-6180000D02*
X18190000Y-6180000D01*
X18170000Y-6560000D02*
X18170000Y-6600000D01*
X18150000Y-6580000D02*
X18190000Y-6580000D01*
X18170000Y-6965000D02*
X18170000Y-7005000D01*
X18150000Y-6985000D02*
X18190000Y-6985000D01*
X18170000Y-7365000D02*
X18170000Y-7405000D01*
X18150000Y-7385000D02*
X18190000Y-7385000D01*
X18170000Y-7715000D02*
X18170000Y-7755000D01*
X18150000Y-7735000D02*
X18190000Y-7735000D01*
X18170000Y-11810000D02*
X18170000Y-11850000D01*
X18150000Y-11830000D02*
X18190000Y-11830000D01*
X18304500Y-11187000D02*
X18304500Y-11227000D01*
X18284500Y-11207000D02*
X18324500Y-11207000D01*
X18425000Y-3850000D02*
X18425000Y-3890000D01*
X18405000Y-3870000D02*
X18445000Y-3870000D01*
X18440000Y-5760000D02*
X18440000Y-5800000D01*
X18420000Y-5780000D02*
X18460000Y-5780000D01*
X18440000Y-6160000D02*
X18440000Y-6200000D01*
X18420000Y-6180000D02*
X18460000Y-6180000D01*
X18440000Y-6560000D02*
X18440000Y-6600000D01*
X18420000Y-6580000D02*
X18460000Y-6580000D01*
X18440000Y-6965000D02*
X18440000Y-7005000D01*
X18420000Y-6985000D02*
X18460000Y-6985000D01*
X18440000Y-7365000D02*
X18440000Y-7405000D01*
X18420000Y-7385000D02*
X18460000Y-7385000D01*
X18440000Y-7715000D02*
X18440000Y-7755000D01*
X18420000Y-7735000D02*
X18460000Y-7735000D01*
X18505000Y-9330000D02*
X18505000Y-9370000D01*
X18485000Y-9350000D02*
X18525000Y-9350000D01*
X18510000Y-8665000D02*
X18510000Y-8705000D01*
X18490000Y-8685000D02*
X18530000Y-8685000D01*
X18665000Y-12775000D02*
X18665000Y-12815000D01*
X18645000Y-12795000D02*
X18685000Y-12795000D01*
X18765000Y-11880000D02*
X18765000Y-11920000D01*
X18745000Y-11900000D02*
X18785000Y-11900000D01*
X18805000Y-3440000D02*
X18805000Y-3480000D01*
X18785000Y-3460000D02*
X18825000Y-3460000D01*
X18855000Y-10525000D02*
X18855000Y-10565000D01*
X18835000Y-10545000D02*
X18875000Y-10545000D01*
X18865000Y-13045000D02*
X18865000Y-13085000D01*
X18845000Y-13065000D02*
X18885000Y-13065000D01*
X18910000Y-9935000D02*
X18910000Y-9975000D01*
X18890000Y-9955000D02*
X18930000Y-9955000D01*
X18994500Y-7409500D02*
X18994500Y-7449500D01*
X18974500Y-7429500D02*
X19014500Y-7429500D01*
X19060000Y-8755000D02*
X19060000Y-8795000D01*
X19040000Y-8775000D02*
X19080000Y-8775000D01*
X19090000Y-9355000D02*
X19090000Y-9395000D01*
X19070000Y-9375000D02*
X19110000Y-9375000D01*
X19140000Y-12090000D02*
X19140000Y-12130000D01*
X19120000Y-12110000D02*
X19160000Y-12110000D01*
X19244500Y-11207000D02*
X19244500Y-11247000D01*
X19224500Y-11227000D02*
X19264500Y-11227000D01*
X19330000Y-3900000D02*
X19330000Y-3940000D01*
X19310000Y-3920000D02*
X19350000Y-3920000D01*
X19340000Y-8590000D02*
X19340000Y-8630000D01*
X19320000Y-8610000D02*
X19360000Y-8610000D01*
X19365000Y-13255000D02*
X19365000Y-13295000D01*
X19345000Y-13275000D02*
X19385000Y-13275000D01*
X19489860Y-7407500D02*
X19489860Y-7447500D01*
X19469860Y-7427500D02*
X19509860Y-7427500D01*
X19495000Y-9265000D02*
X19495000Y-9305000D01*
X19475000Y-9285000D02*
X19515000Y-9285000D01*
X19540000Y-9815000D02*
X19540000Y-9855000D01*
X19520000Y-9835000D02*
X19560000Y-9835000D01*
X19615000Y-4375000D02*
X19615000Y-4415000D01*
X19595000Y-4395000D02*
X19635000Y-4395000D01*
X19615000Y-8340000D02*
X19615000Y-8380000D01*
X19595000Y-8360000D02*
X19635000Y-8360000D01*
X19670000Y-12325000D02*
X19670000Y-12365000D01*
X19650000Y-12345000D02*
X19690000Y-12345000D01*
X19735000Y-10515000D02*
X19735000Y-10555000D01*
X19715000Y-10535000D02*
X19755000Y-10535000D01*
X19775000Y-3430000D02*
X19775000Y-3470000D01*
X19755000Y-3450000D02*
X19795000Y-3450000D01*
X19924500Y-11307000D02*
X19924500Y-11347000D01*
X19904500Y-11327000D02*
X19944500Y-11327000D01*
X19935000Y-8950000D02*
X19935000Y-8990000D01*
X19915000Y-8970000D02*
X19955000Y-8970000D01*
X19975000Y-5385000D02*
X19975000Y-5425000D01*
X19955000Y-5405000D02*
X19995000Y-5405000D01*
X20040000Y-6055000D02*
X20040000Y-6095000D01*
X20020000Y-6075000D02*
X20060000Y-6075000D01*
X20065000Y-13265000D02*
X20065000Y-13305000D01*
X20045000Y-13285000D02*
X20085000Y-13285000D01*
X20095000Y-9370000D02*
X20095000Y-9410000D01*
X20075000Y-9390000D02*
X20115000Y-9390000D01*
X20107500Y-8502500D02*
X20107500Y-8542500D01*
X20087500Y-8522500D02*
X20127500Y-8522500D01*
X20225000Y-7800000D02*
X20225000Y-7840000D01*
X20205000Y-7820000D02*
X20245000Y-7820000D01*
X20240000Y-4390000D02*
X20240000Y-4430000D01*
X20220000Y-4410000D02*
X20260000Y-4410000D01*
X20285000Y-4925000D02*
X20285000Y-4965000D01*
X20265000Y-4945000D02*
X20305000Y-4945000D01*
X20305000Y-3890000D02*
X20305000Y-3930000D01*
X20285000Y-3910000D02*
X20325000Y-3910000D01*
X20310000Y-10140000D02*
X20310000Y-10180000D01*
X20290000Y-10160000D02*
X20330000Y-10160000D01*
X20350000Y-12340000D02*
X20350000Y-12380000D01*
X20330000Y-12360000D02*
X20370000Y-12360000D01*
X20375000Y-8775000D02*
X20375000Y-8815000D01*
X20355000Y-8795000D02*
X20395000Y-8795000D01*
X20410000Y-7970000D02*
X20410000Y-8010000D01*
X20390000Y-7990000D02*
X20430000Y-7990000D01*
X20445000Y-3405000D02*
X20445000Y-3445000D01*
X20425000Y-3425000D02*
X20465000Y-3425000D01*
X20445000Y-8165000D02*
X20445000Y-8205000D01*
X20425000Y-8185000D02*
X20465000Y-8185000D01*
X20465000Y-13840000D02*
X20465000Y-13880000D01*
X20445000Y-13860000D02*
X20485000Y-13860000D01*
X20544500Y-11307000D02*
X20544500Y-11347000D01*
X20524500Y-11327000D02*
X20564500Y-11327000D01*
X20570000Y-7840000D02*
X20570000Y-7880000D01*
X20550000Y-7860000D02*
X20590000Y-7860000D01*
X20645000Y-5730000D02*
X20645000Y-5770000D01*
X20625000Y-5750000D02*
X20665000Y-5750000D01*
X20675000Y-5320000D02*
X20675000Y-5360000D01*
X20655000Y-5340000D02*
X20695000Y-5340000D01*
X20765000Y-8385000D02*
X20765000Y-8425000D01*
X20745000Y-8405000D02*
X20785000Y-8405000D01*
X21160000Y-13840000D02*
X21160000Y-13880000D01*
X21140000Y-13860000D02*
X21180000Y-13860000D01*
X21180000Y-4010000D02*
X21180000Y-4050000D01*
X21160000Y-4030000D02*
X21200000Y-4030000D01*
X21210000Y-5380000D02*
X21210000Y-5420000D01*
X21190000Y-5400000D02*
X21230000Y-5400000D01*
X21305000Y-3440000D02*
X21305000Y-3480000D01*
X21285000Y-3460000D02*
X21325000Y-3460000D01*
X21580000Y-5595000D02*
X21580000Y-5635000D01*
X21560000Y-5615000D02*
X21600000Y-5615000D01*
X21780000Y-4575000D02*
X21780000Y-4615000D01*
X21760000Y-4595000D02*
X21800000Y-4595000D01*
X21860000Y-11160000D02*
X21860000Y-11200000D01*
X21840000Y-11180000D02*
X21880000Y-11180000D01*
X21865000Y-10175000D02*
X21865000Y-10215000D01*
X21845000Y-10195000D02*
X21885000Y-10195000D01*
X21910000Y-8990000D02*
X21910000Y-9030000D01*
X21890000Y-9010000D02*
X21930000Y-9010000D01*
X21924076Y-4000000D02*
X21924076Y-4040000D01*
X21904076Y-4020000D02*
X21944076Y-4020000D01*
X21940000Y-12560000D02*
X21940000Y-12600000D01*
X21920000Y-12580000D02*
X21960000Y-12580000D01*
X21940000Y-13840000D02*
X21940000Y-13880000D01*
X21920000Y-13860000D02*
X21960000Y-13860000D01*
X21975000Y-3490000D02*
X21975000Y-3530000D01*
X21955000Y-3510000D02*
X21995000Y-3510000D01*
X22000000Y-4970000D02*
X22000000Y-5010000D01*
X21980000Y-4990000D02*
X22020000Y-4990000D01*
X22165000Y-6050000D02*
X22165000Y-6090000D01*
X22145000Y-6070000D02*
X22185000Y-6070000D01*
X22170000Y-11800000D02*
X22170000Y-11840000D01*
X22150000Y-11820000D02*
X22190000Y-11820000D01*
X22175000Y-6715000D02*
X22175000Y-6755000D01*
X22155000Y-6735000D02*
X22195000Y-6735000D01*
X22175000Y-8500000D02*
X22175000Y-8540000D01*
X22155000Y-8520000D02*
X22195000Y-8520000D01*
X22180000Y-7225000D02*
X22180000Y-7265000D01*
X22160000Y-7245000D02*
X22200000Y-7245000D01*
X22180000Y-13145000D02*
X22180000Y-13185000D01*
X22160000Y-13165000D02*
X22200000Y-13165000D01*
X22190000Y-7920000D02*
X22190000Y-7960000D01*
X22170000Y-7940000D02*
X22210000Y-7940000D01*
X22220000Y-9505000D02*
X22220000Y-9545000D01*
X22200000Y-9525000D02*
X22240000Y-9525000D01*
X17624552Y-4547052D02*
X17624552Y-4486948D01*
X17564448Y-4486948D01*
X17564448Y-4547052D01*
X17624552Y-4547052D01*
X17624552Y-5047052D02*
X17624552Y-4986948D01*
X17564448Y-4986948D01*
X17564448Y-5047052D01*
X17624552Y-5047052D01*
X9535000Y-7790750D02*
X9585000Y-7740750D01*
X9535000Y-7690750D01*
X9485000Y-7740750D01*
X9535000Y-7790750D01*
X9535000Y-8044750D02*
X9585000Y-7994750D01*
X9535000Y-7944750D01*
X9485000Y-7994750D01*
X9535000Y-8044750D01*
X9535000Y-8298750D02*
X9585000Y-8248750D01*
X9535000Y-8198750D01*
X9485000Y-8248750D01*
X9535000Y-8298750D01*
X9535000Y-8552750D02*
X9585000Y-8502750D01*
X9535000Y-8452750D01*
X9485000Y-8502750D01*
X9535000Y-8552750D01*
X9535000Y-8806750D02*
X9585000Y-8756750D01*
X9535000Y-8706750D01*
X9485000Y-8756750D01*
X9535000Y-8806750D01*
X9535000Y-9060750D02*
X9585000Y-9010750D01*
X9535000Y-8960750D01*
X9485000Y-9010750D01*
X9535000Y-9060750D01*
X9535000Y-9314750D02*
X9585000Y-9264750D01*
X9535000Y-9214750D01*
X9485000Y-9264750D01*
X9535000Y-9314750D01*
X9535000Y-9568750D02*
X9585000Y-9518750D01*
X9535000Y-9468750D01*
X9485000Y-9518750D01*
X9535000Y-9568750D01*
X9535000Y-9822750D02*
X9585000Y-9772750D01*
X9535000Y-9722750D01*
X9485000Y-9772750D01*
X9535000Y-9822750D01*
X9535000Y-10076750D02*
X9585000Y-10026750D01*
X9535000Y-9976750D01*
X9485000Y-10026750D01*
X9535000Y-10076750D01*
X9535000Y-10330750D02*
X9585000Y-10280750D01*
X9535000Y-10230750D01*
X9485000Y-10280750D01*
X9535000Y-10330750D01*
X9535000Y-10584750D02*
X9585000Y-10534750D01*
X9535000Y-10484750D01*
X9485000Y-10534750D01*
X9535000Y-10584750D01*
X9535000Y-10838750D02*
X9585000Y-10788750D01*
X9535000Y-10738750D01*
X9485000Y-10788750D01*
X9535000Y-10838750D01*
X9535000Y-11092750D02*
X9585000Y-11042750D01*
X9535000Y-10992750D01*
X9485000Y-11042750D01*
X9535000Y-11092750D01*
X9535000Y-11346750D02*
X9585000Y-11296750D01*
X9535000Y-11246750D01*
X9485000Y-11296750D01*
X9535000Y-11346750D01*
X9535000Y-11600750D02*
X9585000Y-11550750D01*
X9535000Y-11500750D01*
X9485000Y-11550750D01*
X9535000Y-11600750D01*
X9535000Y-11854750D02*
X9585000Y-11804750D01*
X9535000Y-11754750D01*
X9485000Y-11804750D01*
X9535000Y-11854750D01*
X9535000Y-12108750D02*
X9585000Y-12058750D01*
X9535000Y-12008750D01*
X9485000Y-12058750D01*
X9535000Y-12108750D01*
X9535000Y-12362750D02*
X9585000Y-12312750D01*
X9535000Y-12262750D01*
X9485000Y-12312750D01*
X9535000Y-12362750D01*
X9535000Y-12616750D02*
X9585000Y-12566750D01*
X9535000Y-12516750D01*
X9485000Y-12566750D01*
X9535000Y-12616750D01*
X12585000Y-9823250D02*
X12635000Y-9773250D01*
X12585000Y-9723250D01*
X12535000Y-9773250D01*
X12585000Y-9823250D01*
X12585000Y-10077250D02*
X12635000Y-10027250D01*
X12585000Y-9977250D01*
X12535000Y-10027250D01*
X12585000Y-10077250D01*
X12585000Y-10331250D02*
X12635000Y-10281250D01*
X12585000Y-10231250D01*
X12535000Y-10281250D01*
X12585000Y-10331250D01*
X12585000Y-10585250D02*
X12635000Y-10535250D01*
X12585000Y-10485250D01*
X12535000Y-10535250D01*
X12585000Y-10585250D01*
X12585000Y-10839250D02*
X12635000Y-10789250D01*
X12585000Y-10739250D01*
X12535000Y-10789250D01*
X12585000Y-10839250D01*
X12585000Y-11093250D02*
X12635000Y-11043250D01*
X12585000Y-10993250D01*
X12535000Y-11043250D01*
X12585000Y-11093250D01*
X12585000Y-11347250D02*
X12635000Y-11297250D01*
X12585000Y-11247250D01*
X12535000Y-11297250D01*
X12585000Y-11347250D01*
X12585000Y-11601250D02*
X12635000Y-11551250D01*
X12585000Y-11501250D01*
X12535000Y-11551250D01*
X12585000Y-11601250D01*
X12585000Y-11855250D02*
X12635000Y-11805250D01*
X12585000Y-11755250D01*
X12535000Y-11805250D01*
X12585000Y-11855250D01*
X12585000Y-12109250D02*
X12635000Y-12059250D01*
X12585000Y-12009250D01*
X12535000Y-12059250D01*
X12585000Y-12109250D01*
X13480000Y-5449000D02*
X13530000Y-5399000D01*
X13480000Y-5349000D01*
X13430000Y-5399000D01*
X13480000Y-5449000D01*
X13480000Y-5703000D02*
X13530000Y-5653000D01*
X13480000Y-5603000D01*
X13430000Y-5653000D01*
X13480000Y-5703000D01*
X13480000Y-5957000D02*
X13530000Y-5907000D01*
X13480000Y-5857000D01*
X13430000Y-5907000D01*
X13480000Y-5957000D01*
X13480000Y-6211000D02*
X13530000Y-6161000D01*
X13480000Y-6111000D01*
X13430000Y-6161000D01*
X13480000Y-6211000D01*
X14615000Y-5453000D02*
X14665000Y-5403000D01*
X14615000Y-5353000D01*
X14565000Y-5403000D01*
X14615000Y-5453000D01*
X14615000Y-5707000D02*
X14665000Y-5657000D01*
X14615000Y-5607000D01*
X14565000Y-5657000D01*
X14615000Y-5707000D01*
X14615000Y-5961000D02*
X14665000Y-5911000D01*
X14615000Y-5861000D01*
X14565000Y-5911000D01*
X14615000Y-5961000D01*
X14615000Y-6215000D02*
X14665000Y-6165000D01*
X14615000Y-6115000D01*
X14565000Y-6165000D01*
X14615000Y-6215000D01*
X14825500Y-7434000D02*
X14875500Y-7384000D01*
X14825500Y-7334000D01*
X14775500Y-7384000D01*
X14825500Y-7434000D01*
X14825500Y-7688000D02*
X14875500Y-7638000D01*
X14825500Y-7588000D01*
X14775500Y-7638000D01*
X14825500Y-7688000D01*
X14825500Y-7942000D02*
X14875500Y-7892000D01*
X14825500Y-7842000D01*
X14775500Y-7892000D01*
X14825500Y-7942000D01*
X14825500Y-8196000D02*
X14875500Y-8146000D01*
X14825500Y-8096000D01*
X14775500Y-8146000D01*
X14825500Y-8196000D01*
X14825500Y-8450000D02*
X14875500Y-8400000D01*
X14825500Y-8350000D01*
X14775500Y-8400000D01*
X14825500Y-8450000D01*
X14825500Y-8704000D02*
X14875500Y-8654000D01*
X14825500Y-8604000D01*
X14775500Y-8654000D01*
X14825500Y-8704000D01*
X14825500Y-8958000D02*
X14875500Y-8908000D01*
X14825500Y-8858000D01*
X14775500Y-8908000D01*
X14825500Y-8958000D01*
X14825500Y-9212000D02*
X14875500Y-9162000D01*
X14825500Y-9112000D01*
X14775500Y-9162000D01*
X14825500Y-9212000D01*
X14825500Y-9466000D02*
X14875500Y-9416000D01*
X14825500Y-9366000D01*
X14775500Y-9416000D01*
X14825500Y-9466000D01*
X14825500Y-9720000D02*
X14875500Y-9670000D01*
X14825500Y-9620000D01*
X14775500Y-9670000D01*
X14825500Y-9720000D01*
X14825500Y-9974000D02*
X14875500Y-9924000D01*
X14825500Y-9874000D01*
X14775500Y-9924000D01*
X14825500Y-9974000D01*
X14825500Y-10228000D02*
X14875500Y-10178000D01*
X14825500Y-10128000D01*
X14775500Y-10178000D01*
X14825500Y-10228000D01*
X14825500Y-10482000D02*
X14875500Y-10432000D01*
X14825500Y-10382000D01*
X14775500Y-10432000D01*
X14825500Y-10482000D01*
X14825500Y-10736000D02*
X14875500Y-10686000D01*
X14825500Y-10636000D01*
X14775500Y-10686000D01*
X14825500Y-10736000D01*
X14825500Y-10990000D02*
X14875500Y-10940000D01*
X14825500Y-10890000D01*
X14775500Y-10940000D01*
X14825500Y-10990000D01*
X14825500Y-11244000D02*
X14875500Y-11194000D01*
X14825500Y-11144000D01*
X14775500Y-11194000D01*
X14825500Y-11244000D01*
X14825500Y-11498000D02*
X14875500Y-11448000D01*
X14825500Y-11398000D01*
X14775500Y-11448000D01*
X14825500Y-11498000D01*
X14825500Y-11752000D02*
X14875500Y-11702000D01*
X14825500Y-11652000D01*
X14775500Y-11702000D01*
X14825500Y-11752000D01*
X14825500Y-12006000D02*
X14875500Y-11956000D01*
X14825500Y-11906000D01*
X14775500Y-11956000D01*
X14825500Y-12006000D01*
X14825500Y-12260000D02*
X14875500Y-12210000D01*
X14825500Y-12160000D01*
X14775500Y-12210000D01*
X14825500Y-12260000D01*
X16603500Y-7434000D02*
X16653500Y-7384000D01*
X16603500Y-7334000D01*
X16553500Y-7384000D01*
X16603500Y-7434000D01*
X16603500Y-7688000D02*
X16653500Y-7638000D01*
X16603500Y-7588000D01*
X16553500Y-7638000D01*
X16603500Y-7688000D01*
X16603500Y-7942000D02*
X16653500Y-7892000D01*
X16603500Y-7842000D01*
X16553500Y-7892000D01*
X16603500Y-7942000D01*
X16603500Y-8196000D02*
X16653500Y-8146000D01*
X16603500Y-8096000D01*
X16553500Y-8146000D01*
X16603500Y-8196000D01*
X16603500Y-8450000D02*
X16653500Y-8400000D01*
X16603500Y-8350000D01*
X16553500Y-8400000D01*
X16603500Y-8450000D01*
X16603500Y-8704000D02*
X16653500Y-8654000D01*
X16603500Y-8604000D01*
X16553500Y-8654000D01*
X16603500Y-8704000D01*
X16603500Y-8958000D02*
X16653500Y-8908000D01*
X16603500Y-8858000D01*
X16553500Y-8908000D01*
X16603500Y-8958000D01*
X16603500Y-9212000D02*
X16653500Y-9162000D01*
X16603500Y-9112000D01*
X16553500Y-9162000D01*
X16603500Y-9212000D01*
X16603500Y-9466000D02*
X16653500Y-9416000D01*
X16603500Y-9366000D01*
X16553500Y-9416000D01*
X16603500Y-9466000D01*
X16603500Y-9720000D02*
X16653500Y-9670000D01*
X16603500Y-9620000D01*
X16553500Y-9670000D01*
X16603500Y-9720000D01*
X16603500Y-9974000D02*
X16653500Y-9924000D01*
X16603500Y-9874000D01*
X16553500Y-9924000D01*
X16603500Y-9974000D01*
X16603500Y-10228000D02*
X16653500Y-10178000D01*
X16603500Y-10128000D01*
X16553500Y-10178000D01*
X16603500Y-10228000D01*
X16603500Y-10482000D02*
X16653500Y-10432000D01*
X16603500Y-10382000D01*
X16553500Y-10432000D01*
X16603500Y-10482000D01*
X16603500Y-10736000D02*
X16653500Y-10686000D01*
X16603500Y-10636000D01*
X16553500Y-10686000D01*
X16603500Y-10736000D01*
X16603500Y-10990000D02*
X16653500Y-10940000D01*
X16603500Y-10890000D01*
X16553500Y-10940000D01*
X16603500Y-10990000D01*
X16603500Y-11244000D02*
X16653500Y-11194000D01*
X16603500Y-11144000D01*
X16553500Y-11194000D01*
X16603500Y-11244000D01*
X16603500Y-11498000D02*
X16653500Y-11448000D01*
X16603500Y-11398000D01*
X16553500Y-11448000D01*
X16603500Y-11498000D01*
X16603500Y-11752000D02*
X16653500Y-11702000D01*
X16603500Y-11652000D01*
X16553500Y-11702000D01*
X16603500Y-11752000D01*
X16603500Y-12006000D02*
X16653500Y-11956000D01*
X16603500Y-11906000D01*
X16553500Y-11956000D01*
X16603500Y-12006000D01*
X16603500Y-12260000D02*
X16653500Y-12210000D01*
X16603500Y-12160000D01*
X16553500Y-12210000D01*
X16603500Y-12260000D01*
X20950500Y-11867000D02*
X21000500Y-11817000D01*
X20950500Y-11767000D01*
X20900500Y-11817000D01*
X20950500Y-11867000D01*
X20950500Y-13057000D02*
X21000500Y-13007000D01*
X20950500Y-12957000D01*
X20900500Y-13007000D01*
X20950500Y-13057000D01*
X20956500Y-9487000D02*
X21006500Y-9437000D01*
X20956500Y-9387000D01*
X20906500Y-9437000D01*
X20956500Y-9487000D01*
X20956500Y-10677000D02*
X21006500Y-10627000D01*
X20956500Y-10577000D01*
X20906500Y-10627000D01*
X20956500Y-10677000D01*
X21204500Y-11867000D02*
X21254500Y-11817000D01*
X21204500Y-11767000D01*
X21154500Y-11817000D01*
X21204500Y-11867000D01*
X21204500Y-13057000D02*
X21254500Y-13007000D01*
X21204500Y-12957000D01*
X21154500Y-13007000D01*
X21204500Y-13057000D01*
X21210500Y-9487000D02*
X21260500Y-9437000D01*
X21210500Y-9387000D01*
X21160500Y-9437000D01*
X21210500Y-9487000D01*
X21210500Y-10677000D02*
X21260500Y-10627000D01*
X21210500Y-10577000D01*
X21160500Y-10627000D01*
X21210500Y-10677000D01*
X21458500Y-11867000D02*
X21508500Y-11817000D01*
X21458500Y-11767000D01*
X21408500Y-11817000D01*
X21458500Y-11867000D01*
X21458500Y-13057000D02*
X21508500Y-13007000D01*
X21458500Y-12957000D01*
X21408500Y-13007000D01*
X21458500Y-13057000D01*
X21464500Y-9487000D02*
X21514500Y-9437000D01*
X21464500Y-9387000D01*
X21414500Y-9437000D01*
X21464500Y-9487000D01*
X21464500Y-10677000D02*
X21514500Y-10627000D01*
X21464500Y-10577000D01*
X21414500Y-10627000D01*
X21464500Y-10677000D01*
D13*
X16120000Y-5454000D02*
X16230000Y-5564000D01*
X16230000Y-5454000D02*
X16120000Y-5564000D01*
X16230000Y-5509000D02*
G75*
G02*
X16120000Y-5509000I-55000J0D01*
G01*
X16120000Y-5509000D02*
G75*
G02*
X16230000Y-5509000I55000J0D01*
G01*
X16120000Y-6470000D02*
X16230000Y-6580000D01*
X16230000Y-6470000D02*
X16120000Y-6580000D01*
X16230000Y-6525000D02*
G75*
G02*
X16120000Y-6525000I-55000J0D01*
G01*
X16120000Y-6525000D02*
G75*
G02*
X16230000Y-6525000I55000J0D01*
G01*
X17510000Y-6012000D02*
X17620000Y-6122000D01*
X17620000Y-6012000D02*
X17510000Y-6122000D01*
X17620000Y-6067000D02*
G75*
G02*
X17510000Y-6067000I-55000J0D01*
G01*
X17510000Y-6067000D02*
G75*
G02*
X17620000Y-6067000I55000J0D01*
G01*
X17510000Y-7028000D02*
X17620000Y-7138000D01*
X17620000Y-7028000D02*
X17510000Y-7138000D01*
X17620000Y-7083000D02*
G75*
G02*
X17510000Y-7083000I-55000J0D01*
G01*
X17510000Y-7083000D02*
G75*
G02*
X17620000Y-7083000I55000J0D01*
G01*
D14*
X6904500Y-6013000D02*
X7024500Y-6133000D01*
X7024500Y-6013000D02*
X6904500Y-6133000D01*
X6964500Y-6013000D02*
X6964500Y-6133000D01*
X6904500Y-6073000D02*
X7024500Y-6073000D01*
X6904500Y-6267000D02*
X7024500Y-6387000D01*
X7024500Y-6267000D02*
X6904500Y-6387000D01*
X6964500Y-6267000D02*
X6964500Y-6387000D01*
X6904500Y-6327000D02*
X7024500Y-6327000D01*
X6904500Y-6521000D02*
X7024500Y-6641000D01*
X7024500Y-6521000D02*
X6904500Y-6641000D01*
X6964500Y-6521000D02*
X6964500Y-6641000D01*
X6904500Y-6581000D02*
X7024500Y-6581000D01*
X6904500Y-7156500D02*
X7024500Y-7276500D01*
X7024500Y-7156500D02*
X6904500Y-7276500D01*
X6964500Y-7156500D02*
X6964500Y-7276500D01*
X6904500Y-7216500D02*
X7024500Y-7216500D01*
X6904500Y-7410500D02*
X7024500Y-7530500D01*
X7024500Y-7410500D02*
X6904500Y-7530500D01*
X6964500Y-7410500D02*
X6964500Y-7530500D01*
X6904500Y-7470500D02*
X7024500Y-7470500D01*
X6904500Y-7664500D02*
X7024500Y-7784500D01*
X7024500Y-7664500D02*
X6904500Y-7784500D01*
X6964500Y-7664500D02*
X6964500Y-7784500D01*
X6904500Y-7724500D02*
X7024500Y-7724500D01*
X6904500Y-8300000D02*
X7024500Y-8420000D01*
X7024500Y-8300000D02*
X6904500Y-8420000D01*
X6964500Y-8300000D02*
X6964500Y-8420000D01*
X6904500Y-8360000D02*
X7024500Y-8360000D01*
X6904500Y-8554000D02*
X7024500Y-8674000D01*
X7024500Y-8554000D02*
X6904500Y-8674000D01*
X6964500Y-8554000D02*
X6964500Y-8674000D01*
X6904500Y-8614000D02*
X7024500Y-8614000D01*
X6904500Y-8808000D02*
X7024500Y-8928000D01*
X7024500Y-8808000D02*
X6904500Y-8928000D01*
X6964500Y-8808000D02*
X6964500Y-8928000D01*
X6904500Y-8868000D02*
X7024500Y-8868000D01*
X6904500Y-9443500D02*
X7024500Y-9563500D01*
X7024500Y-9443500D02*
X6904500Y-9563500D01*
X6964500Y-9443500D02*
X6964500Y-9563500D01*
X6904500Y-9503500D02*
X7024500Y-9503500D01*
X6904500Y-9697500D02*
X7024500Y-9817500D01*
X7024500Y-9697500D02*
X6904500Y-9817500D01*
X6964500Y-9697500D02*
X6964500Y-9817500D01*
X6904500Y-9757500D02*
X7024500Y-9757500D01*
X6904500Y-9951500D02*
X7024500Y-10071500D01*
X7024500Y-9951500D02*
X6904500Y-10071500D01*
X6964500Y-9951500D02*
X6964500Y-10071500D01*
X6904500Y-10011500D02*
X7024500Y-10011500D01*
X6904500Y-10586000D02*
X7024500Y-10706000D01*
X7024500Y-10586000D02*
X6904500Y-10706000D01*
X6964500Y-10586000D02*
X6964500Y-10706000D01*
X6904500Y-10646000D02*
X7024500Y-10646000D01*
X6904500Y-10840000D02*
X7024500Y-10960000D01*
X7024500Y-10840000D02*
X6904500Y-10960000D01*
X6964500Y-10840000D02*
X6964500Y-10960000D01*
X6904500Y-10900000D02*
X7024500Y-10900000D01*
X6904500Y-11480000D02*
X7024500Y-11600000D01*
X7024500Y-11480000D02*
X6904500Y-11600000D01*
X6964500Y-11480000D02*
X6964500Y-11600000D01*
X6904500Y-11540000D02*
X7024500Y-11540000D01*
X6904500Y-11734000D02*
X7024500Y-11854000D01*
X7024500Y-11734000D02*
X6904500Y-11854000D01*
X6964500Y-11734000D02*
X6964500Y-11854000D01*
X6904500Y-11794000D02*
X7024500Y-11794000D01*
X6904500Y-12360000D02*
X7024500Y-12480000D01*
X7024500Y-12360000D02*
X6904500Y-12480000D01*
X6964500Y-12360000D02*
X6964500Y-12480000D01*
X6904500Y-12420000D02*
X7024500Y-12420000D01*
X6904500Y-12614000D02*
X7024500Y-12734000D01*
X7024500Y-12614000D02*
X6904500Y-12734000D01*
X6964500Y-12614000D02*
X6964500Y-12734000D01*
X6904500Y-12674000D02*
X7024500Y-12674000D01*
X21403250Y-5965500D02*
X21523250Y-6085500D01*
X21523250Y-5965500D02*
X21403250Y-6085500D01*
X21463250Y-5965500D02*
X21463250Y-6085500D01*
X21403250Y-6025500D02*
X21523250Y-6025500D01*
X21403250Y-6219500D02*
X21523250Y-6339500D01*
X21523250Y-6219500D02*
X21403250Y-6339500D01*
X21463250Y-6219500D02*
X21463250Y-6339500D01*
X21403250Y-6279500D02*
X21523250Y-6279500D01*
X21403250Y-6473500D02*
X21523250Y-6593500D01*
X21523250Y-6473500D02*
X21403250Y-6593500D01*
X21463250Y-6473500D02*
X21463250Y-6593500D01*
X21403250Y-6533500D02*
X21523250Y-6533500D01*
X21403250Y-7481000D02*
X21523250Y-7601000D01*
X21523250Y-7481000D02*
X21403250Y-7601000D01*
X21463250Y-7481000D02*
X21463250Y-7601000D01*
X21403250Y-7541000D02*
X21523250Y-7541000D01*
X21403250Y-7735000D02*
X21523250Y-7855000D01*
X21523250Y-7735000D02*
X21403250Y-7855000D01*
X21463250Y-7735000D02*
X21463250Y-7855000D01*
X21403250Y-7795000D02*
X21523250Y-7795000D01*
X21403250Y-7989000D02*
X21523250Y-8109000D01*
X21523250Y-7989000D02*
X21403250Y-8109000D01*
X21463250Y-7989000D02*
X21463250Y-8109000D01*
X21403250Y-8049000D02*
X21523250Y-8049000D01*
D15*
X18985000Y-4355000D02*
X19255000Y-4625000D01*
X19255000Y-4355000D02*
X18985000Y-4625000D01*
X19215460Y-4585460D02*
X19215460Y-4394540D01*
X19024540Y-4394540D01*
X19024540Y-4585460D01*
X19215460Y-4585460D01*
X18985000Y-4855000D02*
X19255000Y-5125000D01*
X19255000Y-4855000D02*
X18985000Y-5125000D01*
X19215460Y-5085460D02*
X19215460Y-4894540D01*
X19024540Y-4894540D01*
X19024540Y-5085460D01*
X19215460Y-5085460D01*
D11*
X5873268Y-14550960D02*
X5873268Y-14350960D01*
X5873268Y-14350960D02*
X5920887Y-14350960D01*
X5920887Y-14350960D02*
X5949458Y-14360484D01*
X5949458Y-14360484D02*
X5968506Y-14379531D01*
X5968506Y-14379531D02*
X5978030Y-14398579D01*
X5978030Y-14398579D02*
X5987554Y-14436674D01*
X5987554Y-14436674D02*
X5987554Y-14465246D01*
X5987554Y-14465246D02*
X5978030Y-14503341D01*
X5978030Y-14503341D02*
X5968506Y-14522388D01*
X5968506Y-14522388D02*
X5949458Y-14541436D01*
X5949458Y-14541436D02*
X5920887Y-14550960D01*
X5920887Y-14550960D02*
X5873268Y-14550960D01*
X6073268Y-14550960D02*
X6073268Y-14417627D01*
X6073268Y-14455722D02*
X6082792Y-14436674D01*
X6082792Y-14436674D02*
X6092315Y-14427150D01*
X6092315Y-14427150D02*
X6111363Y-14417627D01*
X6111363Y-14417627D02*
X6130411Y-14417627D01*
X6197077Y-14550960D02*
X6197077Y-14417627D01*
X6197077Y-14350960D02*
X6187554Y-14360484D01*
X6187554Y-14360484D02*
X6197077Y-14370008D01*
X6197077Y-14370008D02*
X6206601Y-14360484D01*
X6206601Y-14360484D02*
X6197077Y-14350960D01*
X6197077Y-14350960D02*
X6197077Y-14370008D01*
X6320887Y-14550960D02*
X6301839Y-14541436D01*
X6301839Y-14541436D02*
X6292315Y-14522388D01*
X6292315Y-14522388D02*
X6292315Y-14350960D01*
X6425649Y-14550960D02*
X6406601Y-14541436D01*
X6406601Y-14541436D02*
X6397077Y-14522388D01*
X6397077Y-14522388D02*
X6397077Y-14350960D01*
X6654220Y-14550960D02*
X6654220Y-14350960D01*
X6654220Y-14350960D02*
X6720887Y-14493817D01*
X6720887Y-14493817D02*
X6787554Y-14350960D01*
X6787554Y-14350960D02*
X6787554Y-14550960D01*
X6968506Y-14550960D02*
X6968506Y-14446198D01*
X6968506Y-14446198D02*
X6958982Y-14427150D01*
X6958982Y-14427150D02*
X6939935Y-14417627D01*
X6939935Y-14417627D02*
X6901839Y-14417627D01*
X6901839Y-14417627D02*
X6882792Y-14427150D01*
X6968506Y-14541436D02*
X6949458Y-14550960D01*
X6949458Y-14550960D02*
X6901839Y-14550960D01*
X6901839Y-14550960D02*
X6882792Y-14541436D01*
X6882792Y-14541436D02*
X6873268Y-14522388D01*
X6873268Y-14522388D02*
X6873268Y-14503341D01*
X6873268Y-14503341D02*
X6882792Y-14484293D01*
X6882792Y-14484293D02*
X6901839Y-14474769D01*
X6901839Y-14474769D02*
X6949458Y-14474769D01*
X6949458Y-14474769D02*
X6968506Y-14465246D01*
X7063744Y-14417627D02*
X7063744Y-14617627D01*
X7063744Y-14427150D02*
X7082792Y-14417627D01*
X7082792Y-14417627D02*
X7120887Y-14417627D01*
X7120887Y-14417627D02*
X7139935Y-14427150D01*
X7139935Y-14427150D02*
X7149458Y-14436674D01*
X7149458Y-14436674D02*
X7158982Y-14455722D01*
X7158982Y-14455722D02*
X7158982Y-14512865D01*
X7158982Y-14512865D02*
X7149458Y-14531912D01*
X7149458Y-14531912D02*
X7139935Y-14541436D01*
X7139935Y-14541436D02*
X7120887Y-14550960D01*
X7120887Y-14550960D02*
X7082792Y-14550960D01*
X7082792Y-14550960D02*
X7063744Y-14541436D01*
X7244696Y-14531912D02*
X7254220Y-14541436D01*
X7254220Y-14541436D02*
X7244696Y-14550960D01*
X7244696Y-14550960D02*
X7235173Y-14541436D01*
X7235173Y-14541436D02*
X7244696Y-14531912D01*
X7244696Y-14531912D02*
X7244696Y-14550960D01*
X7244696Y-14427150D02*
X7254220Y-14436674D01*
X7254220Y-14436674D02*
X7244696Y-14446198D01*
X7244696Y-14446198D02*
X7235173Y-14436674D01*
X7235173Y-14436674D02*
X7244696Y-14427150D01*
X7244696Y-14427150D02*
X7244696Y-14446198D01*
D12*
X5582491Y-14864476D02*
X5612491Y-14894476D01*
X5612491Y-14864476D02*
X5582491Y-14894476D01*
D11*
X5911363Y-14770960D02*
X5930411Y-14770960D01*
X5930411Y-14770960D02*
X5949458Y-14780484D01*
X5949458Y-14780484D02*
X5958982Y-14790008D01*
X5958982Y-14790008D02*
X5968506Y-14809055D01*
X5968506Y-14809055D02*
X5978030Y-14847150D01*
X5978030Y-14847150D02*
X5978030Y-14894769D01*
X5978030Y-14894769D02*
X5968506Y-14932865D01*
X5968506Y-14932865D02*
X5958982Y-14951912D01*
X5958982Y-14951912D02*
X5949458Y-14961436D01*
X5949458Y-14961436D02*
X5930411Y-14970960D01*
X5930411Y-14970960D02*
X5911363Y-14970960D01*
X5911363Y-14970960D02*
X5892315Y-14961436D01*
X5892315Y-14961436D02*
X5882792Y-14951912D01*
X5882792Y-14951912D02*
X5873268Y-14932865D01*
X5873268Y-14932865D02*
X5863744Y-14894769D01*
X5863744Y-14894769D02*
X5863744Y-14847150D01*
X5863744Y-14847150D02*
X5873268Y-14809055D01*
X5873268Y-14809055D02*
X5882792Y-14790008D01*
X5882792Y-14790008D02*
X5892315Y-14780484D01*
X5892315Y-14780484D02*
X5911363Y-14770960D01*
X6063744Y-14951912D02*
X6073268Y-14961436D01*
X6073268Y-14961436D02*
X6063744Y-14970960D01*
X6063744Y-14970960D02*
X6054220Y-14961436D01*
X6054220Y-14961436D02*
X6063744Y-14951912D01*
X6063744Y-14951912D02*
X6063744Y-14970960D01*
X6139935Y-14770960D02*
X6263744Y-14770960D01*
X6263744Y-14770960D02*
X6197077Y-14847150D01*
X6197077Y-14847150D02*
X6225649Y-14847150D01*
X6225649Y-14847150D02*
X6244696Y-14856674D01*
X6244696Y-14856674D02*
X6254220Y-14866198D01*
X6254220Y-14866198D02*
X6263744Y-14885246D01*
X6263744Y-14885246D02*
X6263744Y-14932865D01*
X6263744Y-14932865D02*
X6254220Y-14951912D01*
X6254220Y-14951912D02*
X6244696Y-14961436D01*
X6244696Y-14961436D02*
X6225649Y-14970960D01*
X6225649Y-14970960D02*
X6168506Y-14970960D01*
X6168506Y-14970960D02*
X6149458Y-14961436D01*
X6149458Y-14961436D02*
X6139935Y-14951912D01*
X6387554Y-14770960D02*
X6406601Y-14770960D01*
X6406601Y-14770960D02*
X6425649Y-14780484D01*
X6425649Y-14780484D02*
X6435173Y-14790008D01*
X6435173Y-14790008D02*
X6444696Y-14809055D01*
X6444696Y-14809055D02*
X6454220Y-14847150D01*
X6454220Y-14847150D02*
X6454220Y-14894769D01*
X6454220Y-14894769D02*
X6444696Y-14932865D01*
X6444696Y-14932865D02*
X6435173Y-14951912D01*
X6435173Y-14951912D02*
X6425649Y-14961436D01*
X6425649Y-14961436D02*
X6406601Y-14970960D01*
X6406601Y-14970960D02*
X6387554Y-14970960D01*
X6387554Y-14970960D02*
X6368506Y-14961436D01*
X6368506Y-14961436D02*
X6358982Y-14951912D01*
X6358982Y-14951912D02*
X6349458Y-14932865D01*
X6349458Y-14932865D02*
X6339935Y-14894769D01*
X6339935Y-14894769D02*
X6339935Y-14847150D01*
X6339935Y-14847150D02*
X6349458Y-14809055D01*
X6349458Y-14809055D02*
X6358982Y-14790008D01*
X6358982Y-14790008D02*
X6368506Y-14780484D01*
X6368506Y-14780484D02*
X6387554Y-14770960D01*
X6578030Y-14770960D02*
X6597077Y-14770960D01*
X6597077Y-14770960D02*
X6616125Y-14780484D01*
X6616125Y-14780484D02*
X6625649Y-14790008D01*
X6625649Y-14790008D02*
X6635173Y-14809055D01*
X6635173Y-14809055D02*
X6644696Y-14847150D01*
X6644696Y-14847150D02*
X6644696Y-14894769D01*
X6644696Y-14894769D02*
X6635173Y-14932865D01*
X6635173Y-14932865D02*
X6625649Y-14951912D01*
X6625649Y-14951912D02*
X6616125Y-14961436D01*
X6616125Y-14961436D02*
X6597077Y-14970960D01*
X6597077Y-14970960D02*
X6578030Y-14970960D01*
X6578030Y-14970960D02*
X6558982Y-14961436D01*
X6558982Y-14961436D02*
X6549458Y-14951912D01*
X6549458Y-14951912D02*
X6539935Y-14932865D01*
X6539935Y-14932865D02*
X6530411Y-14894769D01*
X6530411Y-14894769D02*
X6530411Y-14847150D01*
X6530411Y-14847150D02*
X6539935Y-14809055D01*
X6539935Y-14809055D02*
X6549458Y-14790008D01*
X6549458Y-14790008D02*
X6558982Y-14780484D01*
X6558982Y-14780484D02*
X6578030Y-14770960D01*
X6730411Y-14970960D02*
X6730411Y-14837627D01*
X6730411Y-14856674D02*
X6739935Y-14847150D01*
X6739935Y-14847150D02*
X6758982Y-14837627D01*
X6758982Y-14837627D02*
X6787554Y-14837627D01*
X6787554Y-14837627D02*
X6806601Y-14847150D01*
X6806601Y-14847150D02*
X6816125Y-14866198D01*
X6816125Y-14866198D02*
X6816125Y-14970960D01*
X6816125Y-14866198D02*
X6825649Y-14847150D01*
X6825649Y-14847150D02*
X6844696Y-14837627D01*
X6844696Y-14837627D02*
X6873268Y-14837627D01*
X6873268Y-14837627D02*
X6892316Y-14847150D01*
X6892316Y-14847150D02*
X6901839Y-14866198D01*
X6901839Y-14866198D02*
X6901839Y-14970960D01*
X6997077Y-14970960D02*
X6997077Y-14837627D01*
X6997077Y-14856674D02*
X7006601Y-14847150D01*
X7006601Y-14847150D02*
X7025649Y-14837627D01*
X7025649Y-14837627D02*
X7054220Y-14837627D01*
X7054220Y-14837627D02*
X7073268Y-14847150D01*
X7073268Y-14847150D02*
X7082792Y-14866198D01*
X7082792Y-14866198D02*
X7082792Y-14970960D01*
X7082792Y-14866198D02*
X7092316Y-14847150D01*
X7092316Y-14847150D02*
X7111363Y-14837627D01*
X7111363Y-14837627D02*
X7139935Y-14837627D01*
X7139935Y-14837627D02*
X7158982Y-14847150D01*
X7158982Y-14847150D02*
X7168506Y-14866198D01*
X7168506Y-14866198D02*
X7168506Y-14970960D01*
X7558982Y-14761436D02*
X7387554Y-15018579D01*
X7816125Y-14770960D02*
X7835173Y-14770960D01*
X7835173Y-14770960D02*
X7854220Y-14780484D01*
X7854220Y-14780484D02*
X7863744Y-14790008D01*
X7863744Y-14790008D02*
X7873268Y-14809055D01*
X7873268Y-14809055D02*
X7882792Y-14847150D01*
X7882792Y-14847150D02*
X7882792Y-14894769D01*
X7882792Y-14894769D02*
X7873268Y-14932865D01*
X7873268Y-14932865D02*
X7863744Y-14951912D01*
X7863744Y-14951912D02*
X7854220Y-14961436D01*
X7854220Y-14961436D02*
X7835173Y-14970960D01*
X7835173Y-14970960D02*
X7816125Y-14970960D01*
X7816125Y-14970960D02*
X7797078Y-14961436D01*
X7797078Y-14961436D02*
X7787554Y-14951912D01*
X7787554Y-14951912D02*
X7778030Y-14932865D01*
X7778030Y-14932865D02*
X7768506Y-14894769D01*
X7768506Y-14894769D02*
X7768506Y-14847150D01*
X7768506Y-14847150D02*
X7778030Y-14809055D01*
X7778030Y-14809055D02*
X7787554Y-14790008D01*
X7787554Y-14790008D02*
X7797078Y-14780484D01*
X7797078Y-14780484D02*
X7816125Y-14770960D01*
X7968506Y-14951912D02*
X7978030Y-14961436D01*
X7978030Y-14961436D02*
X7968506Y-14970960D01*
X7968506Y-14970960D02*
X7958982Y-14961436D01*
X7958982Y-14961436D02*
X7968506Y-14951912D01*
X7968506Y-14951912D02*
X7968506Y-14970960D01*
X8101839Y-14770960D02*
X8120887Y-14770960D01*
X8120887Y-14770960D02*
X8139935Y-14780484D01*
X8139935Y-14780484D02*
X8149459Y-14790008D01*
X8149459Y-14790008D02*
X8158982Y-14809055D01*
X8158982Y-14809055D02*
X8168506Y-14847150D01*
X8168506Y-14847150D02*
X8168506Y-14894769D01*
X8168506Y-14894769D02*
X8158982Y-14932865D01*
X8158982Y-14932865D02*
X8149459Y-14951912D01*
X8149459Y-14951912D02*
X8139935Y-14961436D01*
X8139935Y-14961436D02*
X8120887Y-14970960D01*
X8120887Y-14970960D02*
X8101839Y-14970960D01*
X8101839Y-14970960D02*
X8082792Y-14961436D01*
X8082792Y-14961436D02*
X8073268Y-14951912D01*
X8073268Y-14951912D02*
X8063744Y-14932865D01*
X8063744Y-14932865D02*
X8054220Y-14894769D01*
X8054220Y-14894769D02*
X8054220Y-14847150D01*
X8054220Y-14847150D02*
X8063744Y-14809055D01*
X8063744Y-14809055D02*
X8073268Y-14790008D01*
X8073268Y-14790008D02*
X8082792Y-14780484D01*
X8082792Y-14780484D02*
X8101839Y-14770960D01*
X8358982Y-14970960D02*
X8244697Y-14970960D01*
X8301839Y-14970960D02*
X8301839Y-14770960D01*
X8301839Y-14770960D02*
X8282792Y-14799531D01*
X8282792Y-14799531D02*
X8263744Y-14818579D01*
X8263744Y-14818579D02*
X8244697Y-14828103D01*
X8549459Y-14970960D02*
X8435173Y-14970960D01*
X8492316Y-14970960D02*
X8492316Y-14770960D01*
X8492316Y-14770960D02*
X8473268Y-14799531D01*
X8473268Y-14799531D02*
X8454221Y-14818579D01*
X8454221Y-14818579D02*
X8435173Y-14828103D01*
X8663744Y-14856674D02*
X8644697Y-14847150D01*
X8644697Y-14847150D02*
X8635173Y-14837627D01*
X8635173Y-14837627D02*
X8625649Y-14818579D01*
X8625649Y-14818579D02*
X8625649Y-14809055D01*
X8625649Y-14809055D02*
X8635173Y-14790008D01*
X8635173Y-14790008D02*
X8644697Y-14780484D01*
X8644697Y-14780484D02*
X8663744Y-14770960D01*
X8663744Y-14770960D02*
X8701840Y-14770960D01*
X8701840Y-14770960D02*
X8720887Y-14780484D01*
X8720887Y-14780484D02*
X8730411Y-14790008D01*
X8730411Y-14790008D02*
X8739935Y-14809055D01*
X8739935Y-14809055D02*
X8739935Y-14818579D01*
X8739935Y-14818579D02*
X8730411Y-14837627D01*
X8730411Y-14837627D02*
X8720887Y-14847150D01*
X8720887Y-14847150D02*
X8701840Y-14856674D01*
X8701840Y-14856674D02*
X8663744Y-14856674D01*
X8663744Y-14856674D02*
X8644697Y-14866198D01*
X8644697Y-14866198D02*
X8635173Y-14875722D01*
X8635173Y-14875722D02*
X8625649Y-14894769D01*
X8625649Y-14894769D02*
X8625649Y-14932865D01*
X8625649Y-14932865D02*
X8635173Y-14951912D01*
X8635173Y-14951912D02*
X8644697Y-14961436D01*
X8644697Y-14961436D02*
X8663744Y-14970960D01*
X8663744Y-14970960D02*
X8701840Y-14970960D01*
X8701840Y-14970960D02*
X8720887Y-14961436D01*
X8720887Y-14961436D02*
X8730411Y-14951912D01*
X8730411Y-14951912D02*
X8739935Y-14932865D01*
X8739935Y-14932865D02*
X8739935Y-14894769D01*
X8739935Y-14894769D02*
X8730411Y-14875722D01*
X8730411Y-14875722D02*
X8720887Y-14866198D01*
X8720887Y-14866198D02*
X8701840Y-14856674D01*
X8816125Y-14770960D02*
X8816125Y-14809055D01*
X8892316Y-14770960D02*
X8892316Y-14809055D01*
X9187554Y-15047150D02*
X9178030Y-15037627D01*
X9178030Y-15037627D02*
X9158983Y-15009055D01*
X9158983Y-15009055D02*
X9149459Y-14990008D01*
X9149459Y-14990008D02*
X9139935Y-14961436D01*
X9139935Y-14961436D02*
X9130411Y-14913817D01*
X9130411Y-14913817D02*
X9130411Y-14875722D01*
X9130411Y-14875722D02*
X9139935Y-14828103D01*
X9139935Y-14828103D02*
X9149459Y-14799531D01*
X9149459Y-14799531D02*
X9158983Y-14780484D01*
X9158983Y-14780484D02*
X9178030Y-14751912D01*
X9178030Y-14751912D02*
X9187554Y-14742388D01*
X9368506Y-14970960D02*
X9254221Y-14970960D01*
X9311363Y-14970960D02*
X9311363Y-14770960D01*
X9311363Y-14770960D02*
X9292316Y-14799531D01*
X9292316Y-14799531D02*
X9273268Y-14818579D01*
X9273268Y-14818579D02*
X9254221Y-14828103D01*
X9558983Y-14970960D02*
X9444697Y-14970960D01*
X9501840Y-14970960D02*
X9501840Y-14770960D01*
X9501840Y-14770960D02*
X9482792Y-14799531D01*
X9482792Y-14799531D02*
X9463744Y-14818579D01*
X9463744Y-14818579D02*
X9444697Y-14828103D01*
X9797078Y-14970960D02*
X9797078Y-14770960D01*
X9882792Y-14970960D02*
X9882792Y-14866198D01*
X9882792Y-14866198D02*
X9873268Y-14847150D01*
X9873268Y-14847150D02*
X9854221Y-14837627D01*
X9854221Y-14837627D02*
X9825649Y-14837627D01*
X9825649Y-14837627D02*
X9806602Y-14847150D01*
X9806602Y-14847150D02*
X9797078Y-14856674D01*
X10006602Y-14970960D02*
X9987554Y-14961436D01*
X9987554Y-14961436D02*
X9978030Y-14951912D01*
X9978030Y-14951912D02*
X9968506Y-14932865D01*
X9968506Y-14932865D02*
X9968506Y-14875722D01*
X9968506Y-14875722D02*
X9978030Y-14856674D01*
X9978030Y-14856674D02*
X9987554Y-14847150D01*
X9987554Y-14847150D02*
X10006602Y-14837627D01*
X10006602Y-14837627D02*
X10035173Y-14837627D01*
X10035173Y-14837627D02*
X10054221Y-14847150D01*
X10054221Y-14847150D02*
X10063745Y-14856674D01*
X10063745Y-14856674D02*
X10073268Y-14875722D01*
X10073268Y-14875722D02*
X10073268Y-14932865D01*
X10073268Y-14932865D02*
X10063745Y-14951912D01*
X10063745Y-14951912D02*
X10054221Y-14961436D01*
X10054221Y-14961436D02*
X10035173Y-14970960D01*
X10035173Y-14970960D02*
X10006602Y-14970960D01*
X10187554Y-14970960D02*
X10168506Y-14961436D01*
X10168506Y-14961436D02*
X10158983Y-14942388D01*
X10158983Y-14942388D02*
X10158983Y-14770960D01*
X10339935Y-14961436D02*
X10320887Y-14970960D01*
X10320887Y-14970960D02*
X10282792Y-14970960D01*
X10282792Y-14970960D02*
X10263745Y-14961436D01*
X10263745Y-14961436D02*
X10254221Y-14942388D01*
X10254221Y-14942388D02*
X10254221Y-14866198D01*
X10254221Y-14866198D02*
X10263745Y-14847150D01*
X10263745Y-14847150D02*
X10282792Y-14837627D01*
X10282792Y-14837627D02*
X10320887Y-14837627D01*
X10320887Y-14837627D02*
X10339935Y-14847150D01*
X10339935Y-14847150D02*
X10349459Y-14866198D01*
X10349459Y-14866198D02*
X10349459Y-14885246D01*
X10349459Y-14885246D02*
X10254221Y-14904293D01*
X10425649Y-14961436D02*
X10444697Y-14970960D01*
X10444697Y-14970960D02*
X10482792Y-14970960D01*
X10482792Y-14970960D02*
X10501840Y-14961436D01*
X10501840Y-14961436D02*
X10511364Y-14942388D01*
X10511364Y-14942388D02*
X10511364Y-14932865D01*
X10511364Y-14932865D02*
X10501840Y-14913817D01*
X10501840Y-14913817D02*
X10482792Y-14904293D01*
X10482792Y-14904293D02*
X10454221Y-14904293D01*
X10454221Y-14904293D02*
X10435173Y-14894769D01*
X10435173Y-14894769D02*
X10425649Y-14875722D01*
X10425649Y-14875722D02*
X10425649Y-14866198D01*
X10425649Y-14866198D02*
X10435173Y-14847150D01*
X10435173Y-14847150D02*
X10454221Y-14837627D01*
X10454221Y-14837627D02*
X10482792Y-14837627D01*
X10482792Y-14837627D02*
X10501840Y-14847150D01*
X10578030Y-15047150D02*
X10587554Y-15037627D01*
X10587554Y-15037627D02*
X10606602Y-15009055D01*
X10606602Y-15009055D02*
X10616126Y-14990008D01*
X10616126Y-14990008D02*
X10625649Y-14961436D01*
X10625649Y-14961436D02*
X10635173Y-14913817D01*
X10635173Y-14913817D02*
X10635173Y-14875722D01*
X10635173Y-14875722D02*
X10625649Y-14828103D01*
X10625649Y-14828103D02*
X10616126Y-14799531D01*
X10616126Y-14799531D02*
X10606602Y-14780484D01*
X10606602Y-14780484D02*
X10587554Y-14751912D01*
X10587554Y-14751912D02*
X10578030Y-14742388D01*
D12*
X5612491Y-15143476D02*
G75*
G02*
X5582491Y-15143476I-15000J0D01*
G01*
X5582491Y-15143476D02*
G75*
G02*
X5612491Y-15143476I15000J0D01*
G01*
D11*
X5911363Y-15034960D02*
X5930411Y-15034960D01*
X5930411Y-15034960D02*
X5949458Y-15044484D01*
X5949458Y-15044484D02*
X5958982Y-15054008D01*
X5958982Y-15054008D02*
X5968506Y-15073055D01*
X5968506Y-15073055D02*
X5978030Y-15111150D01*
X5978030Y-15111150D02*
X5978030Y-15158769D01*
X5978030Y-15158769D02*
X5968506Y-15196865D01*
X5968506Y-15196865D02*
X5958982Y-15215912D01*
X5958982Y-15215912D02*
X5949458Y-15225436D01*
X5949458Y-15225436D02*
X5930411Y-15234960D01*
X5930411Y-15234960D02*
X5911363Y-15234960D01*
X5911363Y-15234960D02*
X5892315Y-15225436D01*
X5892315Y-15225436D02*
X5882792Y-15215912D01*
X5882792Y-15215912D02*
X5873268Y-15196865D01*
X5873268Y-15196865D02*
X5863744Y-15158769D01*
X5863744Y-15158769D02*
X5863744Y-15111150D01*
X5863744Y-15111150D02*
X5873268Y-15073055D01*
X5873268Y-15073055D02*
X5882792Y-15054008D01*
X5882792Y-15054008D02*
X5892315Y-15044484D01*
X5892315Y-15044484D02*
X5911363Y-15034960D01*
X6063744Y-15215912D02*
X6073268Y-15225436D01*
X6073268Y-15225436D02*
X6063744Y-15234960D01*
X6063744Y-15234960D02*
X6054220Y-15225436D01*
X6054220Y-15225436D02*
X6063744Y-15215912D01*
X6063744Y-15215912D02*
X6063744Y-15234960D01*
X6139935Y-15034960D02*
X6263744Y-15034960D01*
X6263744Y-15034960D02*
X6197077Y-15111150D01*
X6197077Y-15111150D02*
X6225649Y-15111150D01*
X6225649Y-15111150D02*
X6244696Y-15120674D01*
X6244696Y-15120674D02*
X6254220Y-15130198D01*
X6254220Y-15130198D02*
X6263744Y-15149246D01*
X6263744Y-15149246D02*
X6263744Y-15196865D01*
X6263744Y-15196865D02*
X6254220Y-15215912D01*
X6254220Y-15215912D02*
X6244696Y-15225436D01*
X6244696Y-15225436D02*
X6225649Y-15234960D01*
X6225649Y-15234960D02*
X6168506Y-15234960D01*
X6168506Y-15234960D02*
X6149458Y-15225436D01*
X6149458Y-15225436D02*
X6139935Y-15215912D01*
X6387554Y-15034960D02*
X6406601Y-15034960D01*
X6406601Y-15034960D02*
X6425649Y-15044484D01*
X6425649Y-15044484D02*
X6435173Y-15054008D01*
X6435173Y-15054008D02*
X6444696Y-15073055D01*
X6444696Y-15073055D02*
X6454220Y-15111150D01*
X6454220Y-15111150D02*
X6454220Y-15158769D01*
X6454220Y-15158769D02*
X6444696Y-15196865D01*
X6444696Y-15196865D02*
X6435173Y-15215912D01*
X6435173Y-15215912D02*
X6425649Y-15225436D01*
X6425649Y-15225436D02*
X6406601Y-15234960D01*
X6406601Y-15234960D02*
X6387554Y-15234960D01*
X6387554Y-15234960D02*
X6368506Y-15225436D01*
X6368506Y-15225436D02*
X6358982Y-15215912D01*
X6358982Y-15215912D02*
X6349458Y-15196865D01*
X6349458Y-15196865D02*
X6339935Y-15158769D01*
X6339935Y-15158769D02*
X6339935Y-15111150D01*
X6339935Y-15111150D02*
X6349458Y-15073055D01*
X6349458Y-15073055D02*
X6358982Y-15054008D01*
X6358982Y-15054008D02*
X6368506Y-15044484D01*
X6368506Y-15044484D02*
X6387554Y-15034960D01*
X6578030Y-15034960D02*
X6597077Y-15034960D01*
X6597077Y-15034960D02*
X6616125Y-15044484D01*
X6616125Y-15044484D02*
X6625649Y-15054008D01*
X6625649Y-15054008D02*
X6635173Y-15073055D01*
X6635173Y-15073055D02*
X6644696Y-15111150D01*
X6644696Y-15111150D02*
X6644696Y-15158769D01*
X6644696Y-15158769D02*
X6635173Y-15196865D01*
X6635173Y-15196865D02*
X6625649Y-15215912D01*
X6625649Y-15215912D02*
X6616125Y-15225436D01*
X6616125Y-15225436D02*
X6597077Y-15234960D01*
X6597077Y-15234960D02*
X6578030Y-15234960D01*
X6578030Y-15234960D02*
X6558982Y-15225436D01*
X6558982Y-15225436D02*
X6549458Y-15215912D01*
X6549458Y-15215912D02*
X6539935Y-15196865D01*
X6539935Y-15196865D02*
X6530411Y-15158769D01*
X6530411Y-15158769D02*
X6530411Y-15111150D01*
X6530411Y-15111150D02*
X6539935Y-15073055D01*
X6539935Y-15073055D02*
X6549458Y-15054008D01*
X6549458Y-15054008D02*
X6558982Y-15044484D01*
X6558982Y-15044484D02*
X6578030Y-15034960D01*
X6730411Y-15234960D02*
X6730411Y-15101627D01*
X6730411Y-15120674D02*
X6739935Y-15111150D01*
X6739935Y-15111150D02*
X6758982Y-15101627D01*
X6758982Y-15101627D02*
X6787554Y-15101627D01*
X6787554Y-15101627D02*
X6806601Y-15111150D01*
X6806601Y-15111150D02*
X6816125Y-15130198D01*
X6816125Y-15130198D02*
X6816125Y-15234960D01*
X6816125Y-15130198D02*
X6825649Y-15111150D01*
X6825649Y-15111150D02*
X6844696Y-15101627D01*
X6844696Y-15101627D02*
X6873268Y-15101627D01*
X6873268Y-15101627D02*
X6892316Y-15111150D01*
X6892316Y-15111150D02*
X6901839Y-15130198D01*
X6901839Y-15130198D02*
X6901839Y-15234960D01*
X6997077Y-15234960D02*
X6997077Y-15101627D01*
X6997077Y-15120674D02*
X7006601Y-15111150D01*
X7006601Y-15111150D02*
X7025649Y-15101627D01*
X7025649Y-15101627D02*
X7054220Y-15101627D01*
X7054220Y-15101627D02*
X7073268Y-15111150D01*
X7073268Y-15111150D02*
X7082792Y-15130198D01*
X7082792Y-15130198D02*
X7082792Y-15234960D01*
X7082792Y-15130198D02*
X7092316Y-15111150D01*
X7092316Y-15111150D02*
X7111363Y-15101627D01*
X7111363Y-15101627D02*
X7139935Y-15101627D01*
X7139935Y-15101627D02*
X7158982Y-15111150D01*
X7158982Y-15111150D02*
X7168506Y-15130198D01*
X7168506Y-15130198D02*
X7168506Y-15234960D01*
X7558982Y-15025436D02*
X7387554Y-15282579D01*
X7816125Y-15034960D02*
X7835173Y-15034960D01*
X7835173Y-15034960D02*
X7854220Y-15044484D01*
X7854220Y-15044484D02*
X7863744Y-15054008D01*
X7863744Y-15054008D02*
X7873268Y-15073055D01*
X7873268Y-15073055D02*
X7882792Y-15111150D01*
X7882792Y-15111150D02*
X7882792Y-15158769D01*
X7882792Y-15158769D02*
X7873268Y-15196865D01*
X7873268Y-15196865D02*
X7863744Y-15215912D01*
X7863744Y-15215912D02*
X7854220Y-15225436D01*
X7854220Y-15225436D02*
X7835173Y-15234960D01*
X7835173Y-15234960D02*
X7816125Y-15234960D01*
X7816125Y-15234960D02*
X7797078Y-15225436D01*
X7797078Y-15225436D02*
X7787554Y-15215912D01*
X7787554Y-15215912D02*
X7778030Y-15196865D01*
X7778030Y-15196865D02*
X7768506Y-15158769D01*
X7768506Y-15158769D02*
X7768506Y-15111150D01*
X7768506Y-15111150D02*
X7778030Y-15073055D01*
X7778030Y-15073055D02*
X7787554Y-15054008D01*
X7787554Y-15054008D02*
X7797078Y-15044484D01*
X7797078Y-15044484D02*
X7816125Y-15034960D01*
X7968506Y-15215912D02*
X7978030Y-15225436D01*
X7978030Y-15225436D02*
X7968506Y-15234960D01*
X7968506Y-15234960D02*
X7958982Y-15225436D01*
X7958982Y-15225436D02*
X7968506Y-15215912D01*
X7968506Y-15215912D02*
X7968506Y-15234960D01*
X8101839Y-15034960D02*
X8120887Y-15034960D01*
X8120887Y-15034960D02*
X8139935Y-15044484D01*
X8139935Y-15044484D02*
X8149459Y-15054008D01*
X8149459Y-15054008D02*
X8158982Y-15073055D01*
X8158982Y-15073055D02*
X8168506Y-15111150D01*
X8168506Y-15111150D02*
X8168506Y-15158769D01*
X8168506Y-15158769D02*
X8158982Y-15196865D01*
X8158982Y-15196865D02*
X8149459Y-15215912D01*
X8149459Y-15215912D02*
X8139935Y-15225436D01*
X8139935Y-15225436D02*
X8120887Y-15234960D01*
X8120887Y-15234960D02*
X8101839Y-15234960D01*
X8101839Y-15234960D02*
X8082792Y-15225436D01*
X8082792Y-15225436D02*
X8073268Y-15215912D01*
X8073268Y-15215912D02*
X8063744Y-15196865D01*
X8063744Y-15196865D02*
X8054220Y-15158769D01*
X8054220Y-15158769D02*
X8054220Y-15111150D01*
X8054220Y-15111150D02*
X8063744Y-15073055D01*
X8063744Y-15073055D02*
X8073268Y-15054008D01*
X8073268Y-15054008D02*
X8082792Y-15044484D01*
X8082792Y-15044484D02*
X8101839Y-15034960D01*
X8358982Y-15234960D02*
X8244697Y-15234960D01*
X8301839Y-15234960D02*
X8301839Y-15034960D01*
X8301839Y-15034960D02*
X8282792Y-15063531D01*
X8282792Y-15063531D02*
X8263744Y-15082579D01*
X8263744Y-15082579D02*
X8244697Y-15092103D01*
X8549459Y-15234960D02*
X8435173Y-15234960D01*
X8492316Y-15234960D02*
X8492316Y-15034960D01*
X8492316Y-15034960D02*
X8473268Y-15063531D01*
X8473268Y-15063531D02*
X8454221Y-15082579D01*
X8454221Y-15082579D02*
X8435173Y-15092103D01*
X8663744Y-15120674D02*
X8644697Y-15111150D01*
X8644697Y-15111150D02*
X8635173Y-15101627D01*
X8635173Y-15101627D02*
X8625649Y-15082579D01*
X8625649Y-15082579D02*
X8625649Y-15073055D01*
X8625649Y-15073055D02*
X8635173Y-15054008D01*
X8635173Y-15054008D02*
X8644697Y-15044484D01*
X8644697Y-15044484D02*
X8663744Y-15034960D01*
X8663744Y-15034960D02*
X8701840Y-15034960D01*
X8701840Y-15034960D02*
X8720887Y-15044484D01*
X8720887Y-15044484D02*
X8730411Y-15054008D01*
X8730411Y-15054008D02*
X8739935Y-15073055D01*
X8739935Y-15073055D02*
X8739935Y-15082579D01*
X8739935Y-15082579D02*
X8730411Y-15101627D01*
X8730411Y-15101627D02*
X8720887Y-15111150D01*
X8720887Y-15111150D02*
X8701840Y-15120674D01*
X8701840Y-15120674D02*
X8663744Y-15120674D01*
X8663744Y-15120674D02*
X8644697Y-15130198D01*
X8644697Y-15130198D02*
X8635173Y-15139722D01*
X8635173Y-15139722D02*
X8625649Y-15158769D01*
X8625649Y-15158769D02*
X8625649Y-15196865D01*
X8625649Y-15196865D02*
X8635173Y-15215912D01*
X8635173Y-15215912D02*
X8644697Y-15225436D01*
X8644697Y-15225436D02*
X8663744Y-15234960D01*
X8663744Y-15234960D02*
X8701840Y-15234960D01*
X8701840Y-15234960D02*
X8720887Y-15225436D01*
X8720887Y-15225436D02*
X8730411Y-15215912D01*
X8730411Y-15215912D02*
X8739935Y-15196865D01*
X8739935Y-15196865D02*
X8739935Y-15158769D01*
X8739935Y-15158769D02*
X8730411Y-15139722D01*
X8730411Y-15139722D02*
X8720887Y-15130198D01*
X8720887Y-15130198D02*
X8701840Y-15120674D01*
X8816125Y-15034960D02*
X8816125Y-15073055D01*
X8892316Y-15034960D02*
X8892316Y-15073055D01*
X9187554Y-15311150D02*
X9178030Y-15301627D01*
X9178030Y-15301627D02*
X9158983Y-15273055D01*
X9158983Y-15273055D02*
X9149459Y-15254008D01*
X9149459Y-15254008D02*
X9139935Y-15225436D01*
X9139935Y-15225436D02*
X9130411Y-15177817D01*
X9130411Y-15177817D02*
X9130411Y-15139722D01*
X9130411Y-15139722D02*
X9139935Y-15092103D01*
X9139935Y-15092103D02*
X9149459Y-15063531D01*
X9149459Y-15063531D02*
X9158983Y-15044484D01*
X9158983Y-15044484D02*
X9178030Y-15015912D01*
X9178030Y-15015912D02*
X9187554Y-15006388D01*
X9292316Y-15120674D02*
X9273268Y-15111150D01*
X9273268Y-15111150D02*
X9263744Y-15101627D01*
X9263744Y-15101627D02*
X9254221Y-15082579D01*
X9254221Y-15082579D02*
X9254221Y-15073055D01*
X9254221Y-15073055D02*
X9263744Y-15054008D01*
X9263744Y-15054008D02*
X9273268Y-15044484D01*
X9273268Y-15044484D02*
X9292316Y-15034960D01*
X9292316Y-15034960D02*
X9330411Y-15034960D01*
X9330411Y-15034960D02*
X9349459Y-15044484D01*
X9349459Y-15044484D02*
X9358983Y-15054008D01*
X9358983Y-15054008D02*
X9368506Y-15073055D01*
X9368506Y-15073055D02*
X9368506Y-15082579D01*
X9368506Y-15082579D02*
X9358983Y-15101627D01*
X9358983Y-15101627D02*
X9349459Y-15111150D01*
X9349459Y-15111150D02*
X9330411Y-15120674D01*
X9330411Y-15120674D02*
X9292316Y-15120674D01*
X9292316Y-15120674D02*
X9273268Y-15130198D01*
X9273268Y-15130198D02*
X9263744Y-15139722D01*
X9263744Y-15139722D02*
X9254221Y-15158769D01*
X9254221Y-15158769D02*
X9254221Y-15196865D01*
X9254221Y-15196865D02*
X9263744Y-15215912D01*
X9263744Y-15215912D02*
X9273268Y-15225436D01*
X9273268Y-15225436D02*
X9292316Y-15234960D01*
X9292316Y-15234960D02*
X9330411Y-15234960D01*
X9330411Y-15234960D02*
X9349459Y-15225436D01*
X9349459Y-15225436D02*
X9358983Y-15215912D01*
X9358983Y-15215912D02*
X9368506Y-15196865D01*
X9368506Y-15196865D02*
X9368506Y-15158769D01*
X9368506Y-15158769D02*
X9358983Y-15139722D01*
X9358983Y-15139722D02*
X9349459Y-15130198D01*
X9349459Y-15130198D02*
X9330411Y-15120674D01*
X9606602Y-15234960D02*
X9606602Y-15034960D01*
X9692316Y-15234960D02*
X9692316Y-15130198D01*
X9692316Y-15130198D02*
X9682792Y-15111150D01*
X9682792Y-15111150D02*
X9663745Y-15101627D01*
X9663745Y-15101627D02*
X9635173Y-15101627D01*
X9635173Y-15101627D02*
X9616125Y-15111150D01*
X9616125Y-15111150D02*
X9606602Y-15120674D01*
X9816125Y-15234960D02*
X9797078Y-15225436D01*
X9797078Y-15225436D02*
X9787554Y-15215912D01*
X9787554Y-15215912D02*
X9778030Y-15196865D01*
X9778030Y-15196865D02*
X9778030Y-15139722D01*
X9778030Y-15139722D02*
X9787554Y-15120674D01*
X9787554Y-15120674D02*
X9797078Y-15111150D01*
X9797078Y-15111150D02*
X9816125Y-15101627D01*
X9816125Y-15101627D02*
X9844697Y-15101627D01*
X9844697Y-15101627D02*
X9863745Y-15111150D01*
X9863745Y-15111150D02*
X9873268Y-15120674D01*
X9873268Y-15120674D02*
X9882792Y-15139722D01*
X9882792Y-15139722D02*
X9882792Y-15196865D01*
X9882792Y-15196865D02*
X9873268Y-15215912D01*
X9873268Y-15215912D02*
X9863745Y-15225436D01*
X9863745Y-15225436D02*
X9844697Y-15234960D01*
X9844697Y-15234960D02*
X9816125Y-15234960D01*
X9997078Y-15234960D02*
X9978030Y-15225436D01*
X9978030Y-15225436D02*
X9968506Y-15206388D01*
X9968506Y-15206388D02*
X9968506Y-15034960D01*
X10149459Y-15225436D02*
X10130411Y-15234960D01*
X10130411Y-15234960D02*
X10092316Y-15234960D01*
X10092316Y-15234960D02*
X10073268Y-15225436D01*
X10073268Y-15225436D02*
X10063745Y-15206388D01*
X10063745Y-15206388D02*
X10063745Y-15130198D01*
X10063745Y-15130198D02*
X10073268Y-15111150D01*
X10073268Y-15111150D02*
X10092316Y-15101627D01*
X10092316Y-15101627D02*
X10130411Y-15101627D01*
X10130411Y-15101627D02*
X10149459Y-15111150D01*
X10149459Y-15111150D02*
X10158983Y-15130198D01*
X10158983Y-15130198D02*
X10158983Y-15149246D01*
X10158983Y-15149246D02*
X10063745Y-15168293D01*
X10235173Y-15225436D02*
X10254221Y-15234960D01*
X10254221Y-15234960D02*
X10292316Y-15234960D01*
X10292316Y-15234960D02*
X10311364Y-15225436D01*
X10311364Y-15225436D02*
X10320887Y-15206388D01*
X10320887Y-15206388D02*
X10320887Y-15196865D01*
X10320887Y-15196865D02*
X10311364Y-15177817D01*
X10311364Y-15177817D02*
X10292316Y-15168293D01*
X10292316Y-15168293D02*
X10263745Y-15168293D01*
X10263745Y-15168293D02*
X10244697Y-15158769D01*
X10244697Y-15158769D02*
X10235173Y-15139722D01*
X10235173Y-15139722D02*
X10235173Y-15130198D01*
X10235173Y-15130198D02*
X10244697Y-15111150D01*
X10244697Y-15111150D02*
X10263745Y-15101627D01*
X10263745Y-15101627D02*
X10292316Y-15101627D01*
X10292316Y-15101627D02*
X10311364Y-15111150D01*
X10387554Y-15311150D02*
X10397078Y-15301627D01*
X10397078Y-15301627D02*
X10416126Y-15273055D01*
X10416126Y-15273055D02*
X10425649Y-15254008D01*
X10425649Y-15254008D02*
X10435173Y-15225436D01*
X10435173Y-15225436D02*
X10444697Y-15177817D01*
X10444697Y-15177817D02*
X10444697Y-15139722D01*
X10444697Y-15139722D02*
X10435173Y-15092103D01*
X10435173Y-15092103D02*
X10425649Y-15063531D01*
X10425649Y-15063531D02*
X10416126Y-15044484D01*
X10416126Y-15044484D02*
X10397078Y-15015912D01*
X10397078Y-15015912D02*
X10387554Y-15006388D01*
D12*
X5592491Y-15387476D02*
X5592491Y-15427476D01*
X5572491Y-15407476D02*
X5612491Y-15407476D01*
D11*
X5911363Y-15298960D02*
X5930411Y-15298960D01*
X5930411Y-15298960D02*
X5949458Y-15308484D01*
X5949458Y-15308484D02*
X5958982Y-15318008D01*
X5958982Y-15318008D02*
X5968506Y-15337055D01*
X5968506Y-15337055D02*
X5978030Y-15375150D01*
X5978030Y-15375150D02*
X5978030Y-15422769D01*
X5978030Y-15422769D02*
X5968506Y-15460865D01*
X5968506Y-15460865D02*
X5958982Y-15479912D01*
X5958982Y-15479912D02*
X5949458Y-15489436D01*
X5949458Y-15489436D02*
X5930411Y-15498960D01*
X5930411Y-15498960D02*
X5911363Y-15498960D01*
X5911363Y-15498960D02*
X5892315Y-15489436D01*
X5892315Y-15489436D02*
X5882792Y-15479912D01*
X5882792Y-15479912D02*
X5873268Y-15460865D01*
X5873268Y-15460865D02*
X5863744Y-15422769D01*
X5863744Y-15422769D02*
X5863744Y-15375150D01*
X5863744Y-15375150D02*
X5873268Y-15337055D01*
X5873268Y-15337055D02*
X5882792Y-15318008D01*
X5882792Y-15318008D02*
X5892315Y-15308484D01*
X5892315Y-15308484D02*
X5911363Y-15298960D01*
X6063744Y-15479912D02*
X6073268Y-15489436D01*
X6073268Y-15489436D02*
X6063744Y-15498960D01*
X6063744Y-15498960D02*
X6054220Y-15489436D01*
X6054220Y-15489436D02*
X6063744Y-15479912D01*
X6063744Y-15479912D02*
X6063744Y-15498960D01*
X6244696Y-15365627D02*
X6244696Y-15498960D01*
X6197077Y-15289436D02*
X6149458Y-15432293D01*
X6149458Y-15432293D02*
X6273268Y-15432293D01*
X6387554Y-15298960D02*
X6406601Y-15298960D01*
X6406601Y-15298960D02*
X6425649Y-15308484D01*
X6425649Y-15308484D02*
X6435173Y-15318008D01*
X6435173Y-15318008D02*
X6444696Y-15337055D01*
X6444696Y-15337055D02*
X6454220Y-15375150D01*
X6454220Y-15375150D02*
X6454220Y-15422769D01*
X6454220Y-15422769D02*
X6444696Y-15460865D01*
X6444696Y-15460865D02*
X6435173Y-15479912D01*
X6435173Y-15479912D02*
X6425649Y-15489436D01*
X6425649Y-15489436D02*
X6406601Y-15498960D01*
X6406601Y-15498960D02*
X6387554Y-15498960D01*
X6387554Y-15498960D02*
X6368506Y-15489436D01*
X6368506Y-15489436D02*
X6358982Y-15479912D01*
X6358982Y-15479912D02*
X6349458Y-15460865D01*
X6349458Y-15460865D02*
X6339935Y-15422769D01*
X6339935Y-15422769D02*
X6339935Y-15375150D01*
X6339935Y-15375150D02*
X6349458Y-15337055D01*
X6349458Y-15337055D02*
X6358982Y-15318008D01*
X6358982Y-15318008D02*
X6368506Y-15308484D01*
X6368506Y-15308484D02*
X6387554Y-15298960D01*
X6578030Y-15298960D02*
X6597077Y-15298960D01*
X6597077Y-15298960D02*
X6616125Y-15308484D01*
X6616125Y-15308484D02*
X6625649Y-15318008D01*
X6625649Y-15318008D02*
X6635173Y-15337055D01*
X6635173Y-15337055D02*
X6644696Y-15375150D01*
X6644696Y-15375150D02*
X6644696Y-15422769D01*
X6644696Y-15422769D02*
X6635173Y-15460865D01*
X6635173Y-15460865D02*
X6625649Y-15479912D01*
X6625649Y-15479912D02*
X6616125Y-15489436D01*
X6616125Y-15489436D02*
X6597077Y-15498960D01*
X6597077Y-15498960D02*
X6578030Y-15498960D01*
X6578030Y-15498960D02*
X6558982Y-15489436D01*
X6558982Y-15489436D02*
X6549458Y-15479912D01*
X6549458Y-15479912D02*
X6539935Y-15460865D01*
X6539935Y-15460865D02*
X6530411Y-15422769D01*
X6530411Y-15422769D02*
X6530411Y-15375150D01*
X6530411Y-15375150D02*
X6539935Y-15337055D01*
X6539935Y-15337055D02*
X6549458Y-15318008D01*
X6549458Y-15318008D02*
X6558982Y-15308484D01*
X6558982Y-15308484D02*
X6578030Y-15298960D01*
X6730411Y-15498960D02*
X6730411Y-15365627D01*
X6730411Y-15384674D02*
X6739935Y-15375150D01*
X6739935Y-15375150D02*
X6758982Y-15365627D01*
X6758982Y-15365627D02*
X6787554Y-15365627D01*
X6787554Y-15365627D02*
X6806601Y-15375150D01*
X6806601Y-15375150D02*
X6816125Y-15394198D01*
X6816125Y-15394198D02*
X6816125Y-15498960D01*
X6816125Y-15394198D02*
X6825649Y-15375150D01*
X6825649Y-15375150D02*
X6844696Y-15365627D01*
X6844696Y-15365627D02*
X6873268Y-15365627D01*
X6873268Y-15365627D02*
X6892316Y-15375150D01*
X6892316Y-15375150D02*
X6901839Y-15394198D01*
X6901839Y-15394198D02*
X6901839Y-15498960D01*
X6997077Y-15498960D02*
X6997077Y-15365627D01*
X6997077Y-15384674D02*
X7006601Y-15375150D01*
X7006601Y-15375150D02*
X7025649Y-15365627D01*
X7025649Y-15365627D02*
X7054220Y-15365627D01*
X7054220Y-15365627D02*
X7073268Y-15375150D01*
X7073268Y-15375150D02*
X7082792Y-15394198D01*
X7082792Y-15394198D02*
X7082792Y-15498960D01*
X7082792Y-15394198D02*
X7092316Y-15375150D01*
X7092316Y-15375150D02*
X7111363Y-15365627D01*
X7111363Y-15365627D02*
X7139935Y-15365627D01*
X7139935Y-15365627D02*
X7158982Y-15375150D01*
X7158982Y-15375150D02*
X7168506Y-15394198D01*
X7168506Y-15394198D02*
X7168506Y-15498960D01*
X7558982Y-15289436D02*
X7387554Y-15546579D01*
X7816125Y-15298960D02*
X7835173Y-15298960D01*
X7835173Y-15298960D02*
X7854220Y-15308484D01*
X7854220Y-15308484D02*
X7863744Y-15318008D01*
X7863744Y-15318008D02*
X7873268Y-15337055D01*
X7873268Y-15337055D02*
X7882792Y-15375150D01*
X7882792Y-15375150D02*
X7882792Y-15422769D01*
X7882792Y-15422769D02*
X7873268Y-15460865D01*
X7873268Y-15460865D02*
X7863744Y-15479912D01*
X7863744Y-15479912D02*
X7854220Y-15489436D01*
X7854220Y-15489436D02*
X7835173Y-15498960D01*
X7835173Y-15498960D02*
X7816125Y-15498960D01*
X7816125Y-15498960D02*
X7797078Y-15489436D01*
X7797078Y-15489436D02*
X7787554Y-15479912D01*
X7787554Y-15479912D02*
X7778030Y-15460865D01*
X7778030Y-15460865D02*
X7768506Y-15422769D01*
X7768506Y-15422769D02*
X7768506Y-15375150D01*
X7768506Y-15375150D02*
X7778030Y-15337055D01*
X7778030Y-15337055D02*
X7787554Y-15318008D01*
X7787554Y-15318008D02*
X7797078Y-15308484D01*
X7797078Y-15308484D02*
X7816125Y-15298960D01*
X7968506Y-15479912D02*
X7978030Y-15489436D01*
X7978030Y-15489436D02*
X7968506Y-15498960D01*
X7968506Y-15498960D02*
X7958982Y-15489436D01*
X7958982Y-15489436D02*
X7968506Y-15479912D01*
X7968506Y-15479912D02*
X7968506Y-15498960D01*
X8101839Y-15298960D02*
X8120887Y-15298960D01*
X8120887Y-15298960D02*
X8139935Y-15308484D01*
X8139935Y-15308484D02*
X8149459Y-15318008D01*
X8149459Y-15318008D02*
X8158982Y-15337055D01*
X8158982Y-15337055D02*
X8168506Y-15375150D01*
X8168506Y-15375150D02*
X8168506Y-15422769D01*
X8168506Y-15422769D02*
X8158982Y-15460865D01*
X8158982Y-15460865D02*
X8149459Y-15479912D01*
X8149459Y-15479912D02*
X8139935Y-15489436D01*
X8139935Y-15489436D02*
X8120887Y-15498960D01*
X8120887Y-15498960D02*
X8101839Y-15498960D01*
X8101839Y-15498960D02*
X8082792Y-15489436D01*
X8082792Y-15489436D02*
X8073268Y-15479912D01*
X8073268Y-15479912D02*
X8063744Y-15460865D01*
X8063744Y-15460865D02*
X8054220Y-15422769D01*
X8054220Y-15422769D02*
X8054220Y-15375150D01*
X8054220Y-15375150D02*
X8063744Y-15337055D01*
X8063744Y-15337055D02*
X8073268Y-15318008D01*
X8073268Y-15318008D02*
X8082792Y-15308484D01*
X8082792Y-15308484D02*
X8101839Y-15298960D01*
X8358982Y-15498960D02*
X8244697Y-15498960D01*
X8301839Y-15498960D02*
X8301839Y-15298960D01*
X8301839Y-15298960D02*
X8282792Y-15327531D01*
X8282792Y-15327531D02*
X8263744Y-15346579D01*
X8263744Y-15346579D02*
X8244697Y-15356103D01*
X8539935Y-15298960D02*
X8444697Y-15298960D01*
X8444697Y-15298960D02*
X8435173Y-15394198D01*
X8435173Y-15394198D02*
X8444697Y-15384674D01*
X8444697Y-15384674D02*
X8463744Y-15375150D01*
X8463744Y-15375150D02*
X8511363Y-15375150D01*
X8511363Y-15375150D02*
X8530411Y-15384674D01*
X8530411Y-15384674D02*
X8539935Y-15394198D01*
X8539935Y-15394198D02*
X8549459Y-15413246D01*
X8549459Y-15413246D02*
X8549459Y-15460865D01*
X8549459Y-15460865D02*
X8539935Y-15479912D01*
X8539935Y-15479912D02*
X8530411Y-15489436D01*
X8530411Y-15489436D02*
X8511363Y-15498960D01*
X8511363Y-15498960D02*
X8463744Y-15498960D01*
X8463744Y-15498960D02*
X8444697Y-15489436D01*
X8444697Y-15489436D02*
X8435173Y-15479912D01*
X8616125Y-15298960D02*
X8749459Y-15298960D01*
X8749459Y-15298960D02*
X8663744Y-15498960D01*
X8816125Y-15298960D02*
X8816125Y-15337055D01*
X8892316Y-15298960D02*
X8892316Y-15337055D01*
X9187554Y-15575150D02*
X9178030Y-15565627D01*
X9178030Y-15565627D02*
X9158983Y-15537055D01*
X9158983Y-15537055D02*
X9149459Y-15518008D01*
X9149459Y-15518008D02*
X9139935Y-15489436D01*
X9139935Y-15489436D02*
X9130411Y-15441817D01*
X9130411Y-15441817D02*
X9130411Y-15403722D01*
X9130411Y-15403722D02*
X9139935Y-15356103D01*
X9139935Y-15356103D02*
X9149459Y-15327531D01*
X9149459Y-15327531D02*
X9158983Y-15308484D01*
X9158983Y-15308484D02*
X9178030Y-15279912D01*
X9178030Y-15279912D02*
X9187554Y-15270388D01*
X9254221Y-15318008D02*
X9263744Y-15308484D01*
X9263744Y-15308484D02*
X9282792Y-15298960D01*
X9282792Y-15298960D02*
X9330411Y-15298960D01*
X9330411Y-15298960D02*
X9349459Y-15308484D01*
X9349459Y-15308484D02*
X9358983Y-15318008D01*
X9358983Y-15318008D02*
X9368506Y-15337055D01*
X9368506Y-15337055D02*
X9368506Y-15356103D01*
X9368506Y-15356103D02*
X9358983Y-15384674D01*
X9358983Y-15384674D02*
X9244697Y-15498960D01*
X9244697Y-15498960D02*
X9368506Y-15498960D01*
X9444697Y-15318008D02*
X9454221Y-15308484D01*
X9454221Y-15308484D02*
X9473268Y-15298960D01*
X9473268Y-15298960D02*
X9520887Y-15298960D01*
X9520887Y-15298960D02*
X9539935Y-15308484D01*
X9539935Y-15308484D02*
X9549459Y-15318008D01*
X9549459Y-15318008D02*
X9558983Y-15337055D01*
X9558983Y-15337055D02*
X9558983Y-15356103D01*
X9558983Y-15356103D02*
X9549459Y-15384674D01*
X9549459Y-15384674D02*
X9435173Y-15498960D01*
X9435173Y-15498960D02*
X9558983Y-15498960D01*
X9739935Y-15298960D02*
X9644697Y-15298960D01*
X9644697Y-15298960D02*
X9635173Y-15394198D01*
X9635173Y-15394198D02*
X9644697Y-15384674D01*
X9644697Y-15384674D02*
X9663744Y-15375150D01*
X9663744Y-15375150D02*
X9711364Y-15375150D01*
X9711364Y-15375150D02*
X9730411Y-15384674D01*
X9730411Y-15384674D02*
X9739935Y-15394198D01*
X9739935Y-15394198D02*
X9749459Y-15413246D01*
X9749459Y-15413246D02*
X9749459Y-15460865D01*
X9749459Y-15460865D02*
X9739935Y-15479912D01*
X9739935Y-15479912D02*
X9730411Y-15489436D01*
X9730411Y-15489436D02*
X9711364Y-15498960D01*
X9711364Y-15498960D02*
X9663744Y-15498960D01*
X9663744Y-15498960D02*
X9644697Y-15489436D01*
X9644697Y-15489436D02*
X9635173Y-15479912D01*
X9987554Y-15498960D02*
X9987554Y-15298960D01*
X10073268Y-15498960D02*
X10073268Y-15394198D01*
X10073268Y-15394198D02*
X10063745Y-15375150D01*
X10063745Y-15375150D02*
X10044697Y-15365627D01*
X10044697Y-15365627D02*
X10016125Y-15365627D01*
X10016125Y-15365627D02*
X9997078Y-15375150D01*
X9997078Y-15375150D02*
X9987554Y-15384674D01*
X10197078Y-15498960D02*
X10178030Y-15489436D01*
X10178030Y-15489436D02*
X10168506Y-15479912D01*
X10168506Y-15479912D02*
X10158983Y-15460865D01*
X10158983Y-15460865D02*
X10158983Y-15403722D01*
X10158983Y-15403722D02*
X10168506Y-15384674D01*
X10168506Y-15384674D02*
X10178030Y-15375150D01*
X10178030Y-15375150D02*
X10197078Y-15365627D01*
X10197078Y-15365627D02*
X10225649Y-15365627D01*
X10225649Y-15365627D02*
X10244697Y-15375150D01*
X10244697Y-15375150D02*
X10254221Y-15384674D01*
X10254221Y-15384674D02*
X10263745Y-15403722D01*
X10263745Y-15403722D02*
X10263745Y-15460865D01*
X10263745Y-15460865D02*
X10254221Y-15479912D01*
X10254221Y-15479912D02*
X10244697Y-15489436D01*
X10244697Y-15489436D02*
X10225649Y-15498960D01*
X10225649Y-15498960D02*
X10197078Y-15498960D01*
X10378030Y-15498960D02*
X10358983Y-15489436D01*
X10358983Y-15489436D02*
X10349459Y-15470388D01*
X10349459Y-15470388D02*
X10349459Y-15298960D01*
X10530411Y-15489436D02*
X10511364Y-15498960D01*
X10511364Y-15498960D02*
X10473268Y-15498960D01*
X10473268Y-15498960D02*
X10454221Y-15489436D01*
X10454221Y-15489436D02*
X10444697Y-15470388D01*
X10444697Y-15470388D02*
X10444697Y-15394198D01*
X10444697Y-15394198D02*
X10454221Y-15375150D01*
X10454221Y-15375150D02*
X10473268Y-15365627D01*
X10473268Y-15365627D02*
X10511364Y-15365627D01*
X10511364Y-15365627D02*
X10530411Y-15375150D01*
X10530411Y-15375150D02*
X10539935Y-15394198D01*
X10539935Y-15394198D02*
X10539935Y-15413246D01*
X10539935Y-15413246D02*
X10444697Y-15432293D01*
X10616126Y-15489436D02*
X10635173Y-15498960D01*
X10635173Y-15498960D02*
X10673268Y-15498960D01*
X10673268Y-15498960D02*
X10692316Y-15489436D01*
X10692316Y-15489436D02*
X10701840Y-15470388D01*
X10701840Y-15470388D02*
X10701840Y-15460865D01*
X10701840Y-15460865D02*
X10692316Y-15441817D01*
X10692316Y-15441817D02*
X10673268Y-15432293D01*
X10673268Y-15432293D02*
X10644697Y-15432293D01*
X10644697Y-15432293D02*
X10625649Y-15422769D01*
X10625649Y-15422769D02*
X10616126Y-15403722D01*
X10616126Y-15403722D02*
X10616126Y-15394198D01*
X10616126Y-15394198D02*
X10625649Y-15375150D01*
X10625649Y-15375150D02*
X10644697Y-15365627D01*
X10644697Y-15365627D02*
X10673268Y-15365627D01*
X10673268Y-15365627D02*
X10692316Y-15375150D01*
X10768507Y-15575150D02*
X10778030Y-15565627D01*
X10778030Y-15565627D02*
X10797078Y-15537055D01*
X10797078Y-15537055D02*
X10806602Y-15518008D01*
X10806602Y-15518008D02*
X10816126Y-15489436D01*
X10816126Y-15489436D02*
X10825649Y-15441817D01*
X10825649Y-15441817D02*
X10825649Y-15403722D01*
X10825649Y-15403722D02*
X10816126Y-15356103D01*
X10816126Y-15356103D02*
X10806602Y-15327531D01*
X10806602Y-15327531D02*
X10797078Y-15308484D01*
X10797078Y-15308484D02*
X10778030Y-15279912D01*
X10778030Y-15279912D02*
X10768507Y-15270388D01*
D12*
X5600043Y-15701528D02*
X5600043Y-15641424D01*
X5539939Y-15641424D01*
X5539939Y-15701528D01*
X5600043Y-15701528D01*
D11*
X5911363Y-15562960D02*
X5930411Y-15562960D01*
X5930411Y-15562960D02*
X5949458Y-15572484D01*
X5949458Y-15572484D02*
X5958982Y-15582008D01*
X5958982Y-15582008D02*
X5968506Y-15601055D01*
X5968506Y-15601055D02*
X5978030Y-15639150D01*
X5978030Y-15639150D02*
X5978030Y-15686769D01*
X5978030Y-15686769D02*
X5968506Y-15724865D01*
X5968506Y-15724865D02*
X5958982Y-15743912D01*
X5958982Y-15743912D02*
X5949458Y-15753436D01*
X5949458Y-15753436D02*
X5930411Y-15762960D01*
X5930411Y-15762960D02*
X5911363Y-15762960D01*
X5911363Y-15762960D02*
X5892315Y-15753436D01*
X5892315Y-15753436D02*
X5882792Y-15743912D01*
X5882792Y-15743912D02*
X5873268Y-15724865D01*
X5873268Y-15724865D02*
X5863744Y-15686769D01*
X5863744Y-15686769D02*
X5863744Y-15639150D01*
X5863744Y-15639150D02*
X5873268Y-15601055D01*
X5873268Y-15601055D02*
X5882792Y-15582008D01*
X5882792Y-15582008D02*
X5892315Y-15572484D01*
X5892315Y-15572484D02*
X5911363Y-15562960D01*
X6063744Y-15743912D02*
X6073268Y-15753436D01*
X6073268Y-15753436D02*
X6063744Y-15762960D01*
X6063744Y-15762960D02*
X6054220Y-15753436D01*
X6054220Y-15753436D02*
X6063744Y-15743912D01*
X6063744Y-15743912D02*
X6063744Y-15762960D01*
X6187554Y-15648674D02*
X6168506Y-15639150D01*
X6168506Y-15639150D02*
X6158982Y-15629627D01*
X6158982Y-15629627D02*
X6149458Y-15610579D01*
X6149458Y-15610579D02*
X6149458Y-15601055D01*
X6149458Y-15601055D02*
X6158982Y-15582008D01*
X6158982Y-15582008D02*
X6168506Y-15572484D01*
X6168506Y-15572484D02*
X6187554Y-15562960D01*
X6187554Y-15562960D02*
X6225649Y-15562960D01*
X6225649Y-15562960D02*
X6244696Y-15572484D01*
X6244696Y-15572484D02*
X6254220Y-15582008D01*
X6254220Y-15582008D02*
X6263744Y-15601055D01*
X6263744Y-15601055D02*
X6263744Y-15610579D01*
X6263744Y-15610579D02*
X6254220Y-15629627D01*
X6254220Y-15629627D02*
X6244696Y-15639150D01*
X6244696Y-15639150D02*
X6225649Y-15648674D01*
X6225649Y-15648674D02*
X6187554Y-15648674D01*
X6187554Y-15648674D02*
X6168506Y-15658198D01*
X6168506Y-15658198D02*
X6158982Y-15667722D01*
X6158982Y-15667722D02*
X6149458Y-15686769D01*
X6149458Y-15686769D02*
X6149458Y-15724865D01*
X6149458Y-15724865D02*
X6158982Y-15743912D01*
X6158982Y-15743912D02*
X6168506Y-15753436D01*
X6168506Y-15753436D02*
X6187554Y-15762960D01*
X6187554Y-15762960D02*
X6225649Y-15762960D01*
X6225649Y-15762960D02*
X6244696Y-15753436D01*
X6244696Y-15753436D02*
X6254220Y-15743912D01*
X6254220Y-15743912D02*
X6263744Y-15724865D01*
X6263744Y-15724865D02*
X6263744Y-15686769D01*
X6263744Y-15686769D02*
X6254220Y-15667722D01*
X6254220Y-15667722D02*
X6244696Y-15658198D01*
X6244696Y-15658198D02*
X6225649Y-15648674D01*
X6444696Y-15562960D02*
X6349458Y-15562960D01*
X6349458Y-15562960D02*
X6339935Y-15658198D01*
X6339935Y-15658198D02*
X6349458Y-15648674D01*
X6349458Y-15648674D02*
X6368506Y-15639150D01*
X6368506Y-15639150D02*
X6416125Y-15639150D01*
X6416125Y-15639150D02*
X6435173Y-15648674D01*
X6435173Y-15648674D02*
X6444696Y-15658198D01*
X6444696Y-15658198D02*
X6454220Y-15677246D01*
X6454220Y-15677246D02*
X6454220Y-15724865D01*
X6454220Y-15724865D02*
X6444696Y-15743912D01*
X6444696Y-15743912D02*
X6435173Y-15753436D01*
X6435173Y-15753436D02*
X6416125Y-15762960D01*
X6416125Y-15762960D02*
X6368506Y-15762960D01*
X6368506Y-15762960D02*
X6349458Y-15753436D01*
X6349458Y-15753436D02*
X6339935Y-15743912D01*
X6578030Y-15562960D02*
X6597077Y-15562960D01*
X6597077Y-15562960D02*
X6616125Y-15572484D01*
X6616125Y-15572484D02*
X6625649Y-15582008D01*
X6625649Y-15582008D02*
X6635173Y-15601055D01*
X6635173Y-15601055D02*
X6644696Y-15639150D01*
X6644696Y-15639150D02*
X6644696Y-15686769D01*
X6644696Y-15686769D02*
X6635173Y-15724865D01*
X6635173Y-15724865D02*
X6625649Y-15743912D01*
X6625649Y-15743912D02*
X6616125Y-15753436D01*
X6616125Y-15753436D02*
X6597077Y-15762960D01*
X6597077Y-15762960D02*
X6578030Y-15762960D01*
X6578030Y-15762960D02*
X6558982Y-15753436D01*
X6558982Y-15753436D02*
X6549458Y-15743912D01*
X6549458Y-15743912D02*
X6539935Y-15724865D01*
X6539935Y-15724865D02*
X6530411Y-15686769D01*
X6530411Y-15686769D02*
X6530411Y-15639150D01*
X6530411Y-15639150D02*
X6539935Y-15601055D01*
X6539935Y-15601055D02*
X6549458Y-15582008D01*
X6549458Y-15582008D02*
X6558982Y-15572484D01*
X6558982Y-15572484D02*
X6578030Y-15562960D01*
X6730411Y-15762960D02*
X6730411Y-15629627D01*
X6730411Y-15648674D02*
X6739935Y-15639150D01*
X6739935Y-15639150D02*
X6758982Y-15629627D01*
X6758982Y-15629627D02*
X6787554Y-15629627D01*
X6787554Y-15629627D02*
X6806601Y-15639150D01*
X6806601Y-15639150D02*
X6816125Y-15658198D01*
X6816125Y-15658198D02*
X6816125Y-15762960D01*
X6816125Y-15658198D02*
X6825649Y-15639150D01*
X6825649Y-15639150D02*
X6844696Y-15629627D01*
X6844696Y-15629627D02*
X6873268Y-15629627D01*
X6873268Y-15629627D02*
X6892316Y-15639150D01*
X6892316Y-15639150D02*
X6901839Y-15658198D01*
X6901839Y-15658198D02*
X6901839Y-15762960D01*
X6997077Y-15762960D02*
X6997077Y-15629627D01*
X6997077Y-15648674D02*
X7006601Y-15639150D01*
X7006601Y-15639150D02*
X7025649Y-15629627D01*
X7025649Y-15629627D02*
X7054220Y-15629627D01*
X7054220Y-15629627D02*
X7073268Y-15639150D01*
X7073268Y-15639150D02*
X7082792Y-15658198D01*
X7082792Y-15658198D02*
X7082792Y-15762960D01*
X7082792Y-15658198D02*
X7092316Y-15639150D01*
X7092316Y-15639150D02*
X7111363Y-15629627D01*
X7111363Y-15629627D02*
X7139935Y-15629627D01*
X7139935Y-15629627D02*
X7158982Y-15639150D01*
X7158982Y-15639150D02*
X7168506Y-15658198D01*
X7168506Y-15658198D02*
X7168506Y-15762960D01*
X7558982Y-15553436D02*
X7387554Y-15810579D01*
X7816125Y-15562960D02*
X7835173Y-15562960D01*
X7835173Y-15562960D02*
X7854220Y-15572484D01*
X7854220Y-15572484D02*
X7863744Y-15582008D01*
X7863744Y-15582008D02*
X7873268Y-15601055D01*
X7873268Y-15601055D02*
X7882792Y-15639150D01*
X7882792Y-15639150D02*
X7882792Y-15686769D01*
X7882792Y-15686769D02*
X7873268Y-15724865D01*
X7873268Y-15724865D02*
X7863744Y-15743912D01*
X7863744Y-15743912D02*
X7854220Y-15753436D01*
X7854220Y-15753436D02*
X7835173Y-15762960D01*
X7835173Y-15762960D02*
X7816125Y-15762960D01*
X7816125Y-15762960D02*
X7797078Y-15753436D01*
X7797078Y-15753436D02*
X7787554Y-15743912D01*
X7787554Y-15743912D02*
X7778030Y-15724865D01*
X7778030Y-15724865D02*
X7768506Y-15686769D01*
X7768506Y-15686769D02*
X7768506Y-15639150D01*
X7768506Y-15639150D02*
X7778030Y-15601055D01*
X7778030Y-15601055D02*
X7787554Y-15582008D01*
X7787554Y-15582008D02*
X7797078Y-15572484D01*
X7797078Y-15572484D02*
X7816125Y-15562960D01*
X7968506Y-15743912D02*
X7978030Y-15753436D01*
X7978030Y-15753436D02*
X7968506Y-15762960D01*
X7968506Y-15762960D02*
X7958982Y-15753436D01*
X7958982Y-15753436D02*
X7968506Y-15743912D01*
X7968506Y-15743912D02*
X7968506Y-15762960D01*
X8101839Y-15562960D02*
X8120887Y-15562960D01*
X8120887Y-15562960D02*
X8139935Y-15572484D01*
X8139935Y-15572484D02*
X8149459Y-15582008D01*
X8149459Y-15582008D02*
X8158982Y-15601055D01*
X8158982Y-15601055D02*
X8168506Y-15639150D01*
X8168506Y-15639150D02*
X8168506Y-15686769D01*
X8168506Y-15686769D02*
X8158982Y-15724865D01*
X8158982Y-15724865D02*
X8149459Y-15743912D01*
X8149459Y-15743912D02*
X8139935Y-15753436D01*
X8139935Y-15753436D02*
X8120887Y-15762960D01*
X8120887Y-15762960D02*
X8101839Y-15762960D01*
X8101839Y-15762960D02*
X8082792Y-15753436D01*
X8082792Y-15753436D02*
X8073268Y-15743912D01*
X8073268Y-15743912D02*
X8063744Y-15724865D01*
X8063744Y-15724865D02*
X8054220Y-15686769D01*
X8054220Y-15686769D02*
X8054220Y-15639150D01*
X8054220Y-15639150D02*
X8063744Y-15601055D01*
X8063744Y-15601055D02*
X8073268Y-15582008D01*
X8073268Y-15582008D02*
X8082792Y-15572484D01*
X8082792Y-15572484D02*
X8101839Y-15562960D01*
X8235173Y-15562960D02*
X8358982Y-15562960D01*
X8358982Y-15562960D02*
X8292316Y-15639150D01*
X8292316Y-15639150D02*
X8320887Y-15639150D01*
X8320887Y-15639150D02*
X8339935Y-15648674D01*
X8339935Y-15648674D02*
X8349459Y-15658198D01*
X8349459Y-15658198D02*
X8358982Y-15677246D01*
X8358982Y-15677246D02*
X8358982Y-15724865D01*
X8358982Y-15724865D02*
X8349459Y-15743912D01*
X8349459Y-15743912D02*
X8339935Y-15753436D01*
X8339935Y-15753436D02*
X8320887Y-15762960D01*
X8320887Y-15762960D02*
X8263744Y-15762960D01*
X8263744Y-15762960D02*
X8244697Y-15753436D01*
X8244697Y-15753436D02*
X8235173Y-15743912D01*
X8425649Y-15562960D02*
X8549459Y-15562960D01*
X8549459Y-15562960D02*
X8482792Y-15639150D01*
X8482792Y-15639150D02*
X8511363Y-15639150D01*
X8511363Y-15639150D02*
X8530411Y-15648674D01*
X8530411Y-15648674D02*
X8539935Y-15658198D01*
X8539935Y-15658198D02*
X8549459Y-15677246D01*
X8549459Y-15677246D02*
X8549459Y-15724865D01*
X8549459Y-15724865D02*
X8539935Y-15743912D01*
X8539935Y-15743912D02*
X8530411Y-15753436D01*
X8530411Y-15753436D02*
X8511363Y-15762960D01*
X8511363Y-15762960D02*
X8454221Y-15762960D01*
X8454221Y-15762960D02*
X8435173Y-15753436D01*
X8435173Y-15753436D02*
X8425649Y-15743912D01*
X8730411Y-15562960D02*
X8635173Y-15562960D01*
X8635173Y-15562960D02*
X8625649Y-15658198D01*
X8625649Y-15658198D02*
X8635173Y-15648674D01*
X8635173Y-15648674D02*
X8654221Y-15639150D01*
X8654221Y-15639150D02*
X8701840Y-15639150D01*
X8701840Y-15639150D02*
X8720887Y-15648674D01*
X8720887Y-15648674D02*
X8730411Y-15658198D01*
X8730411Y-15658198D02*
X8739935Y-15677246D01*
X8739935Y-15677246D02*
X8739935Y-15724865D01*
X8739935Y-15724865D02*
X8730411Y-15743912D01*
X8730411Y-15743912D02*
X8720887Y-15753436D01*
X8720887Y-15753436D02*
X8701840Y-15762960D01*
X8701840Y-15762960D02*
X8654221Y-15762960D01*
X8654221Y-15762960D02*
X8635173Y-15753436D01*
X8635173Y-15753436D02*
X8625649Y-15743912D01*
X8816125Y-15562960D02*
X8816125Y-15601055D01*
X8892316Y-15562960D02*
X8892316Y-15601055D01*
X9187554Y-15839150D02*
X9178030Y-15829627D01*
X9178030Y-15829627D02*
X9158983Y-15801055D01*
X9158983Y-15801055D02*
X9149459Y-15782008D01*
X9149459Y-15782008D02*
X9139935Y-15753436D01*
X9139935Y-15753436D02*
X9130411Y-15705817D01*
X9130411Y-15705817D02*
X9130411Y-15667722D01*
X9130411Y-15667722D02*
X9139935Y-15620103D01*
X9139935Y-15620103D02*
X9149459Y-15591531D01*
X9149459Y-15591531D02*
X9158983Y-15572484D01*
X9158983Y-15572484D02*
X9178030Y-15543912D01*
X9178030Y-15543912D02*
X9187554Y-15534388D01*
X9254221Y-15582008D02*
X9263744Y-15572484D01*
X9263744Y-15572484D02*
X9282792Y-15562960D01*
X9282792Y-15562960D02*
X9330411Y-15562960D01*
X9330411Y-15562960D02*
X9349459Y-15572484D01*
X9349459Y-15572484D02*
X9358983Y-15582008D01*
X9358983Y-15582008D02*
X9368506Y-15601055D01*
X9368506Y-15601055D02*
X9368506Y-15620103D01*
X9368506Y-15620103D02*
X9358983Y-15648674D01*
X9358983Y-15648674D02*
X9244697Y-15762960D01*
X9244697Y-15762960D02*
X9368506Y-15762960D01*
X9606602Y-15762960D02*
X9606602Y-15562960D01*
X9692316Y-15762960D02*
X9692316Y-15658198D01*
X9692316Y-15658198D02*
X9682792Y-15639150D01*
X9682792Y-15639150D02*
X9663745Y-15629627D01*
X9663745Y-15629627D02*
X9635173Y-15629627D01*
X9635173Y-15629627D02*
X9616125Y-15639150D01*
X9616125Y-15639150D02*
X9606602Y-15648674D01*
X9816125Y-15762960D02*
X9797078Y-15753436D01*
X9797078Y-15753436D02*
X9787554Y-15743912D01*
X9787554Y-15743912D02*
X9778030Y-15724865D01*
X9778030Y-15724865D02*
X9778030Y-15667722D01*
X9778030Y-15667722D02*
X9787554Y-15648674D01*
X9787554Y-15648674D02*
X9797078Y-15639150D01*
X9797078Y-15639150D02*
X9816125Y-15629627D01*
X9816125Y-15629627D02*
X9844697Y-15629627D01*
X9844697Y-15629627D02*
X9863745Y-15639150D01*
X9863745Y-15639150D02*
X9873268Y-15648674D01*
X9873268Y-15648674D02*
X9882792Y-15667722D01*
X9882792Y-15667722D02*
X9882792Y-15724865D01*
X9882792Y-15724865D02*
X9873268Y-15743912D01*
X9873268Y-15743912D02*
X9863745Y-15753436D01*
X9863745Y-15753436D02*
X9844697Y-15762960D01*
X9844697Y-15762960D02*
X9816125Y-15762960D01*
X9997078Y-15762960D02*
X9978030Y-15753436D01*
X9978030Y-15753436D02*
X9968506Y-15734388D01*
X9968506Y-15734388D02*
X9968506Y-15562960D01*
X10149459Y-15753436D02*
X10130411Y-15762960D01*
X10130411Y-15762960D02*
X10092316Y-15762960D01*
X10092316Y-15762960D02*
X10073268Y-15753436D01*
X10073268Y-15753436D02*
X10063745Y-15734388D01*
X10063745Y-15734388D02*
X10063745Y-15658198D01*
X10063745Y-15658198D02*
X10073268Y-15639150D01*
X10073268Y-15639150D02*
X10092316Y-15629627D01*
X10092316Y-15629627D02*
X10130411Y-15629627D01*
X10130411Y-15629627D02*
X10149459Y-15639150D01*
X10149459Y-15639150D02*
X10158983Y-15658198D01*
X10158983Y-15658198D02*
X10158983Y-15677246D01*
X10158983Y-15677246D02*
X10063745Y-15696293D01*
X10235173Y-15753436D02*
X10254221Y-15762960D01*
X10254221Y-15762960D02*
X10292316Y-15762960D01*
X10292316Y-15762960D02*
X10311364Y-15753436D01*
X10311364Y-15753436D02*
X10320887Y-15734388D01*
X10320887Y-15734388D02*
X10320887Y-15724865D01*
X10320887Y-15724865D02*
X10311364Y-15705817D01*
X10311364Y-15705817D02*
X10292316Y-15696293D01*
X10292316Y-15696293D02*
X10263745Y-15696293D01*
X10263745Y-15696293D02*
X10244697Y-15686769D01*
X10244697Y-15686769D02*
X10235173Y-15667722D01*
X10235173Y-15667722D02*
X10235173Y-15658198D01*
X10235173Y-15658198D02*
X10244697Y-15639150D01*
X10244697Y-15639150D02*
X10263745Y-15629627D01*
X10263745Y-15629627D02*
X10292316Y-15629627D01*
X10292316Y-15629627D02*
X10311364Y-15639150D01*
X10387554Y-15839150D02*
X10397078Y-15829627D01*
X10397078Y-15829627D02*
X10416126Y-15801055D01*
X10416126Y-15801055D02*
X10425649Y-15782008D01*
X10425649Y-15782008D02*
X10435173Y-15753436D01*
X10435173Y-15753436D02*
X10444697Y-15705817D01*
X10444697Y-15705817D02*
X10444697Y-15667722D01*
X10444697Y-15667722D02*
X10435173Y-15620103D01*
X10435173Y-15620103D02*
X10425649Y-15591531D01*
X10425649Y-15591531D02*
X10416126Y-15572484D01*
X10416126Y-15572484D02*
X10397078Y-15543912D01*
X10397078Y-15543912D02*
X10387554Y-15534388D01*
D12*
X5562491Y-15985476D02*
X5612491Y-15935476D01*
X5562491Y-15885476D01*
X5512491Y-15935476D01*
X5562491Y-15985476D01*
D11*
X5978030Y-16026960D02*
X5863744Y-16026960D01*
X5920887Y-16026960D02*
X5920887Y-15826960D01*
X5920887Y-15826960D02*
X5901839Y-15855531D01*
X5901839Y-15855531D02*
X5882792Y-15874579D01*
X5882792Y-15874579D02*
X5863744Y-15884103D01*
X6063744Y-16007912D02*
X6073268Y-16017436D01*
X6073268Y-16017436D02*
X6063744Y-16026960D01*
X6063744Y-16026960D02*
X6054220Y-16017436D01*
X6054220Y-16017436D02*
X6063744Y-16007912D01*
X6063744Y-16007912D02*
X6063744Y-16026960D01*
X6197077Y-15826960D02*
X6216125Y-15826960D01*
X6216125Y-15826960D02*
X6235173Y-15836484D01*
X6235173Y-15836484D02*
X6244696Y-15846008D01*
X6244696Y-15846008D02*
X6254220Y-15865055D01*
X6254220Y-15865055D02*
X6263744Y-15903150D01*
X6263744Y-15903150D02*
X6263744Y-15950769D01*
X6263744Y-15950769D02*
X6254220Y-15988865D01*
X6254220Y-15988865D02*
X6244696Y-16007912D01*
X6244696Y-16007912D02*
X6235173Y-16017436D01*
X6235173Y-16017436D02*
X6216125Y-16026960D01*
X6216125Y-16026960D02*
X6197077Y-16026960D01*
X6197077Y-16026960D02*
X6178030Y-16017436D01*
X6178030Y-16017436D02*
X6168506Y-16007912D01*
X6168506Y-16007912D02*
X6158982Y-15988865D01*
X6158982Y-15988865D02*
X6149458Y-15950769D01*
X6149458Y-15950769D02*
X6149458Y-15903150D01*
X6149458Y-15903150D02*
X6158982Y-15865055D01*
X6158982Y-15865055D02*
X6168506Y-15846008D01*
X6168506Y-15846008D02*
X6178030Y-15836484D01*
X6178030Y-15836484D02*
X6197077Y-15826960D01*
X6387554Y-15826960D02*
X6406601Y-15826960D01*
X6406601Y-15826960D02*
X6425649Y-15836484D01*
X6425649Y-15836484D02*
X6435173Y-15846008D01*
X6435173Y-15846008D02*
X6444696Y-15865055D01*
X6444696Y-15865055D02*
X6454220Y-15903150D01*
X6454220Y-15903150D02*
X6454220Y-15950769D01*
X6454220Y-15950769D02*
X6444696Y-15988865D01*
X6444696Y-15988865D02*
X6435173Y-16007912D01*
X6435173Y-16007912D02*
X6425649Y-16017436D01*
X6425649Y-16017436D02*
X6406601Y-16026960D01*
X6406601Y-16026960D02*
X6387554Y-16026960D01*
X6387554Y-16026960D02*
X6368506Y-16017436D01*
X6368506Y-16017436D02*
X6358982Y-16007912D01*
X6358982Y-16007912D02*
X6349458Y-15988865D01*
X6349458Y-15988865D02*
X6339935Y-15950769D01*
X6339935Y-15950769D02*
X6339935Y-15903150D01*
X6339935Y-15903150D02*
X6349458Y-15865055D01*
X6349458Y-15865055D02*
X6358982Y-15846008D01*
X6358982Y-15846008D02*
X6368506Y-15836484D01*
X6368506Y-15836484D02*
X6387554Y-15826960D01*
X6578030Y-15826960D02*
X6597077Y-15826960D01*
X6597077Y-15826960D02*
X6616125Y-15836484D01*
X6616125Y-15836484D02*
X6625649Y-15846008D01*
X6625649Y-15846008D02*
X6635173Y-15865055D01*
X6635173Y-15865055D02*
X6644696Y-15903150D01*
X6644696Y-15903150D02*
X6644696Y-15950769D01*
X6644696Y-15950769D02*
X6635173Y-15988865D01*
X6635173Y-15988865D02*
X6625649Y-16007912D01*
X6625649Y-16007912D02*
X6616125Y-16017436D01*
X6616125Y-16017436D02*
X6597077Y-16026960D01*
X6597077Y-16026960D02*
X6578030Y-16026960D01*
X6578030Y-16026960D02*
X6558982Y-16017436D01*
X6558982Y-16017436D02*
X6549458Y-16007912D01*
X6549458Y-16007912D02*
X6539935Y-15988865D01*
X6539935Y-15988865D02*
X6530411Y-15950769D01*
X6530411Y-15950769D02*
X6530411Y-15903150D01*
X6530411Y-15903150D02*
X6539935Y-15865055D01*
X6539935Y-15865055D02*
X6549458Y-15846008D01*
X6549458Y-15846008D02*
X6558982Y-15836484D01*
X6558982Y-15836484D02*
X6578030Y-15826960D01*
X6730411Y-16026960D02*
X6730411Y-15893627D01*
X6730411Y-15912674D02*
X6739935Y-15903150D01*
X6739935Y-15903150D02*
X6758982Y-15893627D01*
X6758982Y-15893627D02*
X6787554Y-15893627D01*
X6787554Y-15893627D02*
X6806601Y-15903150D01*
X6806601Y-15903150D02*
X6816125Y-15922198D01*
X6816125Y-15922198D02*
X6816125Y-16026960D01*
X6816125Y-15922198D02*
X6825649Y-15903150D01*
X6825649Y-15903150D02*
X6844696Y-15893627D01*
X6844696Y-15893627D02*
X6873268Y-15893627D01*
X6873268Y-15893627D02*
X6892316Y-15903150D01*
X6892316Y-15903150D02*
X6901839Y-15922198D01*
X6901839Y-15922198D02*
X6901839Y-16026960D01*
X6997077Y-16026960D02*
X6997077Y-15893627D01*
X6997077Y-15912674D02*
X7006601Y-15903150D01*
X7006601Y-15903150D02*
X7025649Y-15893627D01*
X7025649Y-15893627D02*
X7054220Y-15893627D01*
X7054220Y-15893627D02*
X7073268Y-15903150D01*
X7073268Y-15903150D02*
X7082792Y-15922198D01*
X7082792Y-15922198D02*
X7082792Y-16026960D01*
X7082792Y-15922198D02*
X7092316Y-15903150D01*
X7092316Y-15903150D02*
X7111363Y-15893627D01*
X7111363Y-15893627D02*
X7139935Y-15893627D01*
X7139935Y-15893627D02*
X7158982Y-15903150D01*
X7158982Y-15903150D02*
X7168506Y-15922198D01*
X7168506Y-15922198D02*
X7168506Y-16026960D01*
X7558982Y-15817436D02*
X7387554Y-16074579D01*
X7816125Y-15826960D02*
X7835173Y-15826960D01*
X7835173Y-15826960D02*
X7854220Y-15836484D01*
X7854220Y-15836484D02*
X7863744Y-15846008D01*
X7863744Y-15846008D02*
X7873268Y-15865055D01*
X7873268Y-15865055D02*
X7882792Y-15903150D01*
X7882792Y-15903150D02*
X7882792Y-15950769D01*
X7882792Y-15950769D02*
X7873268Y-15988865D01*
X7873268Y-15988865D02*
X7863744Y-16007912D01*
X7863744Y-16007912D02*
X7854220Y-16017436D01*
X7854220Y-16017436D02*
X7835173Y-16026960D01*
X7835173Y-16026960D02*
X7816125Y-16026960D01*
X7816125Y-16026960D02*
X7797078Y-16017436D01*
X7797078Y-16017436D02*
X7787554Y-16007912D01*
X7787554Y-16007912D02*
X7778030Y-15988865D01*
X7778030Y-15988865D02*
X7768506Y-15950769D01*
X7768506Y-15950769D02*
X7768506Y-15903150D01*
X7768506Y-15903150D02*
X7778030Y-15865055D01*
X7778030Y-15865055D02*
X7787554Y-15846008D01*
X7787554Y-15846008D02*
X7797078Y-15836484D01*
X7797078Y-15836484D02*
X7816125Y-15826960D01*
X7968506Y-16007912D02*
X7978030Y-16017436D01*
X7978030Y-16017436D02*
X7968506Y-16026960D01*
X7968506Y-16026960D02*
X7958982Y-16017436D01*
X7958982Y-16017436D02*
X7968506Y-16007912D01*
X7968506Y-16007912D02*
X7968506Y-16026960D01*
X8101839Y-15826960D02*
X8120887Y-15826960D01*
X8120887Y-15826960D02*
X8139935Y-15836484D01*
X8139935Y-15836484D02*
X8149459Y-15846008D01*
X8149459Y-15846008D02*
X8158982Y-15865055D01*
X8158982Y-15865055D02*
X8168506Y-15903150D01*
X8168506Y-15903150D02*
X8168506Y-15950769D01*
X8168506Y-15950769D02*
X8158982Y-15988865D01*
X8158982Y-15988865D02*
X8149459Y-16007912D01*
X8149459Y-16007912D02*
X8139935Y-16017436D01*
X8139935Y-16017436D02*
X8120887Y-16026960D01*
X8120887Y-16026960D02*
X8101839Y-16026960D01*
X8101839Y-16026960D02*
X8082792Y-16017436D01*
X8082792Y-16017436D02*
X8073268Y-16007912D01*
X8073268Y-16007912D02*
X8063744Y-15988865D01*
X8063744Y-15988865D02*
X8054220Y-15950769D01*
X8054220Y-15950769D02*
X8054220Y-15903150D01*
X8054220Y-15903150D02*
X8063744Y-15865055D01*
X8063744Y-15865055D02*
X8073268Y-15846008D01*
X8073268Y-15846008D02*
X8082792Y-15836484D01*
X8082792Y-15836484D02*
X8101839Y-15826960D01*
X8235173Y-15826960D02*
X8358982Y-15826960D01*
X8358982Y-15826960D02*
X8292316Y-15903150D01*
X8292316Y-15903150D02*
X8320887Y-15903150D01*
X8320887Y-15903150D02*
X8339935Y-15912674D01*
X8339935Y-15912674D02*
X8349459Y-15922198D01*
X8349459Y-15922198D02*
X8358982Y-15941246D01*
X8358982Y-15941246D02*
X8358982Y-15988865D01*
X8358982Y-15988865D02*
X8349459Y-16007912D01*
X8349459Y-16007912D02*
X8339935Y-16017436D01*
X8339935Y-16017436D02*
X8320887Y-16026960D01*
X8320887Y-16026960D02*
X8263744Y-16026960D01*
X8263744Y-16026960D02*
X8244697Y-16017436D01*
X8244697Y-16017436D02*
X8235173Y-16007912D01*
X8454221Y-16026960D02*
X8492316Y-16026960D01*
X8492316Y-16026960D02*
X8511363Y-16017436D01*
X8511363Y-16017436D02*
X8520887Y-16007912D01*
X8520887Y-16007912D02*
X8539935Y-15979341D01*
X8539935Y-15979341D02*
X8549459Y-15941246D01*
X8549459Y-15941246D02*
X8549459Y-15865055D01*
X8549459Y-15865055D02*
X8539935Y-15846008D01*
X8539935Y-15846008D02*
X8530411Y-15836484D01*
X8530411Y-15836484D02*
X8511363Y-15826960D01*
X8511363Y-15826960D02*
X8473268Y-15826960D01*
X8473268Y-15826960D02*
X8454221Y-15836484D01*
X8454221Y-15836484D02*
X8444697Y-15846008D01*
X8444697Y-15846008D02*
X8435173Y-15865055D01*
X8435173Y-15865055D02*
X8435173Y-15912674D01*
X8435173Y-15912674D02*
X8444697Y-15931722D01*
X8444697Y-15931722D02*
X8454221Y-15941246D01*
X8454221Y-15941246D02*
X8473268Y-15950769D01*
X8473268Y-15950769D02*
X8511363Y-15950769D01*
X8511363Y-15950769D02*
X8530411Y-15941246D01*
X8530411Y-15941246D02*
X8539935Y-15931722D01*
X8539935Y-15931722D02*
X8549459Y-15912674D01*
X8720887Y-15893627D02*
X8720887Y-16026960D01*
X8673268Y-15817436D02*
X8625649Y-15960293D01*
X8625649Y-15960293D02*
X8749459Y-15960293D01*
X8816125Y-15826960D02*
X8816125Y-15865055D01*
X8892316Y-15826960D02*
X8892316Y-15865055D01*
X9187554Y-16103150D02*
X9178030Y-16093627D01*
X9178030Y-16093627D02*
X9158983Y-16065055D01*
X9158983Y-16065055D02*
X9149459Y-16046008D01*
X9149459Y-16046008D02*
X9139935Y-16017436D01*
X9139935Y-16017436D02*
X9130411Y-15969817D01*
X9130411Y-15969817D02*
X9130411Y-15931722D01*
X9130411Y-15931722D02*
X9139935Y-15884103D01*
X9139935Y-15884103D02*
X9149459Y-15855531D01*
X9149459Y-15855531D02*
X9158983Y-15836484D01*
X9158983Y-15836484D02*
X9178030Y-15807912D01*
X9178030Y-15807912D02*
X9187554Y-15798388D01*
X9273268Y-16026960D02*
X9311363Y-16026960D01*
X9311363Y-16026960D02*
X9330411Y-16017436D01*
X9330411Y-16017436D02*
X9339935Y-16007912D01*
X9339935Y-16007912D02*
X9358983Y-15979341D01*
X9358983Y-15979341D02*
X9368506Y-15941246D01*
X9368506Y-15941246D02*
X9368506Y-15865055D01*
X9368506Y-15865055D02*
X9358983Y-15846008D01*
X9358983Y-15846008D02*
X9349459Y-15836484D01*
X9349459Y-15836484D02*
X9330411Y-15826960D01*
X9330411Y-15826960D02*
X9292316Y-15826960D01*
X9292316Y-15826960D02*
X9273268Y-15836484D01*
X9273268Y-15836484D02*
X9263744Y-15846008D01*
X9263744Y-15846008D02*
X9254221Y-15865055D01*
X9254221Y-15865055D02*
X9254221Y-15912674D01*
X9254221Y-15912674D02*
X9263744Y-15931722D01*
X9263744Y-15931722D02*
X9273268Y-15941246D01*
X9273268Y-15941246D02*
X9292316Y-15950769D01*
X9292316Y-15950769D02*
X9330411Y-15950769D01*
X9330411Y-15950769D02*
X9349459Y-15941246D01*
X9349459Y-15941246D02*
X9358983Y-15931722D01*
X9358983Y-15931722D02*
X9368506Y-15912674D01*
X9492316Y-15826960D02*
X9511364Y-15826960D01*
X9511364Y-15826960D02*
X9530411Y-15836484D01*
X9530411Y-15836484D02*
X9539935Y-15846008D01*
X9539935Y-15846008D02*
X9549459Y-15865055D01*
X9549459Y-15865055D02*
X9558983Y-15903150D01*
X9558983Y-15903150D02*
X9558983Y-15950769D01*
X9558983Y-15950769D02*
X9549459Y-15988865D01*
X9549459Y-15988865D02*
X9539935Y-16007912D01*
X9539935Y-16007912D02*
X9530411Y-16017436D01*
X9530411Y-16017436D02*
X9511364Y-16026960D01*
X9511364Y-16026960D02*
X9492316Y-16026960D01*
X9492316Y-16026960D02*
X9473268Y-16017436D01*
X9473268Y-16017436D02*
X9463744Y-16007912D01*
X9463744Y-16007912D02*
X9454221Y-15988865D01*
X9454221Y-15988865D02*
X9444697Y-15950769D01*
X9444697Y-15950769D02*
X9444697Y-15903150D01*
X9444697Y-15903150D02*
X9454221Y-15865055D01*
X9454221Y-15865055D02*
X9463744Y-15846008D01*
X9463744Y-15846008D02*
X9473268Y-15836484D01*
X9473268Y-15836484D02*
X9492316Y-15826960D01*
X9797078Y-16026960D02*
X9797078Y-15826960D01*
X9882792Y-16026960D02*
X9882792Y-15922198D01*
X9882792Y-15922198D02*
X9873268Y-15903150D01*
X9873268Y-15903150D02*
X9854221Y-15893627D01*
X9854221Y-15893627D02*
X9825649Y-15893627D01*
X9825649Y-15893627D02*
X9806602Y-15903150D01*
X9806602Y-15903150D02*
X9797078Y-15912674D01*
X10006602Y-16026960D02*
X9987554Y-16017436D01*
X9987554Y-16017436D02*
X9978030Y-16007912D01*
X9978030Y-16007912D02*
X9968506Y-15988865D01*
X9968506Y-15988865D02*
X9968506Y-15931722D01*
X9968506Y-15931722D02*
X9978030Y-15912674D01*
X9978030Y-15912674D02*
X9987554Y-15903150D01*
X9987554Y-15903150D02*
X10006602Y-15893627D01*
X10006602Y-15893627D02*
X10035173Y-15893627D01*
X10035173Y-15893627D02*
X10054221Y-15903150D01*
X10054221Y-15903150D02*
X10063745Y-15912674D01*
X10063745Y-15912674D02*
X10073268Y-15931722D01*
X10073268Y-15931722D02*
X10073268Y-15988865D01*
X10073268Y-15988865D02*
X10063745Y-16007912D01*
X10063745Y-16007912D02*
X10054221Y-16017436D01*
X10054221Y-16017436D02*
X10035173Y-16026960D01*
X10035173Y-16026960D02*
X10006602Y-16026960D01*
X10187554Y-16026960D02*
X10168506Y-16017436D01*
X10168506Y-16017436D02*
X10158983Y-15998388D01*
X10158983Y-15998388D02*
X10158983Y-15826960D01*
X10339935Y-16017436D02*
X10320887Y-16026960D01*
X10320887Y-16026960D02*
X10282792Y-16026960D01*
X10282792Y-16026960D02*
X10263745Y-16017436D01*
X10263745Y-16017436D02*
X10254221Y-15998388D01*
X10254221Y-15998388D02*
X10254221Y-15922198D01*
X10254221Y-15922198D02*
X10263745Y-15903150D01*
X10263745Y-15903150D02*
X10282792Y-15893627D01*
X10282792Y-15893627D02*
X10320887Y-15893627D01*
X10320887Y-15893627D02*
X10339935Y-15903150D01*
X10339935Y-15903150D02*
X10349459Y-15922198D01*
X10349459Y-15922198D02*
X10349459Y-15941246D01*
X10349459Y-15941246D02*
X10254221Y-15960293D01*
X10425649Y-16017436D02*
X10444697Y-16026960D01*
X10444697Y-16026960D02*
X10482792Y-16026960D01*
X10482792Y-16026960D02*
X10501840Y-16017436D01*
X10501840Y-16017436D02*
X10511364Y-15998388D01*
X10511364Y-15998388D02*
X10511364Y-15988865D01*
X10511364Y-15988865D02*
X10501840Y-15969817D01*
X10501840Y-15969817D02*
X10482792Y-15960293D01*
X10482792Y-15960293D02*
X10454221Y-15960293D01*
X10454221Y-15960293D02*
X10435173Y-15950769D01*
X10435173Y-15950769D02*
X10425649Y-15931722D01*
X10425649Y-15931722D02*
X10425649Y-15922198D01*
X10425649Y-15922198D02*
X10435173Y-15903150D01*
X10435173Y-15903150D02*
X10454221Y-15893627D01*
X10454221Y-15893627D02*
X10482792Y-15893627D01*
X10482792Y-15893627D02*
X10501840Y-15903150D01*
X10578030Y-16103150D02*
X10587554Y-16093627D01*
X10587554Y-16093627D02*
X10606602Y-16065055D01*
X10606602Y-16065055D02*
X10616126Y-16046008D01*
X10616126Y-16046008D02*
X10625649Y-16017436D01*
X10625649Y-16017436D02*
X10635173Y-15969817D01*
X10635173Y-15969817D02*
X10635173Y-15931722D01*
X10635173Y-15931722D02*
X10625649Y-15884103D01*
X10625649Y-15884103D02*
X10616126Y-15855531D01*
X10616126Y-15855531D02*
X10606602Y-15836484D01*
X10606602Y-15836484D02*
X10587554Y-15807912D01*
X10587554Y-15807912D02*
X10578030Y-15798388D01*
D13*
X5502491Y-16144476D02*
X5612491Y-16254476D01*
X5612491Y-16144476D02*
X5502491Y-16254476D01*
X5612491Y-16199476D02*
G75*
G02*
X5502491Y-16199476I-55000J0D01*
G01*
X5502491Y-16199476D02*
G75*
G02*
X5612491Y-16199476I55000J0D01*
G01*
D11*
X5978030Y-16290960D02*
X5863744Y-16290960D01*
X5920887Y-16290960D02*
X5920887Y-16090960D01*
X5920887Y-16090960D02*
X5901839Y-16119531D01*
X5901839Y-16119531D02*
X5882792Y-16138579D01*
X5882792Y-16138579D02*
X5863744Y-16148103D01*
X6063744Y-16271912D02*
X6073268Y-16281436D01*
X6073268Y-16281436D02*
X6063744Y-16290960D01*
X6063744Y-16290960D02*
X6054220Y-16281436D01*
X6054220Y-16281436D02*
X6063744Y-16271912D01*
X6063744Y-16271912D02*
X6063744Y-16290960D01*
X6263744Y-16290960D02*
X6149458Y-16290960D01*
X6206601Y-16290960D02*
X6206601Y-16090960D01*
X6206601Y-16090960D02*
X6187554Y-16119531D01*
X6187554Y-16119531D02*
X6168506Y-16138579D01*
X6168506Y-16138579D02*
X6149458Y-16148103D01*
X6387554Y-16090960D02*
X6406601Y-16090960D01*
X6406601Y-16090960D02*
X6425649Y-16100484D01*
X6425649Y-16100484D02*
X6435173Y-16110008D01*
X6435173Y-16110008D02*
X6444696Y-16129055D01*
X6444696Y-16129055D02*
X6454220Y-16167150D01*
X6454220Y-16167150D02*
X6454220Y-16214769D01*
X6454220Y-16214769D02*
X6444696Y-16252865D01*
X6444696Y-16252865D02*
X6435173Y-16271912D01*
X6435173Y-16271912D02*
X6425649Y-16281436D01*
X6425649Y-16281436D02*
X6406601Y-16290960D01*
X6406601Y-16290960D02*
X6387554Y-16290960D01*
X6387554Y-16290960D02*
X6368506Y-16281436D01*
X6368506Y-16281436D02*
X6358982Y-16271912D01*
X6358982Y-16271912D02*
X6349458Y-16252865D01*
X6349458Y-16252865D02*
X6339935Y-16214769D01*
X6339935Y-16214769D02*
X6339935Y-16167150D01*
X6339935Y-16167150D02*
X6349458Y-16129055D01*
X6349458Y-16129055D02*
X6358982Y-16110008D01*
X6358982Y-16110008D02*
X6368506Y-16100484D01*
X6368506Y-16100484D02*
X6387554Y-16090960D01*
X6578030Y-16090960D02*
X6597077Y-16090960D01*
X6597077Y-16090960D02*
X6616125Y-16100484D01*
X6616125Y-16100484D02*
X6625649Y-16110008D01*
X6625649Y-16110008D02*
X6635173Y-16129055D01*
X6635173Y-16129055D02*
X6644696Y-16167150D01*
X6644696Y-16167150D02*
X6644696Y-16214769D01*
X6644696Y-16214769D02*
X6635173Y-16252865D01*
X6635173Y-16252865D02*
X6625649Y-16271912D01*
X6625649Y-16271912D02*
X6616125Y-16281436D01*
X6616125Y-16281436D02*
X6597077Y-16290960D01*
X6597077Y-16290960D02*
X6578030Y-16290960D01*
X6578030Y-16290960D02*
X6558982Y-16281436D01*
X6558982Y-16281436D02*
X6549458Y-16271912D01*
X6549458Y-16271912D02*
X6539935Y-16252865D01*
X6539935Y-16252865D02*
X6530411Y-16214769D01*
X6530411Y-16214769D02*
X6530411Y-16167150D01*
X6530411Y-16167150D02*
X6539935Y-16129055D01*
X6539935Y-16129055D02*
X6549458Y-16110008D01*
X6549458Y-16110008D02*
X6558982Y-16100484D01*
X6558982Y-16100484D02*
X6578030Y-16090960D01*
X6730411Y-16290960D02*
X6730411Y-16157627D01*
X6730411Y-16176674D02*
X6739935Y-16167150D01*
X6739935Y-16167150D02*
X6758982Y-16157627D01*
X6758982Y-16157627D02*
X6787554Y-16157627D01*
X6787554Y-16157627D02*
X6806601Y-16167150D01*
X6806601Y-16167150D02*
X6816125Y-16186198D01*
X6816125Y-16186198D02*
X6816125Y-16290960D01*
X6816125Y-16186198D02*
X6825649Y-16167150D01*
X6825649Y-16167150D02*
X6844696Y-16157627D01*
X6844696Y-16157627D02*
X6873268Y-16157627D01*
X6873268Y-16157627D02*
X6892316Y-16167150D01*
X6892316Y-16167150D02*
X6901839Y-16186198D01*
X6901839Y-16186198D02*
X6901839Y-16290960D01*
X6997077Y-16290960D02*
X6997077Y-16157627D01*
X6997077Y-16176674D02*
X7006601Y-16167150D01*
X7006601Y-16167150D02*
X7025649Y-16157627D01*
X7025649Y-16157627D02*
X7054220Y-16157627D01*
X7054220Y-16157627D02*
X7073268Y-16167150D01*
X7073268Y-16167150D02*
X7082792Y-16186198D01*
X7082792Y-16186198D02*
X7082792Y-16290960D01*
X7082792Y-16186198D02*
X7092316Y-16167150D01*
X7092316Y-16167150D02*
X7111363Y-16157627D01*
X7111363Y-16157627D02*
X7139935Y-16157627D01*
X7139935Y-16157627D02*
X7158982Y-16167150D01*
X7158982Y-16167150D02*
X7168506Y-16186198D01*
X7168506Y-16186198D02*
X7168506Y-16290960D01*
X7558982Y-16081436D02*
X7387554Y-16338579D01*
X7816125Y-16090960D02*
X7835173Y-16090960D01*
X7835173Y-16090960D02*
X7854220Y-16100484D01*
X7854220Y-16100484D02*
X7863744Y-16110008D01*
X7863744Y-16110008D02*
X7873268Y-16129055D01*
X7873268Y-16129055D02*
X7882792Y-16167150D01*
X7882792Y-16167150D02*
X7882792Y-16214769D01*
X7882792Y-16214769D02*
X7873268Y-16252865D01*
X7873268Y-16252865D02*
X7863744Y-16271912D01*
X7863744Y-16271912D02*
X7854220Y-16281436D01*
X7854220Y-16281436D02*
X7835173Y-16290960D01*
X7835173Y-16290960D02*
X7816125Y-16290960D01*
X7816125Y-16290960D02*
X7797078Y-16281436D01*
X7797078Y-16281436D02*
X7787554Y-16271912D01*
X7787554Y-16271912D02*
X7778030Y-16252865D01*
X7778030Y-16252865D02*
X7768506Y-16214769D01*
X7768506Y-16214769D02*
X7768506Y-16167150D01*
X7768506Y-16167150D02*
X7778030Y-16129055D01*
X7778030Y-16129055D02*
X7787554Y-16110008D01*
X7787554Y-16110008D02*
X7797078Y-16100484D01*
X7797078Y-16100484D02*
X7816125Y-16090960D01*
X7968506Y-16271912D02*
X7978030Y-16281436D01*
X7978030Y-16281436D02*
X7968506Y-16290960D01*
X7968506Y-16290960D02*
X7958982Y-16281436D01*
X7958982Y-16281436D02*
X7968506Y-16271912D01*
X7968506Y-16271912D02*
X7968506Y-16290960D01*
X8101839Y-16090960D02*
X8120887Y-16090960D01*
X8120887Y-16090960D02*
X8139935Y-16100484D01*
X8139935Y-16100484D02*
X8149459Y-16110008D01*
X8149459Y-16110008D02*
X8158982Y-16129055D01*
X8158982Y-16129055D02*
X8168506Y-16167150D01*
X8168506Y-16167150D02*
X8168506Y-16214769D01*
X8168506Y-16214769D02*
X8158982Y-16252865D01*
X8158982Y-16252865D02*
X8149459Y-16271912D01*
X8149459Y-16271912D02*
X8139935Y-16281436D01*
X8139935Y-16281436D02*
X8120887Y-16290960D01*
X8120887Y-16290960D02*
X8101839Y-16290960D01*
X8101839Y-16290960D02*
X8082792Y-16281436D01*
X8082792Y-16281436D02*
X8073268Y-16271912D01*
X8073268Y-16271912D02*
X8063744Y-16252865D01*
X8063744Y-16252865D02*
X8054220Y-16214769D01*
X8054220Y-16214769D02*
X8054220Y-16167150D01*
X8054220Y-16167150D02*
X8063744Y-16129055D01*
X8063744Y-16129055D02*
X8073268Y-16110008D01*
X8073268Y-16110008D02*
X8082792Y-16100484D01*
X8082792Y-16100484D02*
X8101839Y-16090960D01*
X8339935Y-16157627D02*
X8339935Y-16290960D01*
X8292316Y-16081436D02*
X8244697Y-16224293D01*
X8244697Y-16224293D02*
X8368506Y-16224293D01*
X8425649Y-16090960D02*
X8549459Y-16090960D01*
X8549459Y-16090960D02*
X8482792Y-16167150D01*
X8482792Y-16167150D02*
X8511363Y-16167150D01*
X8511363Y-16167150D02*
X8530411Y-16176674D01*
X8530411Y-16176674D02*
X8539935Y-16186198D01*
X8539935Y-16186198D02*
X8549459Y-16205246D01*
X8549459Y-16205246D02*
X8549459Y-16252865D01*
X8549459Y-16252865D02*
X8539935Y-16271912D01*
X8539935Y-16271912D02*
X8530411Y-16281436D01*
X8530411Y-16281436D02*
X8511363Y-16290960D01*
X8511363Y-16290960D02*
X8454221Y-16290960D01*
X8454221Y-16290960D02*
X8435173Y-16281436D01*
X8435173Y-16281436D02*
X8425649Y-16271912D01*
X8616125Y-16090960D02*
X8739935Y-16090960D01*
X8739935Y-16090960D02*
X8673268Y-16167150D01*
X8673268Y-16167150D02*
X8701840Y-16167150D01*
X8701840Y-16167150D02*
X8720887Y-16176674D01*
X8720887Y-16176674D02*
X8730411Y-16186198D01*
X8730411Y-16186198D02*
X8739935Y-16205246D01*
X8739935Y-16205246D02*
X8739935Y-16252865D01*
X8739935Y-16252865D02*
X8730411Y-16271912D01*
X8730411Y-16271912D02*
X8720887Y-16281436D01*
X8720887Y-16281436D02*
X8701840Y-16290960D01*
X8701840Y-16290960D02*
X8644697Y-16290960D01*
X8644697Y-16290960D02*
X8625649Y-16281436D01*
X8625649Y-16281436D02*
X8616125Y-16271912D01*
X8816125Y-16090960D02*
X8816125Y-16129055D01*
X8892316Y-16090960D02*
X8892316Y-16129055D01*
X9187554Y-16367150D02*
X9178030Y-16357627D01*
X9178030Y-16357627D02*
X9158983Y-16329055D01*
X9158983Y-16329055D02*
X9149459Y-16310008D01*
X9149459Y-16310008D02*
X9139935Y-16281436D01*
X9139935Y-16281436D02*
X9130411Y-16233817D01*
X9130411Y-16233817D02*
X9130411Y-16195722D01*
X9130411Y-16195722D02*
X9139935Y-16148103D01*
X9139935Y-16148103D02*
X9149459Y-16119531D01*
X9149459Y-16119531D02*
X9158983Y-16100484D01*
X9158983Y-16100484D02*
X9178030Y-16071912D01*
X9178030Y-16071912D02*
X9187554Y-16062388D01*
X9349459Y-16157627D02*
X9349459Y-16290960D01*
X9301840Y-16081436D02*
X9254221Y-16224293D01*
X9254221Y-16224293D02*
X9378030Y-16224293D01*
X9606602Y-16290960D02*
X9606602Y-16090960D01*
X9692316Y-16290960D02*
X9692316Y-16186198D01*
X9692316Y-16186198D02*
X9682792Y-16167150D01*
X9682792Y-16167150D02*
X9663745Y-16157627D01*
X9663745Y-16157627D02*
X9635173Y-16157627D01*
X9635173Y-16157627D02*
X9616125Y-16167150D01*
X9616125Y-16167150D02*
X9606602Y-16176674D01*
X9816125Y-16290960D02*
X9797078Y-16281436D01*
X9797078Y-16281436D02*
X9787554Y-16271912D01*
X9787554Y-16271912D02*
X9778030Y-16252865D01*
X9778030Y-16252865D02*
X9778030Y-16195722D01*
X9778030Y-16195722D02*
X9787554Y-16176674D01*
X9787554Y-16176674D02*
X9797078Y-16167150D01*
X9797078Y-16167150D02*
X9816125Y-16157627D01*
X9816125Y-16157627D02*
X9844697Y-16157627D01*
X9844697Y-16157627D02*
X9863745Y-16167150D01*
X9863745Y-16167150D02*
X9873268Y-16176674D01*
X9873268Y-16176674D02*
X9882792Y-16195722D01*
X9882792Y-16195722D02*
X9882792Y-16252865D01*
X9882792Y-16252865D02*
X9873268Y-16271912D01*
X9873268Y-16271912D02*
X9863745Y-16281436D01*
X9863745Y-16281436D02*
X9844697Y-16290960D01*
X9844697Y-16290960D02*
X9816125Y-16290960D01*
X9997078Y-16290960D02*
X9978030Y-16281436D01*
X9978030Y-16281436D02*
X9968506Y-16262388D01*
X9968506Y-16262388D02*
X9968506Y-16090960D01*
X10149459Y-16281436D02*
X10130411Y-16290960D01*
X10130411Y-16290960D02*
X10092316Y-16290960D01*
X10092316Y-16290960D02*
X10073268Y-16281436D01*
X10073268Y-16281436D02*
X10063745Y-16262388D01*
X10063745Y-16262388D02*
X10063745Y-16186198D01*
X10063745Y-16186198D02*
X10073268Y-16167150D01*
X10073268Y-16167150D02*
X10092316Y-16157627D01*
X10092316Y-16157627D02*
X10130411Y-16157627D01*
X10130411Y-16157627D02*
X10149459Y-16167150D01*
X10149459Y-16167150D02*
X10158983Y-16186198D01*
X10158983Y-16186198D02*
X10158983Y-16205246D01*
X10158983Y-16205246D02*
X10063745Y-16224293D01*
X10235173Y-16281436D02*
X10254221Y-16290960D01*
X10254221Y-16290960D02*
X10292316Y-16290960D01*
X10292316Y-16290960D02*
X10311364Y-16281436D01*
X10311364Y-16281436D02*
X10320887Y-16262388D01*
X10320887Y-16262388D02*
X10320887Y-16252865D01*
X10320887Y-16252865D02*
X10311364Y-16233817D01*
X10311364Y-16233817D02*
X10292316Y-16224293D01*
X10292316Y-16224293D02*
X10263745Y-16224293D01*
X10263745Y-16224293D02*
X10244697Y-16214769D01*
X10244697Y-16214769D02*
X10235173Y-16195722D01*
X10235173Y-16195722D02*
X10235173Y-16186198D01*
X10235173Y-16186198D02*
X10244697Y-16167150D01*
X10244697Y-16167150D02*
X10263745Y-16157627D01*
X10263745Y-16157627D02*
X10292316Y-16157627D01*
X10292316Y-16157627D02*
X10311364Y-16167150D01*
X10387554Y-16367150D02*
X10397078Y-16357627D01*
X10397078Y-16357627D02*
X10416126Y-16329055D01*
X10416126Y-16329055D02*
X10425649Y-16310008D01*
X10425649Y-16310008D02*
X10435173Y-16281436D01*
X10435173Y-16281436D02*
X10444697Y-16233817D01*
X10444697Y-16233817D02*
X10444697Y-16195722D01*
X10444697Y-16195722D02*
X10435173Y-16148103D01*
X10435173Y-16148103D02*
X10425649Y-16119531D01*
X10425649Y-16119531D02*
X10416126Y-16100484D01*
X10416126Y-16100484D02*
X10397078Y-16071912D01*
X10397078Y-16071912D02*
X10387554Y-16062388D01*
D14*
X5492491Y-16403476D02*
X5612491Y-16523476D01*
X5612491Y-16403476D02*
X5492491Y-16523476D01*
X5552491Y-16403476D02*
X5552491Y-16523476D01*
X5492491Y-16463476D02*
X5612491Y-16463476D01*
D11*
X5978030Y-16554960D02*
X5863744Y-16554960D01*
X5920887Y-16554960D02*
X5920887Y-16354960D01*
X5920887Y-16354960D02*
X5901839Y-16383531D01*
X5901839Y-16383531D02*
X5882792Y-16402579D01*
X5882792Y-16402579D02*
X5863744Y-16412103D01*
X6063744Y-16535912D02*
X6073268Y-16545436D01*
X6073268Y-16545436D02*
X6063744Y-16554960D01*
X6063744Y-16554960D02*
X6054220Y-16545436D01*
X6054220Y-16545436D02*
X6063744Y-16535912D01*
X6063744Y-16535912D02*
X6063744Y-16554960D01*
X6149458Y-16374008D02*
X6158982Y-16364484D01*
X6158982Y-16364484D02*
X6178030Y-16354960D01*
X6178030Y-16354960D02*
X6225649Y-16354960D01*
X6225649Y-16354960D02*
X6244696Y-16364484D01*
X6244696Y-16364484D02*
X6254220Y-16374008D01*
X6254220Y-16374008D02*
X6263744Y-16393055D01*
X6263744Y-16393055D02*
X6263744Y-16412103D01*
X6263744Y-16412103D02*
X6254220Y-16440674D01*
X6254220Y-16440674D02*
X6139935Y-16554960D01*
X6139935Y-16554960D02*
X6263744Y-16554960D01*
X6387554Y-16354960D02*
X6406601Y-16354960D01*
X6406601Y-16354960D02*
X6425649Y-16364484D01*
X6425649Y-16364484D02*
X6435173Y-16374008D01*
X6435173Y-16374008D02*
X6444696Y-16393055D01*
X6444696Y-16393055D02*
X6454220Y-16431150D01*
X6454220Y-16431150D02*
X6454220Y-16478769D01*
X6454220Y-16478769D02*
X6444696Y-16516865D01*
X6444696Y-16516865D02*
X6435173Y-16535912D01*
X6435173Y-16535912D02*
X6425649Y-16545436D01*
X6425649Y-16545436D02*
X6406601Y-16554960D01*
X6406601Y-16554960D02*
X6387554Y-16554960D01*
X6387554Y-16554960D02*
X6368506Y-16545436D01*
X6368506Y-16545436D02*
X6358982Y-16535912D01*
X6358982Y-16535912D02*
X6349458Y-16516865D01*
X6349458Y-16516865D02*
X6339935Y-16478769D01*
X6339935Y-16478769D02*
X6339935Y-16431150D01*
X6339935Y-16431150D02*
X6349458Y-16393055D01*
X6349458Y-16393055D02*
X6358982Y-16374008D01*
X6358982Y-16374008D02*
X6368506Y-16364484D01*
X6368506Y-16364484D02*
X6387554Y-16354960D01*
X6578030Y-16354960D02*
X6597077Y-16354960D01*
X6597077Y-16354960D02*
X6616125Y-16364484D01*
X6616125Y-16364484D02*
X6625649Y-16374008D01*
X6625649Y-16374008D02*
X6635173Y-16393055D01*
X6635173Y-16393055D02*
X6644696Y-16431150D01*
X6644696Y-16431150D02*
X6644696Y-16478769D01*
X6644696Y-16478769D02*
X6635173Y-16516865D01*
X6635173Y-16516865D02*
X6625649Y-16535912D01*
X6625649Y-16535912D02*
X6616125Y-16545436D01*
X6616125Y-16545436D02*
X6597077Y-16554960D01*
X6597077Y-16554960D02*
X6578030Y-16554960D01*
X6578030Y-16554960D02*
X6558982Y-16545436D01*
X6558982Y-16545436D02*
X6549458Y-16535912D01*
X6549458Y-16535912D02*
X6539935Y-16516865D01*
X6539935Y-16516865D02*
X6530411Y-16478769D01*
X6530411Y-16478769D02*
X6530411Y-16431150D01*
X6530411Y-16431150D02*
X6539935Y-16393055D01*
X6539935Y-16393055D02*
X6549458Y-16374008D01*
X6549458Y-16374008D02*
X6558982Y-16364484D01*
X6558982Y-16364484D02*
X6578030Y-16354960D01*
X6730411Y-16554960D02*
X6730411Y-16421627D01*
X6730411Y-16440674D02*
X6739935Y-16431150D01*
X6739935Y-16431150D02*
X6758982Y-16421627D01*
X6758982Y-16421627D02*
X6787554Y-16421627D01*
X6787554Y-16421627D02*
X6806601Y-16431150D01*
X6806601Y-16431150D02*
X6816125Y-16450198D01*
X6816125Y-16450198D02*
X6816125Y-16554960D01*
X6816125Y-16450198D02*
X6825649Y-16431150D01*
X6825649Y-16431150D02*
X6844696Y-16421627D01*
X6844696Y-16421627D02*
X6873268Y-16421627D01*
X6873268Y-16421627D02*
X6892316Y-16431150D01*
X6892316Y-16431150D02*
X6901839Y-16450198D01*
X6901839Y-16450198D02*
X6901839Y-16554960D01*
X6997077Y-16554960D02*
X6997077Y-16421627D01*
X6997077Y-16440674D02*
X7006601Y-16431150D01*
X7006601Y-16431150D02*
X7025649Y-16421627D01*
X7025649Y-16421627D02*
X7054220Y-16421627D01*
X7054220Y-16421627D02*
X7073268Y-16431150D01*
X7073268Y-16431150D02*
X7082792Y-16450198D01*
X7082792Y-16450198D02*
X7082792Y-16554960D01*
X7082792Y-16450198D02*
X7092316Y-16431150D01*
X7092316Y-16431150D02*
X7111363Y-16421627D01*
X7111363Y-16421627D02*
X7139935Y-16421627D01*
X7139935Y-16421627D02*
X7158982Y-16431150D01*
X7158982Y-16431150D02*
X7168506Y-16450198D01*
X7168506Y-16450198D02*
X7168506Y-16554960D01*
X7558982Y-16345436D02*
X7387554Y-16602579D01*
X7816125Y-16354960D02*
X7835173Y-16354960D01*
X7835173Y-16354960D02*
X7854220Y-16364484D01*
X7854220Y-16364484D02*
X7863744Y-16374008D01*
X7863744Y-16374008D02*
X7873268Y-16393055D01*
X7873268Y-16393055D02*
X7882792Y-16431150D01*
X7882792Y-16431150D02*
X7882792Y-16478769D01*
X7882792Y-16478769D02*
X7873268Y-16516865D01*
X7873268Y-16516865D02*
X7863744Y-16535912D01*
X7863744Y-16535912D02*
X7854220Y-16545436D01*
X7854220Y-16545436D02*
X7835173Y-16554960D01*
X7835173Y-16554960D02*
X7816125Y-16554960D01*
X7816125Y-16554960D02*
X7797078Y-16545436D01*
X7797078Y-16545436D02*
X7787554Y-16535912D01*
X7787554Y-16535912D02*
X7778030Y-16516865D01*
X7778030Y-16516865D02*
X7768506Y-16478769D01*
X7768506Y-16478769D02*
X7768506Y-16431150D01*
X7768506Y-16431150D02*
X7778030Y-16393055D01*
X7778030Y-16393055D02*
X7787554Y-16374008D01*
X7787554Y-16374008D02*
X7797078Y-16364484D01*
X7797078Y-16364484D02*
X7816125Y-16354960D01*
X7968506Y-16535912D02*
X7978030Y-16545436D01*
X7978030Y-16545436D02*
X7968506Y-16554960D01*
X7968506Y-16554960D02*
X7958982Y-16545436D01*
X7958982Y-16545436D02*
X7968506Y-16535912D01*
X7968506Y-16535912D02*
X7968506Y-16554960D01*
X8101839Y-16354960D02*
X8120887Y-16354960D01*
X8120887Y-16354960D02*
X8139935Y-16364484D01*
X8139935Y-16364484D02*
X8149459Y-16374008D01*
X8149459Y-16374008D02*
X8158982Y-16393055D01*
X8158982Y-16393055D02*
X8168506Y-16431150D01*
X8168506Y-16431150D02*
X8168506Y-16478769D01*
X8168506Y-16478769D02*
X8158982Y-16516865D01*
X8158982Y-16516865D02*
X8149459Y-16535912D01*
X8149459Y-16535912D02*
X8139935Y-16545436D01*
X8139935Y-16545436D02*
X8120887Y-16554960D01*
X8120887Y-16554960D02*
X8101839Y-16554960D01*
X8101839Y-16554960D02*
X8082792Y-16545436D01*
X8082792Y-16545436D02*
X8073268Y-16535912D01*
X8073268Y-16535912D02*
X8063744Y-16516865D01*
X8063744Y-16516865D02*
X8054220Y-16478769D01*
X8054220Y-16478769D02*
X8054220Y-16431150D01*
X8054220Y-16431150D02*
X8063744Y-16393055D01*
X8063744Y-16393055D02*
X8073268Y-16374008D01*
X8073268Y-16374008D02*
X8082792Y-16364484D01*
X8082792Y-16364484D02*
X8101839Y-16354960D01*
X8339935Y-16421627D02*
X8339935Y-16554960D01*
X8292316Y-16345436D02*
X8244697Y-16488293D01*
X8244697Y-16488293D02*
X8368506Y-16488293D01*
X8425649Y-16354960D02*
X8558982Y-16354960D01*
X8558982Y-16354960D02*
X8473268Y-16554960D01*
X8625649Y-16374008D02*
X8635173Y-16364484D01*
X8635173Y-16364484D02*
X8654221Y-16354960D01*
X8654221Y-16354960D02*
X8701840Y-16354960D01*
X8701840Y-16354960D02*
X8720887Y-16364484D01*
X8720887Y-16364484D02*
X8730411Y-16374008D01*
X8730411Y-16374008D02*
X8739935Y-16393055D01*
X8739935Y-16393055D02*
X8739935Y-16412103D01*
X8739935Y-16412103D02*
X8730411Y-16440674D01*
X8730411Y-16440674D02*
X8616125Y-16554960D01*
X8616125Y-16554960D02*
X8739935Y-16554960D01*
X8816125Y-16354960D02*
X8816125Y-16393055D01*
X8892316Y-16354960D02*
X8892316Y-16393055D01*
X9187554Y-16631150D02*
X9178030Y-16621627D01*
X9178030Y-16621627D02*
X9158983Y-16593055D01*
X9158983Y-16593055D02*
X9149459Y-16574008D01*
X9149459Y-16574008D02*
X9139935Y-16545436D01*
X9139935Y-16545436D02*
X9130411Y-16497817D01*
X9130411Y-16497817D02*
X9130411Y-16459722D01*
X9130411Y-16459722D02*
X9139935Y-16412103D01*
X9139935Y-16412103D02*
X9149459Y-16383531D01*
X9149459Y-16383531D02*
X9158983Y-16364484D01*
X9158983Y-16364484D02*
X9178030Y-16335912D01*
X9178030Y-16335912D02*
X9187554Y-16326388D01*
X9254221Y-16374008D02*
X9263744Y-16364484D01*
X9263744Y-16364484D02*
X9282792Y-16354960D01*
X9282792Y-16354960D02*
X9330411Y-16354960D01*
X9330411Y-16354960D02*
X9349459Y-16364484D01*
X9349459Y-16364484D02*
X9358983Y-16374008D01*
X9358983Y-16374008D02*
X9368506Y-16393055D01*
X9368506Y-16393055D02*
X9368506Y-16412103D01*
X9368506Y-16412103D02*
X9358983Y-16440674D01*
X9358983Y-16440674D02*
X9244697Y-16554960D01*
X9244697Y-16554960D02*
X9368506Y-16554960D01*
X9539935Y-16421627D02*
X9539935Y-16554960D01*
X9492316Y-16345436D02*
X9444697Y-16488293D01*
X9444697Y-16488293D02*
X9568506Y-16488293D01*
X9797078Y-16554960D02*
X9797078Y-16354960D01*
X9882792Y-16554960D02*
X9882792Y-16450198D01*
X9882792Y-16450198D02*
X9873268Y-16431150D01*
X9873268Y-16431150D02*
X9854221Y-16421627D01*
X9854221Y-16421627D02*
X9825649Y-16421627D01*
X9825649Y-16421627D02*
X9806602Y-16431150D01*
X9806602Y-16431150D02*
X9797078Y-16440674D01*
X10006602Y-16554960D02*
X9987554Y-16545436D01*
X9987554Y-16545436D02*
X9978030Y-16535912D01*
X9978030Y-16535912D02*
X9968506Y-16516865D01*
X9968506Y-16516865D02*
X9968506Y-16459722D01*
X9968506Y-16459722D02*
X9978030Y-16440674D01*
X9978030Y-16440674D02*
X9987554Y-16431150D01*
X9987554Y-16431150D02*
X10006602Y-16421627D01*
X10006602Y-16421627D02*
X10035173Y-16421627D01*
X10035173Y-16421627D02*
X10054221Y-16431150D01*
X10054221Y-16431150D02*
X10063745Y-16440674D01*
X10063745Y-16440674D02*
X10073268Y-16459722D01*
X10073268Y-16459722D02*
X10073268Y-16516865D01*
X10073268Y-16516865D02*
X10063745Y-16535912D01*
X10063745Y-16535912D02*
X10054221Y-16545436D01*
X10054221Y-16545436D02*
X10035173Y-16554960D01*
X10035173Y-16554960D02*
X10006602Y-16554960D01*
X10187554Y-16554960D02*
X10168506Y-16545436D01*
X10168506Y-16545436D02*
X10158983Y-16526388D01*
X10158983Y-16526388D02*
X10158983Y-16354960D01*
X10339935Y-16545436D02*
X10320887Y-16554960D01*
X10320887Y-16554960D02*
X10282792Y-16554960D01*
X10282792Y-16554960D02*
X10263745Y-16545436D01*
X10263745Y-16545436D02*
X10254221Y-16526388D01*
X10254221Y-16526388D02*
X10254221Y-16450198D01*
X10254221Y-16450198D02*
X10263745Y-16431150D01*
X10263745Y-16431150D02*
X10282792Y-16421627D01*
X10282792Y-16421627D02*
X10320887Y-16421627D01*
X10320887Y-16421627D02*
X10339935Y-16431150D01*
X10339935Y-16431150D02*
X10349459Y-16450198D01*
X10349459Y-16450198D02*
X10349459Y-16469246D01*
X10349459Y-16469246D02*
X10254221Y-16488293D01*
X10425649Y-16545436D02*
X10444697Y-16554960D01*
X10444697Y-16554960D02*
X10482792Y-16554960D01*
X10482792Y-16554960D02*
X10501840Y-16545436D01*
X10501840Y-16545436D02*
X10511364Y-16526388D01*
X10511364Y-16526388D02*
X10511364Y-16516865D01*
X10511364Y-16516865D02*
X10501840Y-16497817D01*
X10501840Y-16497817D02*
X10482792Y-16488293D01*
X10482792Y-16488293D02*
X10454221Y-16488293D01*
X10454221Y-16488293D02*
X10435173Y-16478769D01*
X10435173Y-16478769D02*
X10425649Y-16459722D01*
X10425649Y-16459722D02*
X10425649Y-16450198D01*
X10425649Y-16450198D02*
X10435173Y-16431150D01*
X10435173Y-16431150D02*
X10454221Y-16421627D01*
X10454221Y-16421627D02*
X10482792Y-16421627D01*
X10482792Y-16421627D02*
X10501840Y-16431150D01*
X10578030Y-16631150D02*
X10587554Y-16621627D01*
X10587554Y-16621627D02*
X10606602Y-16593055D01*
X10606602Y-16593055D02*
X10616126Y-16574008D01*
X10616126Y-16574008D02*
X10625649Y-16545436D01*
X10625649Y-16545436D02*
X10635173Y-16497817D01*
X10635173Y-16497817D02*
X10635173Y-16459722D01*
X10635173Y-16459722D02*
X10625649Y-16412103D01*
X10625649Y-16412103D02*
X10616126Y-16383531D01*
X10616126Y-16383531D02*
X10606602Y-16364484D01*
X10606602Y-16364484D02*
X10587554Y-16335912D01*
X10587554Y-16335912D02*
X10578030Y-16326388D01*
X5412491Y-16627476D02*
X5612491Y-16827476D01*
X5612491Y-16627476D02*
X5412491Y-16827476D01*
X5583203Y-16798188D02*
X5583203Y-16656765D01*
X5441780Y-16656765D01*
X5441780Y-16798188D01*
X5583203Y-16798188D01*
X5863744Y-16638008D02*
X5873268Y-16628484D01*
X5873268Y-16628484D02*
X5892315Y-16618960D01*
X5892315Y-16618960D02*
X5939935Y-16618960D01*
X5939935Y-16618960D02*
X5958982Y-16628484D01*
X5958982Y-16628484D02*
X5968506Y-16638008D01*
X5968506Y-16638008D02*
X5978030Y-16657055D01*
X5978030Y-16657055D02*
X5978030Y-16676103D01*
X5978030Y-16676103D02*
X5968506Y-16704674D01*
X5968506Y-16704674D02*
X5854220Y-16818960D01*
X5854220Y-16818960D02*
X5978030Y-16818960D01*
X6063744Y-16799912D02*
X6073268Y-16809436D01*
X6073268Y-16809436D02*
X6063744Y-16818960D01*
X6063744Y-16818960D02*
X6054220Y-16809436D01*
X6054220Y-16809436D02*
X6063744Y-16799912D01*
X6063744Y-16799912D02*
X6063744Y-16818960D01*
X6139935Y-16618960D02*
X6273268Y-16618960D01*
X6273268Y-16618960D02*
X6187554Y-16818960D01*
X6387554Y-16618960D02*
X6406601Y-16618960D01*
X6406601Y-16618960D02*
X6425649Y-16628484D01*
X6425649Y-16628484D02*
X6435173Y-16638008D01*
X6435173Y-16638008D02*
X6444696Y-16657055D01*
X6444696Y-16657055D02*
X6454220Y-16695150D01*
X6454220Y-16695150D02*
X6454220Y-16742769D01*
X6454220Y-16742769D02*
X6444696Y-16780865D01*
X6444696Y-16780865D02*
X6435173Y-16799912D01*
X6435173Y-16799912D02*
X6425649Y-16809436D01*
X6425649Y-16809436D02*
X6406601Y-16818960D01*
X6406601Y-16818960D02*
X6387554Y-16818960D01*
X6387554Y-16818960D02*
X6368506Y-16809436D01*
X6368506Y-16809436D02*
X6358982Y-16799912D01*
X6358982Y-16799912D02*
X6349458Y-16780865D01*
X6349458Y-16780865D02*
X6339935Y-16742769D01*
X6339935Y-16742769D02*
X6339935Y-16695150D01*
X6339935Y-16695150D02*
X6349458Y-16657055D01*
X6349458Y-16657055D02*
X6358982Y-16638008D01*
X6358982Y-16638008D02*
X6368506Y-16628484D01*
X6368506Y-16628484D02*
X6387554Y-16618960D01*
X6578030Y-16618960D02*
X6597077Y-16618960D01*
X6597077Y-16618960D02*
X6616125Y-16628484D01*
X6616125Y-16628484D02*
X6625649Y-16638008D01*
X6625649Y-16638008D02*
X6635173Y-16657055D01*
X6635173Y-16657055D02*
X6644696Y-16695150D01*
X6644696Y-16695150D02*
X6644696Y-16742769D01*
X6644696Y-16742769D02*
X6635173Y-16780865D01*
X6635173Y-16780865D02*
X6625649Y-16799912D01*
X6625649Y-16799912D02*
X6616125Y-16809436D01*
X6616125Y-16809436D02*
X6597077Y-16818960D01*
X6597077Y-16818960D02*
X6578030Y-16818960D01*
X6578030Y-16818960D02*
X6558982Y-16809436D01*
X6558982Y-16809436D02*
X6549458Y-16799912D01*
X6549458Y-16799912D02*
X6539935Y-16780865D01*
X6539935Y-16780865D02*
X6530411Y-16742769D01*
X6530411Y-16742769D02*
X6530411Y-16695150D01*
X6530411Y-16695150D02*
X6539935Y-16657055D01*
X6539935Y-16657055D02*
X6549458Y-16638008D01*
X6549458Y-16638008D02*
X6558982Y-16628484D01*
X6558982Y-16628484D02*
X6578030Y-16618960D01*
X6730411Y-16818960D02*
X6730411Y-16685627D01*
X6730411Y-16704674D02*
X6739935Y-16695150D01*
X6739935Y-16695150D02*
X6758982Y-16685627D01*
X6758982Y-16685627D02*
X6787554Y-16685627D01*
X6787554Y-16685627D02*
X6806601Y-16695150D01*
X6806601Y-16695150D02*
X6816125Y-16714198D01*
X6816125Y-16714198D02*
X6816125Y-16818960D01*
X6816125Y-16714198D02*
X6825649Y-16695150D01*
X6825649Y-16695150D02*
X6844696Y-16685627D01*
X6844696Y-16685627D02*
X6873268Y-16685627D01*
X6873268Y-16685627D02*
X6892316Y-16695150D01*
X6892316Y-16695150D02*
X6901839Y-16714198D01*
X6901839Y-16714198D02*
X6901839Y-16818960D01*
X6997077Y-16818960D02*
X6997077Y-16685627D01*
X6997077Y-16704674D02*
X7006601Y-16695150D01*
X7006601Y-16695150D02*
X7025649Y-16685627D01*
X7025649Y-16685627D02*
X7054220Y-16685627D01*
X7054220Y-16685627D02*
X7073268Y-16695150D01*
X7073268Y-16695150D02*
X7082792Y-16714198D01*
X7082792Y-16714198D02*
X7082792Y-16818960D01*
X7082792Y-16714198D02*
X7092316Y-16695150D01*
X7092316Y-16695150D02*
X7111363Y-16685627D01*
X7111363Y-16685627D02*
X7139935Y-16685627D01*
X7139935Y-16685627D02*
X7158982Y-16695150D01*
X7158982Y-16695150D02*
X7168506Y-16714198D01*
X7168506Y-16714198D02*
X7168506Y-16818960D01*
X7558982Y-16609436D02*
X7387554Y-16866579D01*
X7816125Y-16618960D02*
X7835173Y-16618960D01*
X7835173Y-16618960D02*
X7854220Y-16628484D01*
X7854220Y-16628484D02*
X7863744Y-16638008D01*
X7863744Y-16638008D02*
X7873268Y-16657055D01*
X7873268Y-16657055D02*
X7882792Y-16695150D01*
X7882792Y-16695150D02*
X7882792Y-16742769D01*
X7882792Y-16742769D02*
X7873268Y-16780865D01*
X7873268Y-16780865D02*
X7863744Y-16799912D01*
X7863744Y-16799912D02*
X7854220Y-16809436D01*
X7854220Y-16809436D02*
X7835173Y-16818960D01*
X7835173Y-16818960D02*
X7816125Y-16818960D01*
X7816125Y-16818960D02*
X7797078Y-16809436D01*
X7797078Y-16809436D02*
X7787554Y-16799912D01*
X7787554Y-16799912D02*
X7778030Y-16780865D01*
X7778030Y-16780865D02*
X7768506Y-16742769D01*
X7768506Y-16742769D02*
X7768506Y-16695150D01*
X7768506Y-16695150D02*
X7778030Y-16657055D01*
X7778030Y-16657055D02*
X7787554Y-16638008D01*
X7787554Y-16638008D02*
X7797078Y-16628484D01*
X7797078Y-16628484D02*
X7816125Y-16618960D01*
X7968506Y-16799912D02*
X7978030Y-16809436D01*
X7978030Y-16809436D02*
X7968506Y-16818960D01*
X7968506Y-16818960D02*
X7958982Y-16809436D01*
X7958982Y-16809436D02*
X7968506Y-16799912D01*
X7968506Y-16799912D02*
X7968506Y-16818960D01*
X8168506Y-16818960D02*
X8054220Y-16818960D01*
X8111363Y-16818960D02*
X8111363Y-16618960D01*
X8111363Y-16618960D02*
X8092316Y-16647531D01*
X8092316Y-16647531D02*
X8073268Y-16666579D01*
X8073268Y-16666579D02*
X8054220Y-16676103D01*
X8292316Y-16618960D02*
X8311363Y-16618960D01*
X8311363Y-16618960D02*
X8330411Y-16628484D01*
X8330411Y-16628484D02*
X8339935Y-16638008D01*
X8339935Y-16638008D02*
X8349459Y-16657055D01*
X8349459Y-16657055D02*
X8358982Y-16695150D01*
X8358982Y-16695150D02*
X8358982Y-16742769D01*
X8358982Y-16742769D02*
X8349459Y-16780865D01*
X8349459Y-16780865D02*
X8339935Y-16799912D01*
X8339935Y-16799912D02*
X8330411Y-16809436D01*
X8330411Y-16809436D02*
X8311363Y-16818960D01*
X8311363Y-16818960D02*
X8292316Y-16818960D01*
X8292316Y-16818960D02*
X8273268Y-16809436D01*
X8273268Y-16809436D02*
X8263744Y-16799912D01*
X8263744Y-16799912D02*
X8254220Y-16780865D01*
X8254220Y-16780865D02*
X8244697Y-16742769D01*
X8244697Y-16742769D02*
X8244697Y-16695150D01*
X8244697Y-16695150D02*
X8254220Y-16657055D01*
X8254220Y-16657055D02*
X8263744Y-16638008D01*
X8263744Y-16638008D02*
X8273268Y-16628484D01*
X8273268Y-16628484D02*
X8292316Y-16618960D01*
X8530411Y-16618960D02*
X8492316Y-16618960D01*
X8492316Y-16618960D02*
X8473268Y-16628484D01*
X8473268Y-16628484D02*
X8463744Y-16638008D01*
X8463744Y-16638008D02*
X8444697Y-16666579D01*
X8444697Y-16666579D02*
X8435173Y-16704674D01*
X8435173Y-16704674D02*
X8435173Y-16780865D01*
X8435173Y-16780865D02*
X8444697Y-16799912D01*
X8444697Y-16799912D02*
X8454221Y-16809436D01*
X8454221Y-16809436D02*
X8473268Y-16818960D01*
X8473268Y-16818960D02*
X8511363Y-16818960D01*
X8511363Y-16818960D02*
X8530411Y-16809436D01*
X8530411Y-16809436D02*
X8539935Y-16799912D01*
X8539935Y-16799912D02*
X8549459Y-16780865D01*
X8549459Y-16780865D02*
X8549459Y-16733246D01*
X8549459Y-16733246D02*
X8539935Y-16714198D01*
X8539935Y-16714198D02*
X8530411Y-16704674D01*
X8530411Y-16704674D02*
X8511363Y-16695150D01*
X8511363Y-16695150D02*
X8473268Y-16695150D01*
X8473268Y-16695150D02*
X8454221Y-16704674D01*
X8454221Y-16704674D02*
X8444697Y-16714198D01*
X8444697Y-16714198D02*
X8435173Y-16733246D01*
X8616125Y-16618960D02*
X8739935Y-16618960D01*
X8739935Y-16618960D02*
X8673268Y-16695150D01*
X8673268Y-16695150D02*
X8701840Y-16695150D01*
X8701840Y-16695150D02*
X8720887Y-16704674D01*
X8720887Y-16704674D02*
X8730411Y-16714198D01*
X8730411Y-16714198D02*
X8739935Y-16733246D01*
X8739935Y-16733246D02*
X8739935Y-16780865D01*
X8739935Y-16780865D02*
X8730411Y-16799912D01*
X8730411Y-16799912D02*
X8720887Y-16809436D01*
X8720887Y-16809436D02*
X8701840Y-16818960D01*
X8701840Y-16818960D02*
X8644697Y-16818960D01*
X8644697Y-16818960D02*
X8625649Y-16809436D01*
X8625649Y-16809436D02*
X8616125Y-16799912D01*
X8816125Y-16618960D02*
X8816125Y-16657055D01*
X8892316Y-16618960D02*
X8892316Y-16657055D01*
X9187554Y-16895150D02*
X9178030Y-16885627D01*
X9178030Y-16885627D02*
X9158983Y-16857055D01*
X9158983Y-16857055D02*
X9149459Y-16838008D01*
X9149459Y-16838008D02*
X9139935Y-16809436D01*
X9139935Y-16809436D02*
X9130411Y-16761817D01*
X9130411Y-16761817D02*
X9130411Y-16723722D01*
X9130411Y-16723722D02*
X9139935Y-16676103D01*
X9139935Y-16676103D02*
X9149459Y-16647531D01*
X9149459Y-16647531D02*
X9158983Y-16628484D01*
X9158983Y-16628484D02*
X9178030Y-16599912D01*
X9178030Y-16599912D02*
X9187554Y-16590388D01*
X9254221Y-16638008D02*
X9263744Y-16628484D01*
X9263744Y-16628484D02*
X9282792Y-16618960D01*
X9282792Y-16618960D02*
X9330411Y-16618960D01*
X9330411Y-16618960D02*
X9349459Y-16628484D01*
X9349459Y-16628484D02*
X9358983Y-16638008D01*
X9358983Y-16638008D02*
X9368506Y-16657055D01*
X9368506Y-16657055D02*
X9368506Y-16676103D01*
X9368506Y-16676103D02*
X9358983Y-16704674D01*
X9358983Y-16704674D02*
X9244697Y-16818960D01*
X9244697Y-16818960D02*
X9368506Y-16818960D01*
X9606602Y-16818960D02*
X9606602Y-16618960D01*
X9692316Y-16818960D02*
X9692316Y-16714198D01*
X9692316Y-16714198D02*
X9682792Y-16695150D01*
X9682792Y-16695150D02*
X9663745Y-16685627D01*
X9663745Y-16685627D02*
X9635173Y-16685627D01*
X9635173Y-16685627D02*
X9616125Y-16695150D01*
X9616125Y-16695150D02*
X9606602Y-16704674D01*
X9816125Y-16818960D02*
X9797078Y-16809436D01*
X9797078Y-16809436D02*
X9787554Y-16799912D01*
X9787554Y-16799912D02*
X9778030Y-16780865D01*
X9778030Y-16780865D02*
X9778030Y-16723722D01*
X9778030Y-16723722D02*
X9787554Y-16704674D01*
X9787554Y-16704674D02*
X9797078Y-16695150D01*
X9797078Y-16695150D02*
X9816125Y-16685627D01*
X9816125Y-16685627D02*
X9844697Y-16685627D01*
X9844697Y-16685627D02*
X9863745Y-16695150D01*
X9863745Y-16695150D02*
X9873268Y-16704674D01*
X9873268Y-16704674D02*
X9882792Y-16723722D01*
X9882792Y-16723722D02*
X9882792Y-16780865D01*
X9882792Y-16780865D02*
X9873268Y-16799912D01*
X9873268Y-16799912D02*
X9863745Y-16809436D01*
X9863745Y-16809436D02*
X9844697Y-16818960D01*
X9844697Y-16818960D02*
X9816125Y-16818960D01*
X9997078Y-16818960D02*
X9978030Y-16809436D01*
X9978030Y-16809436D02*
X9968506Y-16790389D01*
X9968506Y-16790389D02*
X9968506Y-16618960D01*
X10149459Y-16809436D02*
X10130411Y-16818960D01*
X10130411Y-16818960D02*
X10092316Y-16818960D01*
X10092316Y-16818960D02*
X10073268Y-16809436D01*
X10073268Y-16809436D02*
X10063745Y-16790389D01*
X10063745Y-16790389D02*
X10063745Y-16714198D01*
X10063745Y-16714198D02*
X10073268Y-16695150D01*
X10073268Y-16695150D02*
X10092316Y-16685627D01*
X10092316Y-16685627D02*
X10130411Y-16685627D01*
X10130411Y-16685627D02*
X10149459Y-16695150D01*
X10149459Y-16695150D02*
X10158983Y-16714198D01*
X10158983Y-16714198D02*
X10158983Y-16733246D01*
X10158983Y-16733246D02*
X10063745Y-16752293D01*
X10235173Y-16809436D02*
X10254221Y-16818960D01*
X10254221Y-16818960D02*
X10292316Y-16818960D01*
X10292316Y-16818960D02*
X10311364Y-16809436D01*
X10311364Y-16809436D02*
X10320887Y-16790389D01*
X10320887Y-16790389D02*
X10320887Y-16780865D01*
X10320887Y-16780865D02*
X10311364Y-16761817D01*
X10311364Y-16761817D02*
X10292316Y-16752293D01*
X10292316Y-16752293D02*
X10263745Y-16752293D01*
X10263745Y-16752293D02*
X10244697Y-16742769D01*
X10244697Y-16742769D02*
X10235173Y-16723722D01*
X10235173Y-16723722D02*
X10235173Y-16714198D01*
X10235173Y-16714198D02*
X10244697Y-16695150D01*
X10244697Y-16695150D02*
X10263745Y-16685627D01*
X10263745Y-16685627D02*
X10292316Y-16685627D01*
X10292316Y-16685627D02*
X10311364Y-16695150D01*
X10387554Y-16895150D02*
X10397078Y-16885627D01*
X10397078Y-16885627D02*
X10416126Y-16857055D01*
X10416126Y-16857055D02*
X10425649Y-16838008D01*
X10425649Y-16838008D02*
X10435173Y-16809436D01*
X10435173Y-16809436D02*
X10444697Y-16761817D01*
X10444697Y-16761817D02*
X10444697Y-16723722D01*
X10444697Y-16723722D02*
X10435173Y-16676103D01*
X10435173Y-16676103D02*
X10425649Y-16647531D01*
X10425649Y-16647531D02*
X10416126Y-16628484D01*
X10416126Y-16628484D02*
X10397078Y-16599912D01*
X10397078Y-16599912D02*
X10387554Y-16590388D01*
M02*
