M48
; DRILL file {KiCad 9.0.3} date 2026-03-12T19:41:21-0500
; FORMAT={-:-/ absolute / metric / decimal}
; #@! TF.CreationDate,2026-03-12T19:41:21-05:00
; #@! TF.GenerationSoftware,Kicad,Pcbnew,9.0.3
; #@! TF.FileFunction,Plated,1,2,PTH
FMAT,2
METRIC
; #@! TA.AperFunction,Plated,PTH,ComponentDrill
T1C1.000
; #@! TA.AperFunction,Plated,PTH,ComponentDrill
T2C2.500
; #@! TA.AperFunction,Plated,PTH,ComponentDrill
T3C2.700
; #@! TA.AperFunction,Plated,PTH,ComponentDrill
T4C4.500
%
G90
G05
T1
X76.72Y-69.06
X79.26Y-69.06
X81.8Y-69.06
X82.11Y-82.903
X84.34Y-69.06
X85.61Y-82.903
X86.88Y-69.06
X86.985Y-54.66
X89.11Y-82.903
X89.42Y-69.06
X89.525Y-54.66
X91.96Y-69.06
X92.065Y-54.66
X94.5Y-69.06
X94.605Y-54.66
T2
X75.45Y-84.3
X95.77Y-84.3
T3
X76.4Y-128.5
X76.4Y-133.5
X94.95Y-101.2
X95.15Y-122.133
X99.95Y-101.2
X100.15Y-122.133
X109.55Y-69.8
X109.55Y-132.6
X109.6Y-90.733
X109.6Y-111.667
X114.55Y-69.8
X114.55Y-132.6
X114.6Y-90.733
X114.6Y-111.667
T4
X76.4Y-107.35
X76.4Y-114.55
M30
