M48
; DRILL file {KiCad 9.0.3} date 2025-11-06T13:27:55-0600
; FORMAT={-:-/ absolute / metric / decimal}
; #@! TF.CreationDate,2025-11-06T13:27:55-06:00
; #@! TF.GenerationSoftware,Kicad,Pcbnew,9.0.3
; #@! TF.FileFunction,Plated,1,2,PTH
FMAT,2
METRIC
; #@! TA.AperFunction,Plated,PTH,ComponentDrill
T1C1.000
; #@! TA.AperFunction,Plated,PTH,ComponentDrill
T2C2.500
; #@! TA.AperFunction,Plated,PTH,ComponentDrill
T3C2.700
; #@! TA.AperFunction,Plated,PTH,ComponentDrill
T4C4.500
%
G90
G05
T1
X169.135Y-45.38
X171.675Y-45.38
X174.215Y-45.38
X174.525Y-59.223
X176.755Y-45.38
X178.025Y-59.223
X179.295Y-45.38
X179.38Y-36.98
X181.525Y-59.223
X181.835Y-45.38
X181.92Y-36.98
X184.375Y-45.38
X184.46Y-36.98
X186.915Y-45.38
X187.0Y-36.98
T2
X167.865Y-60.62
X188.185Y-60.62
T3
X163.175Y-95.78
X168.175Y-95.78
X196.992Y-74.36
X196.992Y-86.0
X197.032Y-62.024
X197.032Y-98.0
X197.286Y-50.0
X197.5Y-38.0
X201.992Y-74.36
X201.992Y-86.0
X202.032Y-62.024
X202.032Y-98.0
X202.286Y-50.0
X202.5Y-38.0
T4
X163.283Y-72.194
X163.283Y-79.394
M30
