%TF.GenerationSoftware,KiCad,Pcbnew,9.0.3*%
%TF.CreationDate,2026-03-12T19:41:00-05:00*%
%TF.ProjectId,PDN Schematic,50444e20-5363-4686-956d-617469632e6b,rev?*%
%TF.SameCoordinates,Original*%
%TF.FileFunction,Copper,L1,Top*%
%TF.FilePolarity,Positive*%
%FSLAX46Y46*%
G04 Gerber Fmt 4.6, Leading zero omitted, Abs format (unit mm)*
G04 Created by KiCad (PCBNEW 9.0.3) date 2026-03-12 19:41:00*
%MOMM*%
%LPD*%
G01*
G04 APERTURE LIST*
G04 Aperture macros list*
%AMRoundRect*
0 Rectangle with rounded corners*
0 $1 Rounding radius*
0 $2 $3 $4 $5 $6 $7 $8 $9 X,Y pos of 4 corners*
0 Add a 4 corners polygon primitive as box body*
4,1,4,$2,$3,$4,$5,$6,$7,$8,$9,$2,$3,0*
0 Add four circle primitives for the rounded corners*
1,1,$1+$1,$2,$3*
1,1,$1+$1,$4,$5*
1,1,$1+$1,$6,$7*
1,1,$1+$1,$8,$9*
0 Add four rect primitives between the rounded corners*
20,1,$1+$1,$2,$3,$4,$5,0*
20,1,$1+$1,$4,$5,$6,$7,0*
20,1,$1+$1,$6,$7,$8,$9,0*
20,1,$1+$1,$8,$9,$2,$3,0*%
G04 Aperture macros list end*
%TA.AperFunction,ComponentPad*%
%ADD10RoundRect,0.760000X1.140000X1.140000X-1.140000X1.140000X-1.140000X-1.140000X1.140000X-1.140000X0*%
%TD*%
%TA.AperFunction,ComponentPad*%
%ADD11C,3.800000*%
%TD*%
%TA.AperFunction,ComponentPad*%
%ADD12RoundRect,0.760000X1.140000X-1.140000X1.140000X1.140000X-1.140000X1.140000X-1.140000X-1.140000X0*%
%TD*%
%TA.AperFunction,ComponentPad*%
%ADD13RoundRect,1.500000X1.500000X-1.500000X1.500000X1.500000X-1.500000X1.500000X-1.500000X-1.500000X0*%
%TD*%
%TA.AperFunction,ComponentPad*%
%ADD14C,6.000000*%
%TD*%
%TA.AperFunction,ComponentPad*%
%ADD15RoundRect,0.760000X-1.140000X-1.140000X1.140000X-1.140000X1.140000X1.140000X-1.140000X1.140000X0*%
%TD*%
%TA.AperFunction,ComponentPad*%
%ADD16R,1.700000X1.700000*%
%TD*%
%TA.AperFunction,ComponentPad*%
%ADD17C,1.700000*%
%TD*%
%TA.AperFunction,SMDPad,CuDef*%
%ADD18RoundRect,0.250000X0.250000X0.475000X-0.250000X0.475000X-0.250000X-0.475000X0.250000X-0.475000X0*%
%TD*%
%TA.AperFunction,ComponentPad*%
%ADD19C,2.184400*%
%TD*%
%TA.AperFunction,ComponentPad*%
%ADD20C,1.778000*%
%TD*%
%TA.AperFunction,ComponentPad*%
%ADD21C,3.200000*%
%TD*%
%TA.AperFunction,Conductor*%
%ADD22C,1.000000*%
%TD*%
%TA.AperFunction,Conductor*%
%ADD23C,0.400000*%
%TD*%
G04 APERTURE END LIST*
D10*
%TO.P,J10,1,Pin_1*%
%TO.N,GND*%
X114550000Y-69800000D03*
D11*
%TO.P,J10,2,Pin_2*%
%TO.N,VOUT*%
X109550000Y-69800000D03*
%TD*%
D12*
%TO.P,J11,1,Pin_1*%
%TO.N,GND*%
X76400000Y-133500000D03*
D11*
%TO.P,J11,2,Pin_2*%
%TO.N,+13V*%
X76400000Y-128500000D03*
%TD*%
D13*
%TO.P,J1,1,Pin_1*%
%TO.N,GND*%
X76400000Y-114550000D03*
D14*
%TO.P,J1,2,Pin_2*%
%TO.N,+13V*%
X76400000Y-107350000D03*
%TD*%
D15*
%TO.P,J9,1,Pin_1*%
%TO.N,GND*%
X94950000Y-101200000D03*
D11*
%TO.P,J9,2,Pin_2*%
%TO.N,VOUT*%
X99950000Y-101200000D03*
%TD*%
D15*
%TO.P,J8,1,Pin_1*%
%TO.N,GND*%
X95150000Y-122133334D03*
D11*
%TO.P,J8,2,Pin_2*%
%TO.N,VOUT*%
X100150000Y-122133334D03*
%TD*%
D16*
%TO.P,J4,1,Pin_1*%
%TO.N,Net-(J4-Pin_1)*%
X94604600Y-54660000D03*
D17*
%TO.P,J4,2,Pin_2*%
%TO.N,GND2*%
X92064600Y-54660000D03*
%TO.P,J4,3,Pin_3*%
%TO.N,Net-(J4-Pin_3)*%
X89524600Y-54660000D03*
%TO.P,J4,4,Pin_4*%
%TO.N,Net-(J4-Pin_4)*%
X86984600Y-54660000D03*
%TD*%
D10*
%TO.P,J3,1,Pin_1*%
%TO.N,GND*%
X114600000Y-111666667D03*
D11*
%TO.P,J3,2,Pin_2*%
%TO.N,VOUT*%
X109600000Y-111666667D03*
%TD*%
D18*
%TO.P,C1,1*%
%TO.N,VOUT*%
X86550000Y-76800000D03*
%TO.P,C1,2*%
%TO.N,+13V*%
X84650000Y-76800000D03*
%TD*%
D10*
%TO.P,J2,1,Pin_1*%
%TO.N,GND*%
X114550000Y-132600000D03*
D11*
%TO.P,J2,2,Pin_2*%
%TO.N,VOUT*%
X109550000Y-132600000D03*
%TD*%
D19*
%TO.P,U1,1,Vin+*%
%TO.N,+13V*%
X82110000Y-82903000D03*
%TO.P,U1,2,Vbus*%
%TO.N,unconnected-(U1-Vbus-Pad2)*%
X85610000Y-82903000D03*
%TO.P,U1,3,Vin-*%
%TO.N,VOUT*%
X89110000Y-82903000D03*
D20*
%TO.P,U1,4,ALRT*%
%TO.N,unconnected-(U1-ALRT-Pad4)*%
X76720000Y-69060000D03*
%TO.P,U1,5,Vin+*%
%TO.N,unconnected-(U1-Vin+-Pad5)*%
X79260000Y-69060000D03*
%TO.P,U1,6,Vin-*%
%TO.N,unconnected-(U1-Vin--Pad6)*%
X81800000Y-69060000D03*
%TO.P,U1,7,VBUS*%
%TO.N,unconnected-(U1-VBUS-Pad7)*%
X84340000Y-69060000D03*
%TO.P,U1,8,SDA*%
%TO.N,Net-(J4-Pin_4)*%
X86880000Y-69060000D03*
%TO.P,U1,9,SCL*%
%TO.N,Net-(J4-Pin_3)*%
X89420000Y-69060000D03*
%TO.P,U1,10,GND*%
%TO.N,GND2*%
X91960000Y-69060000D03*
%TO.P,U1,11,Vin*%
%TO.N,Net-(J4-Pin_1)*%
X94500000Y-69060000D03*
D21*
%TO.P,U1,P$1*%
%TO.N,N/C*%
X95770000Y-84300000D03*
X75450000Y-84300000D03*
%TD*%
D10*
%TO.P,J7,1,Pin_1*%
%TO.N,GND*%
X114600000Y-90733333D03*
D11*
%TO.P,J7,2,Pin_2*%
%TO.N,VOUT*%
X109600000Y-90733333D03*
%TD*%
D22*
%TO.N,+13V*%
X81900000Y-126800000D02*
X81900000Y-108700000D01*
X81900000Y-108700000D02*
X80550000Y-107350000D01*
X80200000Y-128500000D02*
X81900000Y-126800000D01*
X76400000Y-128500000D02*
X80200000Y-128500000D01*
X80550000Y-107350000D02*
X76400000Y-107350000D01*
D23*
%TO.N,Net-(J4-Pin_4)*%
X86900000Y-55100000D02*
X86460000Y-54660000D01*
X86880000Y-69060000D02*
X86900000Y-69040000D01*
X86900000Y-69040000D02*
X86900000Y-55100000D01*
%TO.N,Net-(J4-Pin_3)*%
X89440000Y-69040000D02*
X89440000Y-55100000D01*
X89420000Y-69060000D02*
X89440000Y-69040000D01*
X89440000Y-55100000D02*
X89000000Y-54660000D01*
%TO.N,Net-(J4-Pin_1)*%
X94500000Y-69060000D02*
X94520000Y-69040000D01*
X94520000Y-69040000D02*
X94520000Y-55100000D01*
X94520000Y-55100000D02*
X94080000Y-54660000D01*
%TO.N,GND2*%
X91980000Y-69040000D02*
X91980000Y-55100000D01*
X91980000Y-55100000D02*
X91540000Y-54660000D01*
X91960000Y-69060000D02*
X91980000Y-69040000D01*
%TO.N,VOUT*%
X89060000Y-83693000D02*
X88670000Y-83303000D01*
%TD*%
%TA.AperFunction,Conductor*%
%TO.N,+13V*%
G36*
X83804853Y-75400094D02*
G01*
X83843690Y-75403150D01*
X84024927Y-75417413D01*
X84044137Y-75420456D01*
X84254042Y-75470850D01*
X84272534Y-75476859D01*
X84434813Y-75544076D01*
X84471971Y-75559468D01*
X84489308Y-75568302D01*
X84673355Y-75681087D01*
X84689096Y-75692524D01*
X84853238Y-75832714D01*
X84866997Y-75846473D01*
X85007187Y-76010615D01*
X85018624Y-76026356D01*
X85131409Y-76210403D01*
X85140243Y-76227740D01*
X85222850Y-76427170D01*
X85228863Y-76445676D01*
X85279254Y-76655569D01*
X85282298Y-76674787D01*
X85299618Y-76894858D01*
X85300000Y-76904587D01*
X85300000Y-81238969D01*
X85280315Y-81306008D01*
X85227511Y-81351763D01*
X85214318Y-81356900D01*
X84998617Y-81426985D01*
X84998614Y-81426986D01*
X84775242Y-81540801D01*
X84572423Y-81688158D01*
X84395158Y-81865423D01*
X84247801Y-82068242D01*
X84133986Y-82291614D01*
X84133985Y-82291617D01*
X84056518Y-82530040D01*
X84017300Y-82777652D01*
X84017300Y-83028347D01*
X84056518Y-83275959D01*
X84133985Y-83514382D01*
X84133986Y-83514385D01*
X84189517Y-83623369D01*
X84247801Y-83737757D01*
X84395156Y-83940574D01*
X84572426Y-84117844D01*
X84775243Y-84265199D01*
X84884800Y-84321021D01*
X84998614Y-84379013D01*
X84998620Y-84379015D01*
X85126098Y-84420434D01*
X85214317Y-84449098D01*
X85271993Y-84488535D01*
X85299192Y-84552893D01*
X85300000Y-84567029D01*
X85300000Y-109527138D01*
X85299622Y-109536807D01*
X85282516Y-109755522D01*
X85279510Y-109774623D01*
X85229741Y-109983277D01*
X85223802Y-110001678D01*
X85142196Y-110200068D01*
X85133468Y-110217324D01*
X85022013Y-110400610D01*
X85010709Y-110416298D01*
X84872112Y-110580032D01*
X84858506Y-110593772D01*
X84696137Y-110733969D01*
X84680563Y-110745424D01*
X84570759Y-110813678D01*
X84498379Y-110858670D01*
X84481211Y-110867566D01*
X84283629Y-110951115D01*
X84265295Y-110957231D01*
X84057123Y-111009047D01*
X84038058Y-111012240D01*
X83819528Y-111031488D01*
X83809864Y-111031960D01*
X78297453Y-111086003D01*
X78269878Y-111083175D01*
X78185430Y-111064804D01*
X78185433Y-111064804D01*
X77971450Y-111049500D01*
X77971448Y-111049500D01*
X74828552Y-111049500D01*
X74828549Y-111049500D01*
X74614571Y-111064804D01*
X74614564Y-111064805D01*
X74351135Y-111122110D01*
X74325993Y-111124938D01*
X71717518Y-111150512D01*
X70519607Y-111162256D01*
X70509814Y-111161965D01*
X70288225Y-111146601D01*
X70268861Y-111143709D01*
X70057245Y-111094766D01*
X70038577Y-111088862D01*
X70024557Y-111083175D01*
X69837298Y-111007218D01*
X69819798Y-110998452D01*
X69741434Y-110951115D01*
X69633879Y-110886144D01*
X69617972Y-110874729D01*
X69452054Y-110734562D01*
X69438142Y-110720786D01*
X69296353Y-110556247D01*
X69284783Y-110540452D01*
X69170656Y-110355641D01*
X69161722Y-110338236D01*
X69078103Y-110137754D01*
X69072021Y-110119156D01*
X69043634Y-110001678D01*
X69021002Y-109908018D01*
X69017923Y-109888699D01*
X69000387Y-109667263D01*
X69000000Y-109657474D01*
X69000000Y-84162332D01*
X73349500Y-84162332D01*
X73349500Y-84437667D01*
X73349501Y-84437684D01*
X73385438Y-84710655D01*
X73385439Y-84710660D01*
X73385440Y-84710666D01*
X73385441Y-84710668D01*
X73456704Y-84976630D01*
X73562075Y-85231017D01*
X73562080Y-85231028D01*
X73644861Y-85374407D01*
X73699751Y-85469479D01*
X73699753Y-85469482D01*
X73699754Y-85469483D01*
X73867370Y-85687926D01*
X73867376Y-85687933D01*
X74062066Y-85882623D01*
X74062072Y-85882628D01*
X74280521Y-86050249D01*
X74433778Y-86138732D01*
X74518971Y-86187919D01*
X74518976Y-86187921D01*
X74518979Y-86187923D01*
X74773368Y-86293295D01*
X75039334Y-86364560D01*
X75312326Y-86400500D01*
X75312333Y-86400500D01*
X75587667Y-86400500D01*
X75587674Y-86400500D01*
X75860666Y-86364560D01*
X76126632Y-86293295D01*
X76381021Y-86187923D01*
X76619479Y-86050249D01*
X76837928Y-85882628D01*
X77032628Y-85687928D01*
X77200249Y-85469479D01*
X77337923Y-85231021D01*
X77443295Y-84976632D01*
X77514560Y-84710666D01*
X77550500Y-84437674D01*
X77550500Y-84162326D01*
X77514560Y-83889334D01*
X77443295Y-83623368D01*
X77337923Y-83368979D01*
X77337921Y-83368976D01*
X77337919Y-83368971D01*
X77284217Y-83275958D01*
X77200249Y-83130521D01*
X77032628Y-82912072D01*
X77032623Y-82912066D01*
X76837933Y-82717376D01*
X76837926Y-82717370D01*
X76619483Y-82549754D01*
X76619482Y-82549753D01*
X76619479Y-82549751D01*
X76524407Y-82494861D01*
X76381028Y-82412080D01*
X76381017Y-82412075D01*
X76126630Y-82306704D01*
X75993649Y-82271072D01*
X75860666Y-82235440D01*
X75860660Y-82235439D01*
X75860655Y-82235438D01*
X75587684Y-82199501D01*
X75587679Y-82199500D01*
X75587674Y-82199500D01*
X75312326Y-82199500D01*
X75312320Y-82199500D01*
X75312315Y-82199501D01*
X75039344Y-82235438D01*
X75039337Y-82235439D01*
X75039334Y-82235440D01*
X74983125Y-82250500D01*
X74773369Y-82306704D01*
X74518982Y-82412075D01*
X74518971Y-82412080D01*
X74280516Y-82549754D01*
X74062073Y-82717370D01*
X74062066Y-82717376D01*
X73867376Y-82912066D01*
X73867370Y-82912073D01*
X73699754Y-83130516D01*
X73562080Y-83368971D01*
X73562075Y-83368982D01*
X73456704Y-83623369D01*
X73385441Y-83889331D01*
X73385438Y-83889344D01*
X73349501Y-84162315D01*
X73349500Y-84162332D01*
X69000000Y-84162332D01*
X69000000Y-76904587D01*
X69000382Y-76894859D01*
X69017701Y-76674788D01*
X69017701Y-76674787D01*
X69020743Y-76655576D01*
X69071139Y-76445665D01*
X69077145Y-76427180D01*
X69159757Y-76227736D01*
X69168590Y-76210403D01*
X69281375Y-76026356D01*
X69292812Y-76010615D01*
X69433002Y-75846473D01*
X69446761Y-75832714D01*
X69610903Y-75692524D01*
X69626644Y-75681087D01*
X69810694Y-75568300D01*
X69828024Y-75559469D01*
X70027468Y-75476857D01*
X70045953Y-75470851D01*
X70255864Y-75420455D01*
X70275070Y-75417413D01*
X70462646Y-75402651D01*
X70495147Y-75400094D01*
X70504875Y-75399712D01*
X83795125Y-75399712D01*
X83804853Y-75400094D01*
G37*
%TD.AperFunction*%
%TD*%
%TA.AperFunction,Conductor*%
%TO.N,VOUT*%
G36*
X110808395Y-65670646D02*
G01*
X111028747Y-65687645D01*
X111047977Y-65690662D01*
X111258171Y-65740818D01*
X111276687Y-65746807D01*
X111476430Y-65829258D01*
X111493795Y-65838081D01*
X111678154Y-65950788D01*
X111693923Y-65962221D01*
X111858363Y-66102411D01*
X111872147Y-66116173D01*
X112012602Y-66280380D01*
X112024061Y-66296131D01*
X112137066Y-66480302D01*
X112145918Y-66497653D01*
X112228692Y-66697257D01*
X112234716Y-66715779D01*
X112237149Y-66725899D01*
X112285211Y-66925879D01*
X112288261Y-66945116D01*
X112305617Y-67165409D01*
X112306000Y-67175148D01*
X112306000Y-68015753D01*
X112294899Y-68067034D01*
X112215426Y-68241997D01*
X112159987Y-68462017D01*
X112149500Y-68595264D01*
X112149500Y-71004736D01*
X112159987Y-71137983D01*
X112215426Y-71358000D01*
X112294899Y-71532967D01*
X112306000Y-71584245D01*
X112306000Y-89059164D01*
X112294899Y-89110445D01*
X112265426Y-89175330D01*
X112228170Y-89323188D01*
X112209987Y-89395350D01*
X112199500Y-89528597D01*
X112199500Y-91938069D01*
X112209987Y-92071316D01*
X112265426Y-92291333D01*
X112294899Y-92356221D01*
X112306000Y-92407500D01*
X112306000Y-109992498D01*
X112294899Y-110043779D01*
X112265426Y-110108664D01*
X112209987Y-110328684D01*
X112199500Y-110461931D01*
X112199500Y-112871403D01*
X112209987Y-113004650D01*
X112265426Y-113224667D01*
X112294899Y-113289555D01*
X112306000Y-113340834D01*
X112306000Y-130815753D01*
X112294899Y-130867034D01*
X112215426Y-131041997D01*
X112159987Y-131262017D01*
X112149500Y-131395264D01*
X112149500Y-133804736D01*
X112159987Y-133937983D01*
X112215426Y-134158000D01*
X112294899Y-134332967D01*
X112306000Y-134384245D01*
X112306000Y-135546474D01*
X112305618Y-135556200D01*
X112288309Y-135776197D01*
X112285267Y-135795409D01*
X112234907Y-136005241D01*
X112228898Y-136023742D01*
X112146343Y-136223117D01*
X112137515Y-136240450D01*
X112024791Y-136424470D01*
X112013363Y-136440204D01*
X111934268Y-136532854D01*
X111873255Y-136604324D01*
X111859505Y-136618081D01*
X111789498Y-136677906D01*
X111695455Y-136758270D01*
X111679725Y-136769707D01*
X111495763Y-136882520D01*
X111478434Y-136891357D01*
X111279099Y-136974010D01*
X111260602Y-136980028D01*
X111050791Y-137030492D01*
X111031580Y-137033543D01*
X110811601Y-137050959D01*
X110801875Y-137051346D01*
X105129063Y-137054141D01*
X98889514Y-137057214D01*
X98879783Y-137056836D01*
X98659401Y-137039577D01*
X98640164Y-137036536D01*
X98429968Y-136986110D01*
X98411437Y-136980090D01*
X98211743Y-136897363D01*
X98194384Y-136888515D01*
X98010112Y-136775527D01*
X97994353Y-136764068D01*
X97830054Y-136623609D01*
X97816289Y-136609829D01*
X97676010Y-136445355D01*
X97664578Y-136429592D01*
X97551800Y-136245181D01*
X97542974Y-136227814D01*
X97460480Y-136028022D01*
X97454482Y-136009485D01*
X97453469Y-136005241D01*
X97404301Y-135799230D01*
X97401283Y-135780001D01*
X97384280Y-135559590D01*
X97383914Y-135549849D01*
X97386808Y-133804739D01*
X97403238Y-123897027D01*
X97414336Y-123845967D01*
X97484574Y-123691334D01*
X97540013Y-123471317D01*
X97550500Y-123338070D01*
X97550500Y-120928598D01*
X97540013Y-120795351D01*
X97484574Y-120575334D01*
X97420167Y-120433537D01*
X97409067Y-120382057D01*
X97456706Y-91655867D01*
X97459197Y-90153940D01*
X97459195Y-90153939D01*
X97459196Y-90153939D01*
X95961185Y-90153380D01*
X95957274Y-90153379D01*
X95957268Y-90153379D01*
X95957266Y-90153378D01*
X89061983Y-90150806D01*
X87391115Y-90150181D01*
X87381397Y-90149796D01*
X87161562Y-90132431D01*
X87142363Y-90129386D01*
X86932694Y-90079020D01*
X86914208Y-90073013D01*
X86714977Y-89990496D01*
X86697660Y-89981675D01*
X86513777Y-89869040D01*
X86498049Y-89857619D01*
X86416037Y-89787625D01*
X86334022Y-89717628D01*
X86320279Y-89703897D01*
X86180143Y-89539990D01*
X86168713Y-89524277D01*
X86055910Y-89340479D01*
X86047083Y-89323188D01*
X85964391Y-89124025D01*
X85958367Y-89105545D01*
X85907813Y-88895903D01*
X85904754Y-88876715D01*
X85887196Y-88656881D01*
X85886803Y-88647210D01*
X85881740Y-84578568D01*
X85901340Y-84511509D01*
X85954087Y-84465689D01*
X85978401Y-84458346D01*
X85978227Y-84457618D01*
X85982952Y-84456482D01*
X85982958Y-84456482D01*
X86221385Y-84379013D01*
X86444757Y-84265199D01*
X86586341Y-84162332D01*
X93669500Y-84162332D01*
X93669500Y-84437667D01*
X93669501Y-84437684D01*
X93705438Y-84710655D01*
X93705439Y-84710660D01*
X93705440Y-84710666D01*
X93705441Y-84710668D01*
X93776704Y-84976630D01*
X93882075Y-85231017D01*
X93882080Y-85231028D01*
X93964861Y-85374407D01*
X94019751Y-85469479D01*
X94019753Y-85469482D01*
X94019754Y-85469483D01*
X94187370Y-85687926D01*
X94187376Y-85687933D01*
X94382066Y-85882623D01*
X94382072Y-85882628D01*
X94600521Y-86050249D01*
X94753778Y-86138732D01*
X94838971Y-86187919D01*
X94838976Y-86187921D01*
X94838979Y-86187923D01*
X95093368Y-86293295D01*
X95359334Y-86364560D01*
X95632326Y-86400500D01*
X95632333Y-86400500D01*
X95907667Y-86400500D01*
X95907674Y-86400500D01*
X96180666Y-86364560D01*
X96446632Y-86293295D01*
X96701021Y-86187923D01*
X96939479Y-86050249D01*
X97157928Y-85882628D01*
X97352628Y-85687928D01*
X97520249Y-85469479D01*
X97657923Y-85231021D01*
X97763295Y-84976632D01*
X97834560Y-84710666D01*
X97870500Y-84437674D01*
X97870500Y-84162326D01*
X97834560Y-83889334D01*
X97763295Y-83623368D01*
X97657923Y-83368979D01*
X97657921Y-83368976D01*
X97657919Y-83368971D01*
X97604217Y-83275958D01*
X97520249Y-83130521D01*
X97352628Y-82912072D01*
X97352623Y-82912066D01*
X97157933Y-82717376D01*
X97157926Y-82717370D01*
X96939483Y-82549754D01*
X96939482Y-82549753D01*
X96939479Y-82549751D01*
X96844407Y-82494861D01*
X96701028Y-82412080D01*
X96701017Y-82412075D01*
X96446630Y-82306704D01*
X96313649Y-82271072D01*
X96180666Y-82235440D01*
X96180660Y-82235439D01*
X96180655Y-82235438D01*
X95907684Y-82199501D01*
X95907679Y-82199500D01*
X95907674Y-82199500D01*
X95632326Y-82199500D01*
X95632320Y-82199500D01*
X95632315Y-82199501D01*
X95359344Y-82235438D01*
X95359337Y-82235439D01*
X95359334Y-82235440D01*
X95303125Y-82250500D01*
X95093369Y-82306704D01*
X94838982Y-82412075D01*
X94838971Y-82412080D01*
X94600516Y-82549754D01*
X94382073Y-82717370D01*
X94382066Y-82717376D01*
X94187376Y-82912066D01*
X94187370Y-82912073D01*
X94019754Y-83130516D01*
X93882080Y-83368971D01*
X93882075Y-83368982D01*
X93776704Y-83623369D01*
X93705441Y-83889331D01*
X93705438Y-83889344D01*
X93669501Y-84162315D01*
X93669500Y-84162332D01*
X86586341Y-84162332D01*
X86647574Y-84117844D01*
X86824844Y-83940574D01*
X86972199Y-83737757D01*
X87086013Y-83514385D01*
X87163482Y-83275958D01*
X87202700Y-83028348D01*
X87202700Y-82777652D01*
X87163482Y-82530042D01*
X87086013Y-82291615D01*
X87086013Y-82291614D01*
X86972198Y-82068242D01*
X86824844Y-81865426D01*
X86647574Y-81688156D01*
X86444757Y-81540801D01*
X86221385Y-81426986D01*
X86221382Y-81426985D01*
X85982961Y-81349518D01*
X85982169Y-81349393D01*
X85981892Y-81349262D01*
X85978230Y-81348383D01*
X85978414Y-81347613D01*
X85919035Y-81319463D01*
X85882104Y-81260151D01*
X85877569Y-81227083D01*
X85872184Y-76900018D01*
X85872555Y-76890281D01*
X85889637Y-76669958D01*
X85892660Y-76650733D01*
X85942900Y-76440545D01*
X85948898Y-76422032D01*
X86031430Y-76222312D01*
X86040251Y-76204967D01*
X86153044Y-76020631D01*
X86164472Y-76004882D01*
X86304745Y-75840478D01*
X86318493Y-75826719D01*
X86482773Y-75686315D01*
X86498512Y-75674873D01*
X86682752Y-75561929D01*
X86700100Y-75553088D01*
X86899744Y-75470393D01*
X86918256Y-75464379D01*
X87128404Y-75413963D01*
X87147623Y-75410925D01*
X87367929Y-75393659D01*
X87377667Y-75393280D01*
X103650000Y-75400000D01*
X103650000Y-75399999D01*
X103650000Y-67184356D01*
X103650381Y-67174637D01*
X103650724Y-67170271D01*
X103667665Y-66954787D01*
X103670703Y-66935590D01*
X103720991Y-66725899D01*
X103726989Y-66707417D01*
X103809433Y-66508153D01*
X103818238Y-66490849D01*
X103930822Y-66306893D01*
X103942218Y-66291188D01*
X104082154Y-66127100D01*
X104095873Y-66113358D01*
X104259730Y-65973158D01*
X104275441Y-65961721D01*
X104459185Y-65848853D01*
X104476489Y-65840010D01*
X104675613Y-65757245D01*
X104694086Y-65751216D01*
X104903703Y-65700585D01*
X104922890Y-65697517D01*
X105142711Y-65679874D01*
X105152425Y-65679478D01*
X108244819Y-65674440D01*
X110798703Y-65670280D01*
X110808395Y-65670646D01*
G37*
%TD.AperFunction*%
%TD*%
M02*
