%TF.GenerationSoftware,KiCad,Pcbnew,9.0.3*%
%TF.CreationDate,2025-11-06T13:26:50-06:00*%
%TF.ProjectId,PDN Schematic,50444e20-5363-4686-956d-617469632e6b,rev?*%
%TF.SameCoordinates,Original*%
%TF.FileFunction,Copper,L1,Top*%
%TF.FilePolarity,Positive*%
%FSLAX46Y46*%
G04 Gerber Fmt 4.6, Leading zero omitted, Abs format (unit mm)*
G04 Created by KiCad (PCBNEW 9.0.3) date 2025-11-06 13:26:50*
%MOMM*%
%LPD*%
G01*
G04 APERTURE LIST*
G04 Aperture macros list*
%AMRoundRect*
0 Rectangle with rounded corners*
0 $1 Rounding radius*
0 $2 $3 $4 $5 $6 $7 $8 $9 X,Y pos of 4 corners*
0 Add a 4 corners polygon primitive as box body*
4,1,4,$2,$3,$4,$5,$6,$7,$8,$9,$2,$3,0*
0 Add four circle primitives for the rounded corners*
1,1,$1+$1,$2,$3*
1,1,$1+$1,$4,$5*
1,1,$1+$1,$6,$7*
1,1,$1+$1,$8,$9*
0 Add four rect primitives between the rounded corners*
20,1,$1+$1,$2,$3,$4,$5,0*
20,1,$1+$1,$4,$5,$6,$7,0*
20,1,$1+$1,$6,$7,$8,$9,0*
20,1,$1+$1,$8,$9,$2,$3,0*%
G04 Aperture macros list end*
%TA.AperFunction,ComponentPad*%
%ADD10RoundRect,0.760000X1.140000X1.140000X-1.140000X1.140000X-1.140000X-1.140000X1.140000X-1.140000X0*%
%TD*%
%TA.AperFunction,ComponentPad*%
%ADD11C,3.800000*%
%TD*%
%TA.AperFunction,ComponentPad*%
%ADD12RoundRect,0.760000X-1.140000X-1.140000X1.140000X-1.140000X1.140000X1.140000X-1.140000X1.140000X0*%
%TD*%
%TA.AperFunction,ComponentPad*%
%ADD13RoundRect,1.500000X1.500000X-1.500000X1.500000X1.500000X-1.500000X1.500000X-1.500000X-1.500000X0*%
%TD*%
%TA.AperFunction,ComponentPad*%
%ADD14C,6.000000*%
%TD*%
%TA.AperFunction,ComponentPad*%
%ADD15R,1.700000X1.700000*%
%TD*%
%TA.AperFunction,ComponentPad*%
%ADD16C,1.700000*%
%TD*%
%TA.AperFunction,SMDPad,CuDef*%
%ADD17RoundRect,0.250000X0.625000X-0.312500X0.625000X0.312500X-0.625000X0.312500X-0.625000X-0.312500X0*%
%TD*%
%TA.AperFunction,SMDPad,CuDef*%
%ADD18RoundRect,0.250000X0.250000X0.475000X-0.250000X0.475000X-0.250000X-0.475000X0.250000X-0.475000X0*%
%TD*%
%TA.AperFunction,ComponentPad*%
%ADD19C,2.184400*%
%TD*%
%TA.AperFunction,ComponentPad*%
%ADD20C,1.778000*%
%TD*%
%TA.AperFunction,ComponentPad*%
%ADD21C,3.200000*%
%TD*%
%TA.AperFunction,Conductor*%
%ADD22C,0.400000*%
%TD*%
G04 APERTURE END LIST*
D10*
%TO.P,J10,1,Pin_1*%
%TO.N,GND*%
X202500000Y-38000000D03*
D11*
%TO.P,J10,2,Pin_2*%
%TO.N,VOUT*%
X197500000Y-38000000D03*
%TD*%
D12*
%TO.P,J11,1,Pin_1*%
%TO.N,Net-(J11-Pin_1)*%
X163175400Y-95780000D03*
D11*
%TO.P,J11,2,Pin_2*%
%TO.N,GND*%
X168175400Y-95780000D03*
%TD*%
D13*
%TO.P,J1,1,Pin_1*%
%TO.N,+13V*%
X163283400Y-79394000D03*
D14*
%TO.P,J1,2,Pin_2*%
%TO.N,GND*%
X163283400Y-72194000D03*
%TD*%
D10*
%TO.P,J9,1,Pin_1*%
%TO.N,GND*%
X202286000Y-50000000D03*
D11*
%TO.P,J9,2,Pin_2*%
%TO.N,VOUT*%
X197286000Y-50000000D03*
%TD*%
D10*
%TO.P,J8,1,Pin_1*%
%TO.N,GND*%
X202032000Y-62024000D03*
D11*
%TO.P,J8,2,Pin_2*%
%TO.N,VOUT*%
X197032000Y-62024000D03*
%TD*%
D15*
%TO.P,J4,1,Pin_1*%
%TO.N,Net-(J4-Pin_1)*%
X187000000Y-36980000D03*
D16*
%TO.P,J4,2,Pin_2*%
%TO.N,GND2*%
X184460000Y-36980000D03*
%TO.P,J4,3,Pin_3*%
%TO.N,Net-(J4-Pin_3)*%
X181920000Y-36980000D03*
%TO.P,J4,4,Pin_4*%
%TO.N,Net-(J4-Pin_4)*%
X179380000Y-36980000D03*
%TD*%
D10*
%TO.P,J3,1,Pin_1*%
%TO.N,GND*%
X201992000Y-86000000D03*
D11*
%TO.P,J3,2,Pin_2*%
%TO.N,VOUT*%
X196992000Y-86000000D03*
%TD*%
D17*
%TO.P,R1,1*%
%TO.N,Net-(J11-Pin_1)*%
X163000000Y-88462500D03*
%TO.P,R1,2*%
%TO.N,+13V*%
X163000000Y-85537500D03*
%TD*%
D18*
%TO.P,C1,1*%
%TO.N,VOUT*%
X179625400Y-69180000D03*
%TO.P,C1,2*%
%TO.N,+13V*%
X177725400Y-69180000D03*
%TD*%
D10*
%TO.P,J2,1,Pin_1*%
%TO.N,GND*%
X202032000Y-98000000D03*
D11*
%TO.P,J2,2,Pin_2*%
%TO.N,VOUT*%
X197032000Y-98000000D03*
%TD*%
D19*
%TO.P,U1,1,Vin+*%
%TO.N,+13V*%
X174525400Y-59223000D03*
%TO.P,U1,2,Vbus*%
%TO.N,unconnected-(U1-Vbus-Pad2)*%
X178025400Y-59223000D03*
%TO.P,U1,3,Vin-*%
%TO.N,VOUT*%
X181525400Y-59223000D03*
D20*
%TO.P,U1,4,ALRT*%
%TO.N,unconnected-(U1-ALRT-Pad4)*%
X169135400Y-45380000D03*
%TO.P,U1,5,Vin+*%
%TO.N,unconnected-(U1-Vin+-Pad5)*%
X171675400Y-45380000D03*
%TO.P,U1,6,Vin-*%
%TO.N,unconnected-(U1-Vin--Pad6)*%
X174215400Y-45380000D03*
%TO.P,U1,7,VBUS*%
%TO.N,unconnected-(U1-VBUS-Pad7)*%
X176755400Y-45380000D03*
%TO.P,U1,8,SDA*%
%TO.N,Net-(J4-Pin_4)*%
X179295400Y-45380000D03*
%TO.P,U1,9,SCL*%
%TO.N,Net-(J4-Pin_3)*%
X181835400Y-45380000D03*
%TO.P,U1,10,GND*%
%TO.N,GND2*%
X184375400Y-45380000D03*
%TO.P,U1,11,Vin*%
%TO.N,Net-(J4-Pin_1)*%
X186915400Y-45380000D03*
D21*
%TO.P,U1,P$1*%
%TO.N,N/C*%
X188185400Y-60620000D03*
X167865400Y-60620000D03*
%TD*%
D10*
%TO.P,J7,1,Pin_1*%
%TO.N,GND*%
X201992000Y-74360000D03*
D11*
%TO.P,J7,2,Pin_2*%
%TO.N,VOUT*%
X196992000Y-74360000D03*
%TD*%
D22*
%TO.N,Net-(J4-Pin_4)*%
X179295400Y-37420000D02*
X178855400Y-36980000D01*
X179295400Y-45380000D02*
X179295400Y-37420000D01*
%TO.N,Net-(J4-Pin_3)*%
X181835400Y-37420000D02*
X181395400Y-36980000D01*
X181835400Y-45380000D02*
X181835400Y-37420000D01*
%TO.N,Net-(J4-Pin_1)*%
X186915400Y-45380000D02*
X186915400Y-37420000D01*
X186915400Y-37420000D02*
X186475400Y-36980000D01*
%TO.N,GND2*%
X184375400Y-37420000D02*
X183935400Y-36980000D01*
X184375400Y-45380000D02*
X184375400Y-37420000D01*
%TO.N,VOUT*%
X181475400Y-60013000D02*
X181085400Y-59623000D01*
%TO.N,Net-(J11-Pin_1)*%
X163175400Y-95780000D02*
X163175400Y-88637900D01*
X163175400Y-88637900D02*
X163000000Y-88462500D01*
%TD*%
%TA.AperFunction,Conductor*%
%TO.N,+13V*%
G36*
X177104853Y-56700094D02*
G01*
X177143690Y-56703150D01*
X177324927Y-56717413D01*
X177344137Y-56720456D01*
X177554042Y-56770850D01*
X177572534Y-56776859D01*
X177734813Y-56844076D01*
X177771971Y-56859468D01*
X177789308Y-56868302D01*
X177973355Y-56981087D01*
X177989096Y-56992524D01*
X178153238Y-57132714D01*
X178166997Y-57146473D01*
X178307187Y-57310615D01*
X178318624Y-57326356D01*
X178402408Y-57463078D01*
X178420653Y-57530523D01*
X178399537Y-57597126D01*
X178345765Y-57641740D01*
X178277283Y-57650341D01*
X178187012Y-57636043D01*
X178150748Y-57630300D01*
X177900052Y-57630300D01*
X177817515Y-57643372D01*
X177652440Y-57669518D01*
X177414017Y-57746985D01*
X177414014Y-57746986D01*
X177190642Y-57860801D01*
X176987823Y-58008158D01*
X176810558Y-58185423D01*
X176663201Y-58388242D01*
X176549386Y-58611614D01*
X176549385Y-58611617D01*
X176471918Y-58850040D01*
X176432700Y-59097652D01*
X176432700Y-59348347D01*
X176471918Y-59595959D01*
X176549385Y-59834382D01*
X176549386Y-59834385D01*
X176604917Y-59943369D01*
X176663201Y-60057757D01*
X176810556Y-60260574D01*
X176987826Y-60437844D01*
X177190643Y-60585199D01*
X177285686Y-60633626D01*
X177414014Y-60699013D01*
X177414017Y-60699014D01*
X177492592Y-60724544D01*
X177652442Y-60776482D01*
X177900052Y-60815700D01*
X177900053Y-60815700D01*
X178150747Y-60815700D01*
X178150748Y-60815700D01*
X178398358Y-60776482D01*
X178437685Y-60763703D01*
X178507522Y-60761708D01*
X178567355Y-60797788D01*
X178598184Y-60860489D01*
X178600000Y-60881635D01*
X178600000Y-64124477D01*
X178599995Y-64125579D01*
X178508010Y-74477272D01*
X178508227Y-74497272D01*
X178508526Y-74507020D01*
X178509533Y-74526992D01*
X178525079Y-74748403D01*
X178529448Y-74788102D01*
X178532355Y-74807454D01*
X178539834Y-74846642D01*
X178588910Y-75058090D01*
X178592794Y-75072260D01*
X178595589Y-75082456D01*
X178600000Y-75115233D01*
X178600000Y-85407537D01*
X178599622Y-85417206D01*
X178582516Y-85635921D01*
X178579510Y-85655022D01*
X178529741Y-85863676D01*
X178523802Y-85882077D01*
X178442196Y-86080467D01*
X178433468Y-86097723D01*
X178322013Y-86281009D01*
X178310709Y-86296697D01*
X178172112Y-86460431D01*
X178158506Y-86474171D01*
X177996137Y-86614368D01*
X177980563Y-86625823D01*
X177952379Y-86643343D01*
X177798379Y-86739069D01*
X177781211Y-86747965D01*
X177583629Y-86831514D01*
X177565295Y-86837630D01*
X177357123Y-86889446D01*
X177338058Y-86892639D01*
X177119527Y-86911887D01*
X177109863Y-86912359D01*
X159519606Y-87084812D01*
X159509813Y-87084521D01*
X159288225Y-87069158D01*
X159268861Y-87066266D01*
X159057245Y-87017323D01*
X159038577Y-87011419D01*
X158837298Y-86929775D01*
X158819798Y-86921009D01*
X158671644Y-86831514D01*
X158633879Y-86808701D01*
X158617972Y-86797286D01*
X158452054Y-86657119D01*
X158438142Y-86643343D01*
X158418632Y-86620703D01*
X158386539Y-86583460D01*
X158296353Y-86478804D01*
X158284783Y-86463009D01*
X158170656Y-86278198D01*
X158161722Y-86260793D01*
X158078103Y-86060311D01*
X158072021Y-86041713D01*
X158033447Y-85882077D01*
X158021002Y-85830575D01*
X158017923Y-85811256D01*
X158000387Y-85589820D01*
X158000000Y-85580031D01*
X158000000Y-72022034D01*
X159782900Y-72022034D01*
X159782900Y-72365965D01*
X159816610Y-72708249D01*
X159883708Y-73045572D01*
X159983550Y-73374706D01*
X160115170Y-73692464D01*
X160115172Y-73692469D01*
X160277293Y-73995775D01*
X160277304Y-73995793D01*
X160468375Y-74281751D01*
X160468385Y-74281765D01*
X160686576Y-74547632D01*
X160929767Y-74790823D01*
X160929772Y-74790827D01*
X160929773Y-74790828D01*
X161195640Y-75009019D01*
X161481613Y-75200100D01*
X161481622Y-75200105D01*
X161481624Y-75200106D01*
X161784930Y-75362227D01*
X161784932Y-75362227D01*
X161784938Y-75362231D01*
X162102695Y-75493850D01*
X162431822Y-75593690D01*
X162769150Y-75660789D01*
X163111431Y-75694500D01*
X163111434Y-75694500D01*
X163455366Y-75694500D01*
X163455369Y-75694500D01*
X163797650Y-75660789D01*
X164134978Y-75593690D01*
X164464105Y-75493850D01*
X164781862Y-75362231D01*
X165085187Y-75200100D01*
X165371160Y-75009019D01*
X165637027Y-74790828D01*
X165880228Y-74547627D01*
X166098419Y-74281760D01*
X166289500Y-73995787D01*
X166451631Y-73692462D01*
X166583250Y-73374705D01*
X166683090Y-73045578D01*
X166750189Y-72708250D01*
X166783900Y-72365969D01*
X166783900Y-72022031D01*
X166750189Y-71679750D01*
X166683090Y-71342422D01*
X166583250Y-71013295D01*
X166451631Y-70695538D01*
X166289500Y-70392213D01*
X166098419Y-70106240D01*
X165880228Y-69840373D01*
X165880227Y-69840372D01*
X165880223Y-69840367D01*
X165637032Y-69597176D01*
X165371165Y-69378985D01*
X165371164Y-69378984D01*
X165371160Y-69378981D01*
X165085187Y-69187900D01*
X165085182Y-69187897D01*
X165085175Y-69187893D01*
X164781869Y-69025772D01*
X164781864Y-69025770D01*
X164464106Y-68894150D01*
X164134972Y-68794308D01*
X163797648Y-68727210D01*
X163797649Y-68727210D01*
X163539856Y-68701821D01*
X163455369Y-68693500D01*
X163111431Y-68693500D01*
X163033366Y-68701188D01*
X162769150Y-68727210D01*
X162431827Y-68794308D01*
X162102693Y-68894150D01*
X161784935Y-69025770D01*
X161784930Y-69025772D01*
X161481624Y-69187893D01*
X161481606Y-69187904D01*
X161195648Y-69378975D01*
X161195634Y-69378985D01*
X160929767Y-69597176D01*
X160686576Y-69840367D01*
X160468385Y-70106234D01*
X160468375Y-70106248D01*
X160277304Y-70392206D01*
X160277293Y-70392224D01*
X160115172Y-70695530D01*
X160115170Y-70695535D01*
X159983550Y-71013293D01*
X159883708Y-71342427D01*
X159816610Y-71679750D01*
X159782900Y-72022034D01*
X158000000Y-72022034D01*
X158000000Y-60482332D01*
X165764900Y-60482332D01*
X165764900Y-60757667D01*
X165764901Y-60757684D01*
X165800838Y-61030655D01*
X165800839Y-61030660D01*
X165800840Y-61030666D01*
X165836472Y-61163649D01*
X165872104Y-61296630D01*
X165977475Y-61551017D01*
X165977480Y-61551028D01*
X166048432Y-61673918D01*
X166115151Y-61789479D01*
X166115153Y-61789482D01*
X166115154Y-61789483D01*
X166282770Y-62007926D01*
X166282776Y-62007933D01*
X166477466Y-62202623D01*
X166477473Y-62202629D01*
X166605803Y-62301099D01*
X166695921Y-62370249D01*
X166849178Y-62458732D01*
X166934371Y-62507919D01*
X166934376Y-62507921D01*
X166934379Y-62507923D01*
X167188768Y-62613295D01*
X167454734Y-62684560D01*
X167727726Y-62720500D01*
X167727733Y-62720500D01*
X168003067Y-62720500D01*
X168003074Y-62720500D01*
X168276066Y-62684560D01*
X168542032Y-62613295D01*
X168796421Y-62507923D01*
X169034879Y-62370249D01*
X169253328Y-62202628D01*
X169448028Y-62007928D01*
X169615649Y-61789479D01*
X169753323Y-61551021D01*
X169858695Y-61296632D01*
X169929960Y-61030666D01*
X169965900Y-60757674D01*
X169965900Y-60482326D01*
X169929960Y-60209334D01*
X169858695Y-59943368D01*
X169753323Y-59688979D01*
X169753321Y-59688976D01*
X169753319Y-59688971D01*
X169682369Y-59566084D01*
X169615649Y-59450521D01*
X169537249Y-59348347D01*
X169448029Y-59232073D01*
X169448023Y-59232066D01*
X169253333Y-59037376D01*
X169253326Y-59037370D01*
X169034883Y-58869754D01*
X169034882Y-58869753D01*
X169034879Y-58869751D01*
X168939807Y-58814861D01*
X168796428Y-58732080D01*
X168796417Y-58732075D01*
X168542030Y-58626704D01*
X168409049Y-58591072D01*
X168276066Y-58555440D01*
X168276060Y-58555439D01*
X168276055Y-58555438D01*
X168003084Y-58519501D01*
X168003079Y-58519500D01*
X168003074Y-58519500D01*
X167727726Y-58519500D01*
X167727720Y-58519500D01*
X167727715Y-58519501D01*
X167454744Y-58555438D01*
X167454737Y-58555439D01*
X167454734Y-58555440D01*
X167398525Y-58570500D01*
X167188769Y-58626704D01*
X166934382Y-58732075D01*
X166934371Y-58732080D01*
X166695916Y-58869754D01*
X166477473Y-59037370D01*
X166477466Y-59037376D01*
X166282776Y-59232066D01*
X166282770Y-59232073D01*
X166115154Y-59450516D01*
X165977480Y-59688971D01*
X165977475Y-59688982D01*
X165872104Y-59943369D01*
X165800841Y-60209331D01*
X165800838Y-60209344D01*
X165764901Y-60482315D01*
X165764900Y-60482332D01*
X158000000Y-60482332D01*
X158000000Y-58204587D01*
X158000382Y-58194859D01*
X158017701Y-57974788D01*
X158020743Y-57955576D01*
X158071139Y-57745665D01*
X158077145Y-57727180D01*
X158159757Y-57527736D01*
X158168590Y-57510403D01*
X158281375Y-57326356D01*
X158292812Y-57310615D01*
X158433002Y-57146473D01*
X158446761Y-57132714D01*
X158610903Y-56992524D01*
X158626644Y-56981087D01*
X158810694Y-56868300D01*
X158828024Y-56859469D01*
X159027468Y-56776857D01*
X159045953Y-56770851D01*
X159255864Y-56720455D01*
X159275070Y-56717413D01*
X159462646Y-56702651D01*
X159495147Y-56700094D01*
X159504875Y-56699712D01*
X177095125Y-56699712D01*
X177104853Y-56700094D01*
G37*
%TD.AperFunction*%
%TD*%
%TA.AperFunction,Conductor*%
%TO.N,VOUT*%
G36*
X198373888Y-32974143D02*
G01*
X198597768Y-32986486D01*
X198617346Y-32989142D01*
X198831572Y-33035840D01*
X198850471Y-33041571D01*
X199054549Y-33121707D01*
X199072308Y-33130372D01*
X199261062Y-33241913D01*
X199277221Y-33253291D01*
X199445856Y-33393402D01*
X199460002Y-33407203D01*
X199604232Y-33572321D01*
X199616007Y-33588195D01*
X199732174Y-33774136D01*
X199741276Y-33791677D01*
X199826428Y-33993713D01*
X199832628Y-34012480D01*
X199884597Y-34225471D01*
X199887737Y-34244982D01*
X199905606Y-34468485D01*
X199906000Y-34478367D01*
X199906000Y-48606895D01*
X199902242Y-48637191D01*
X199895987Y-48662013D01*
X199895987Y-48662014D01*
X199885500Y-48795260D01*
X199885500Y-51204739D01*
X199895987Y-51337985D01*
X199902241Y-51362801D01*
X199906000Y-51393101D01*
X199906000Y-60055043D01*
X199886315Y-60122082D01*
X199883928Y-60125659D01*
X199791263Y-60259410D01*
X199791258Y-60259420D01*
X199697426Y-60465997D01*
X199641987Y-60686017D01*
X199631500Y-60819260D01*
X199631500Y-63228739D01*
X199641987Y-63361982D01*
X199697426Y-63582002D01*
X199791257Y-63788577D01*
X199791259Y-63788580D01*
X199791260Y-63788582D01*
X199883929Y-63922341D01*
X199905925Y-63988655D01*
X199906000Y-63992955D01*
X199906000Y-72333376D01*
X199886315Y-72400415D01*
X199883509Y-72404239D01*
X199883644Y-72404333D01*
X199751263Y-72595410D01*
X199751258Y-72595420D01*
X199657426Y-72801997D01*
X199601987Y-73022017D01*
X199591500Y-73155264D01*
X199591500Y-75564736D01*
X199601987Y-75697983D01*
X199620466Y-75771322D01*
X199657426Y-75918002D01*
X199751258Y-76124579D01*
X199751263Y-76124589D01*
X199883644Y-76315667D01*
X199881521Y-76317137D01*
X199905037Y-76371201D01*
X199906000Y-76386623D01*
X199906000Y-83973376D01*
X199886315Y-84040415D01*
X199883509Y-84044239D01*
X199883644Y-84044333D01*
X199751263Y-84235410D01*
X199751258Y-84235420D01*
X199657426Y-84441997D01*
X199601987Y-84662017D01*
X199591500Y-84795260D01*
X199591500Y-87204739D01*
X199601987Y-87337982D01*
X199657426Y-87558002D01*
X199751258Y-87764579D01*
X199751263Y-87764589D01*
X199883644Y-87955667D01*
X199881521Y-87957137D01*
X199905037Y-88011201D01*
X199906000Y-88026623D01*
X199906000Y-96031043D01*
X199886315Y-96098082D01*
X199883928Y-96101659D01*
X199791263Y-96235410D01*
X199791258Y-96235420D01*
X199697426Y-96441997D01*
X199641987Y-96662017D01*
X199631500Y-96795260D01*
X199631500Y-99204739D01*
X199641987Y-99337982D01*
X199697426Y-99558002D01*
X199791257Y-99764577D01*
X199791259Y-99764580D01*
X199791260Y-99764582D01*
X199883929Y-99898341D01*
X199905925Y-99964655D01*
X199906000Y-99968955D01*
X199906000Y-100387782D01*
X199905618Y-100397510D01*
X199905618Y-100397511D01*
X199888298Y-100617582D01*
X199885254Y-100636800D01*
X199834863Y-100846693D01*
X199828850Y-100865199D01*
X199746243Y-101064629D01*
X199737409Y-101081966D01*
X199624624Y-101266013D01*
X199613187Y-101281754D01*
X199472997Y-101445896D01*
X199459238Y-101459655D01*
X199295096Y-101599845D01*
X199279355Y-101611282D01*
X199095308Y-101724067D01*
X199077971Y-101732901D01*
X198878541Y-101815508D01*
X198860035Y-101821521D01*
X198650142Y-101871912D01*
X198630924Y-101874956D01*
X198410854Y-101892276D01*
X198401125Y-101892658D01*
X193504875Y-101892658D01*
X193495146Y-101892276D01*
X193275075Y-101874956D01*
X193255857Y-101871912D01*
X193045964Y-101821521D01*
X193027458Y-101815508D01*
X192828028Y-101732901D01*
X192810691Y-101724067D01*
X192626644Y-101611282D01*
X192610903Y-101599845D01*
X192446761Y-101459655D01*
X192433002Y-101445896D01*
X192292812Y-101281754D01*
X192281375Y-101266013D01*
X192168590Y-101081966D01*
X192159756Y-101064629D01*
X192144364Y-101027471D01*
X192077147Y-100865192D01*
X192071138Y-100846700D01*
X192020744Y-100636795D01*
X192017701Y-100617581D01*
X192000382Y-100397510D01*
X192000000Y-100387782D01*
X192000000Y-76000000D01*
X190500000Y-76000000D01*
X180518283Y-76000000D01*
X180508499Y-75999613D01*
X180287205Y-75982097D01*
X180267882Y-75979019D01*
X180056867Y-75928062D01*
X180038267Y-75921982D01*
X179837903Y-75838467D01*
X179820494Y-75829538D01*
X179752929Y-75787845D01*
X179635756Y-75715538D01*
X179619967Y-75703981D01*
X179455463Y-75562340D01*
X179441689Y-75548442D01*
X179301516Y-75382689D01*
X179290101Y-75366802D01*
X179177747Y-75181055D01*
X179168976Y-75163575D01*
X179087234Y-74962453D01*
X179081325Y-74943815D01*
X179032244Y-74732348D01*
X179029339Y-74713011D01*
X179013789Y-74491551D01*
X179013490Y-74481788D01*
X179137889Y-60482332D01*
X186084900Y-60482332D01*
X186084900Y-60757667D01*
X186084901Y-60757684D01*
X186120838Y-61030655D01*
X186120839Y-61030660D01*
X186120840Y-61030666D01*
X186120841Y-61030668D01*
X186192104Y-61296630D01*
X186297475Y-61551017D01*
X186297480Y-61551028D01*
X186380261Y-61694407D01*
X186435151Y-61789479D01*
X186435153Y-61789482D01*
X186435154Y-61789483D01*
X186602770Y-62007926D01*
X186602776Y-62007933D01*
X186797466Y-62202623D01*
X186797472Y-62202628D01*
X187015921Y-62370249D01*
X187169178Y-62458732D01*
X187254371Y-62507919D01*
X187254376Y-62507921D01*
X187254379Y-62507923D01*
X187508768Y-62613295D01*
X187774734Y-62684560D01*
X188047726Y-62720500D01*
X188047733Y-62720500D01*
X188323067Y-62720500D01*
X188323074Y-62720500D01*
X188596066Y-62684560D01*
X188862032Y-62613295D01*
X189116421Y-62507923D01*
X189354879Y-62370249D01*
X189573328Y-62202628D01*
X189768028Y-62007928D01*
X189935649Y-61789479D01*
X190073323Y-61551021D01*
X190178695Y-61296632D01*
X190249960Y-61030666D01*
X190285900Y-60757674D01*
X190285900Y-60482326D01*
X190249960Y-60209334D01*
X190178695Y-59943368D01*
X190073323Y-59688979D01*
X190073321Y-59688976D01*
X190073319Y-59688971D01*
X190019617Y-59595958D01*
X189935649Y-59450521D01*
X189768028Y-59232072D01*
X189768023Y-59232066D01*
X189573333Y-59037376D01*
X189573326Y-59037370D01*
X189354883Y-58869754D01*
X189354882Y-58869753D01*
X189354879Y-58869751D01*
X189259807Y-58814861D01*
X189116428Y-58732080D01*
X189116417Y-58732075D01*
X188862030Y-58626704D01*
X188729049Y-58591072D01*
X188596066Y-58555440D01*
X188596060Y-58555439D01*
X188596055Y-58555438D01*
X188323084Y-58519501D01*
X188323079Y-58519500D01*
X188323074Y-58519500D01*
X188047726Y-58519500D01*
X188047720Y-58519500D01*
X188047715Y-58519501D01*
X187774744Y-58555438D01*
X187774737Y-58555439D01*
X187774734Y-58555440D01*
X187718525Y-58570500D01*
X187508769Y-58626704D01*
X187254382Y-58732075D01*
X187254371Y-58732080D01*
X187015916Y-58869754D01*
X186797473Y-59037370D01*
X186797466Y-59037376D01*
X186602776Y-59232066D01*
X186602770Y-59232073D01*
X186435154Y-59450516D01*
X186297480Y-59688971D01*
X186297475Y-59688982D01*
X186192104Y-59943369D01*
X186120841Y-60209331D01*
X186120838Y-60209344D01*
X186084901Y-60482315D01*
X186084900Y-60482332D01*
X179137889Y-60482332D01*
X179138509Y-60412570D01*
X179158787Y-60345713D01*
X179174817Y-60326000D01*
X179240244Y-60260574D01*
X179387599Y-60057757D01*
X179501413Y-59834385D01*
X179578882Y-59595958D01*
X179618100Y-59348348D01*
X179618100Y-59097652D01*
X179578882Y-58850042D01*
X179501413Y-58611615D01*
X179501413Y-58611614D01*
X179387598Y-58388242D01*
X179240244Y-58185426D01*
X179195797Y-58140979D01*
X179162312Y-58079656D01*
X179159483Y-58052200D01*
X179186746Y-54984148D01*
X179187207Y-54974528D01*
X179206280Y-54755820D01*
X179209454Y-54736763D01*
X179261142Y-54528409D01*
X179267247Y-54510067D01*
X179350710Y-54312307D01*
X179359595Y-54295134D01*
X179472810Y-54112757D01*
X179484253Y-54097183D01*
X179624460Y-53934637D01*
X179638187Y-53921031D01*
X179801973Y-53782273D01*
X179817657Y-53770964D01*
X179881044Y-53732390D01*
X180001026Y-53659378D01*
X180018276Y-53650647D01*
X180216780Y-53568940D01*
X180235169Y-53563001D01*
X180443957Y-53513170D01*
X180463063Y-53510161D01*
X180681900Y-53493036D01*
X180691574Y-53492658D01*
X190781818Y-53492658D01*
X191273086Y-34578845D01*
X191273796Y-34568445D01*
X191299950Y-34332545D01*
X191304001Y-34312025D01*
X191367985Y-34088948D01*
X191375421Y-34069417D01*
X191475995Y-33860265D01*
X191486608Y-33842261D01*
X191620914Y-33652989D01*
X191634400Y-33637028D01*
X191798611Y-33473025D01*
X191814599Y-33459551D01*
X192004035Y-33325491D01*
X192022050Y-33314902D01*
X192174332Y-33241913D01*
X192231327Y-33214595D01*
X192250886Y-33207177D01*
X192474037Y-33143479D01*
X192494546Y-33139457D01*
X192730479Y-33113603D01*
X192740897Y-33112904D01*
X198364013Y-32973994D01*
X198373888Y-32974143D01*
G37*
%TD.AperFunction*%
%TD*%
M02*
