G04 #@! TF.GenerationSoftware,KiCad,Pcbnew,9.0.3*
G04 #@! TF.CreationDate,2025-11-21T02:37:49-06:00*
G04 #@! TF.ProjectId,GSECPM,47534543-504d-42e6-9b69-6361645f7063,rev?*
G04 #@! TF.SameCoordinates,Original*
G04 #@! TF.FileFunction,Soldermask,Bot*
G04 #@! TF.FilePolarity,Negative*
%FSLAX46Y46*%
G04 Gerber Fmt 4.6, Leading zero omitted, Abs format (unit mm)*
G04 Created by KiCad (PCBNEW 9.0.3) date 2025-11-21 02:37:49*
%MOMM*%
%LPD*%
G01*
G04 APERTURE LIST*
G04 Aperture macros list*
%AMRoundRect*
0 Rectangle with rounded corners*
0 $1 Rounding radius*
0 $2 $3 $4 $5 $6 $7 $8 $9 X,Y pos of 4 corners*
0 Add a 4 corners polygon primitive as box body*
4,1,4,$2,$3,$4,$5,$6,$7,$8,$9,$2,$3,0*
0 Add four circle primitives for the rounded corners*
1,1,$1+$1,$2,$3*
1,1,$1+$1,$4,$5*
1,1,$1+$1,$6,$7*
1,1,$1+$1,$8,$9*
0 Add four rect primitives between the rounded corners*
20,1,$1+$1,$2,$3,$4,$5,0*
20,1,$1+$1,$4,$5,$6,$7,0*
20,1,$1+$1,$6,$7,$8,$9,0*
20,1,$1+$1,$8,$9,$2,$3,0*%
%AMFreePoly0*
4,1,37,0.603843,0.796157,0.639018,0.796157,0.711114,0.766294,0.766294,0.711114,0.796157,0.639018,0.796157,0.603843,0.800000,0.600000,0.800000,-0.600000,0.796157,-0.603843,0.796157,-0.639018,0.766294,-0.711114,0.711114,-0.766294,0.639018,-0.796157,0.603843,-0.796157,0.600000,-0.800000,0.000000,-0.800000,0.000000,-0.796148,-0.078414,-0.796148,-0.232228,-0.765552,-0.377117,-0.705537,
-0.507515,-0.618408,-0.618408,-0.507515,-0.705537,-0.377117,-0.765552,-0.232228,-0.796148,-0.078414,-0.796148,0.078414,-0.765552,0.232228,-0.705537,0.377117,-0.618408,0.507515,-0.507515,0.618408,-0.377117,0.705537,-0.232228,0.765552,-0.078414,0.796148,0.000000,0.796148,0.000000,0.800000,0.600000,0.800000,0.603843,0.796157,0.603843,0.796157,$1*%
%AMFreePoly1*
4,1,37,0.000000,0.796148,0.078414,0.796148,0.232228,0.765552,0.377117,0.705537,0.507515,0.618408,0.618408,0.507515,0.705537,0.377117,0.765552,0.232228,0.796148,0.078414,0.796148,-0.078414,0.765552,-0.232228,0.705537,-0.377117,0.618408,-0.507515,0.507515,-0.618408,0.377117,-0.705537,0.232228,-0.765552,0.078414,-0.796148,0.000000,-0.796148,0.000000,-0.800000,-0.600000,-0.800000,
-0.603843,-0.796157,-0.639018,-0.796157,-0.711114,-0.766294,-0.766294,-0.711114,-0.796157,-0.639018,-0.796157,-0.603843,-0.800000,-0.600000,-0.800000,0.600000,-0.796157,0.603843,-0.796157,0.639018,-0.766294,0.711114,-0.711114,0.766294,-0.639018,0.796157,-0.603843,0.796157,-0.600000,0.800000,0.000000,0.800000,0.000000,0.796148,0.000000,0.796148,$1*%
G04 Aperture macros list end*
%ADD10R,1.700000X1.700000*%
%ADD11C,1.700000*%
%ADD12RoundRect,0.250000X-0.750000X0.750000X-0.750000X-0.750000X0.750000X-0.750000X0.750000X0.750000X0*%
%ADD13C,2.000000*%
%ADD14RoundRect,0.760000X-1.140000X1.140000X-1.140000X-1.140000X1.140000X-1.140000X1.140000X1.140000X0*%
%ADD15C,3.800000*%
%ADD16C,3.200000*%
%ADD17RoundRect,0.249999X0.850001X-0.850001X0.850001X0.850001X-0.850001X0.850001X-0.850001X-0.850001X0*%
%ADD18C,2.200000*%
%ADD19RoundRect,0.102000X0.600000X-0.600000X0.600000X0.600000X-0.600000X0.600000X-0.600000X-0.600000X0*%
%ADD20C,1.404000*%
%ADD21RoundRect,0.249999X-0.850001X0.850001X-0.850001X-0.850001X0.850001X-0.850001X0.850001X0.850001X0*%
%ADD22RoundRect,0.200000X-0.600000X-0.600000X0.600000X-0.600000X0.600000X0.600000X-0.600000X0.600000X0*%
%ADD23C,1.600000*%
%ADD24FreePoly0,0.000000*%
%ADD25FreePoly1,0.000000*%
G04 APERTURE END LIST*
D10*
X134800000Y-53990000D03*
D11*
X134800000Y-56530000D03*
X134800000Y-59070000D03*
X134800000Y-61610000D03*
D12*
X69645000Y-115400000D03*
D13*
X69645000Y-117940000D03*
D10*
X214645000Y-94370000D03*
D11*
X212105000Y-94370000D03*
X209565000Y-94370000D03*
D14*
X191200000Y-44900000D03*
D15*
X191200000Y-49900000D03*
D16*
X81350000Y-132350000D03*
X67045000Y-42670000D03*
D12*
X69645000Y-83600000D03*
D13*
X69645000Y-86140000D03*
X69645000Y-88679999D03*
D12*
X214632500Y-75410000D03*
D13*
X214632500Y-77950000D03*
X214632500Y-80490000D03*
D16*
X209780000Y-46625000D03*
D12*
X214632500Y-60255000D03*
D13*
X214632500Y-62795000D03*
X214632500Y-65335000D03*
D12*
X69645000Y-95035000D03*
D13*
X69645000Y-97575000D03*
X69645000Y-100115000D03*
D12*
X69645000Y-124200000D03*
D13*
X69645000Y-126740000D03*
D16*
X179245000Y-132470000D03*
D17*
X175650000Y-70830000D03*
D18*
X175650000Y-60670000D03*
D19*
X175945000Y-50170000D03*
D20*
X175945000Y-45170000D03*
D10*
X214645000Y-106270000D03*
D11*
X212105000Y-106270000D03*
X209565000Y-106270000D03*
D10*
X214585000Y-130070000D03*
D11*
X212045000Y-130070000D03*
X209505000Y-130070000D03*
D12*
X69645000Y-60730000D03*
D13*
X69645000Y-63270000D03*
X69645000Y-65810000D03*
D21*
X161750000Y-55090000D03*
D18*
X161750000Y-65250000D03*
X102350000Y-127632500D03*
X126050000Y-77932500D03*
X126050000Y-128032500D03*
D10*
X95350000Y-77407500D03*
D11*
X95350000Y-79947500D03*
X95350000Y-82487500D03*
X95350000Y-85027500D03*
X95350000Y-87567500D03*
X95350000Y-90107500D03*
X95350000Y-92647500D03*
X95350000Y-95187500D03*
X95350000Y-97727500D03*
X95350000Y-100267500D03*
X95350000Y-102807500D03*
X95350000Y-105347500D03*
X95350000Y-107887500D03*
X95350000Y-110427500D03*
X95350000Y-112967500D03*
X95350000Y-115507500D03*
X95350000Y-118047500D03*
X95350000Y-120587500D03*
X95350000Y-123127500D03*
X95350000Y-125667500D03*
D10*
X125850000Y-97732500D03*
D11*
X125850000Y-100272500D03*
X125850000Y-102812500D03*
X125850000Y-105352500D03*
X125850000Y-107892500D03*
X125850000Y-110432500D03*
X125850000Y-112972500D03*
X125850000Y-115512500D03*
X125850000Y-118052500D03*
X125850000Y-120592500D03*
D10*
X146150000Y-54030000D03*
D11*
X146150000Y-56570000D03*
X146150000Y-59110000D03*
X146150000Y-61650000D03*
D12*
X69645000Y-72165000D03*
D13*
X69645000Y-74705000D03*
X69645000Y-77244999D03*
D10*
X214585000Y-118170000D03*
D11*
X212045000Y-118170000D03*
X209505000Y-118170000D03*
D22*
X148255000Y-73840000D03*
D23*
X148255000Y-76380000D03*
D24*
X148255000Y-78920000D03*
D23*
X148255000Y-81460000D03*
X148255000Y-84000000D03*
X148255000Y-86540000D03*
X148255000Y-89080000D03*
D24*
X148255000Y-91620000D03*
D23*
X148255000Y-94160000D03*
X148255000Y-96700000D03*
X148255000Y-99240000D03*
X148255000Y-101780000D03*
D24*
X148255000Y-104320000D03*
D23*
X148255000Y-106860000D03*
X148255000Y-109400000D03*
X148255000Y-111940000D03*
X148255000Y-114480000D03*
D24*
X148255000Y-117020000D03*
D23*
X148255000Y-119560000D03*
X148255000Y-122100000D03*
X166035000Y-122100000D03*
X166035000Y-119560000D03*
D25*
X166035000Y-117020000D03*
D23*
X166035000Y-114480000D03*
X166035000Y-111940000D03*
X166035000Y-109400000D03*
X166035000Y-106860000D03*
D25*
X166035000Y-104320000D03*
D23*
X166035000Y-101780000D03*
X166035000Y-99240000D03*
X166035000Y-96700000D03*
X166035000Y-94160000D03*
D25*
X166035000Y-91620000D03*
D23*
X166035000Y-89080000D03*
X166035000Y-86540000D03*
X166035000Y-84000000D03*
X166035000Y-81460000D03*
D25*
X166035000Y-78920000D03*
D23*
X166035000Y-76380000D03*
X166035000Y-73840000D03*
D12*
X69645000Y-106460000D03*
D13*
X69645000Y-109000000D03*
M02*
