M48
; DRILL file {KiCad 9.0.3} date 2025-11-21T02:37:54-0600
; FORMAT={-:-/ absolute / metric / decimal}
; #@! TF.CreationDate,2025-11-21T02:37:54-06:00
; #@! TF.GenerationSoftware,Kicad,Pcbnew,9.0.3
; #@! TF.FileFunction,Plated,1,2,PTH
FMAT,2
METRIC
; #@! TA.AperFunction,Plated,PTH,ViaDrill
T1C0.300
; #@! TA.AperFunction,Plated,PTH,ComponentDrill
T2C0.300
; #@! TA.AperFunction,Plated,PTH,ViaDrill
T3C0.400
; #@! TA.AperFunction,Plated,PTH,ComponentDrill
T4C0.850
; #@! TA.AperFunction,Plated,PTH,ComponentDrill
T5C1.000
; #@! TA.AperFunction,Plated,PTH,ComponentDrill
T6C1.100
; #@! TA.AperFunction,Plated,PTH,ComponentDrill
T7C1.200
; #@! TA.AperFunction,Plated,PTH,ComponentDrill
T8C2.700
%
G90
G05
T1
X79.3Y-101.75
X83.6Y-96.25
X86.5Y-102.75
X88.6Y-90.6
X104.95Y-91.35
X107.75Y-86.45
X139.4Y-61.3
X139.6Y-72.8
X139.8Y-67.1
X140.9Y-77.1
X143.6Y-79.8
T2
X109.0Y-43.65
X109.0Y-44.95
X109.0Y-46.25
X109.0Y-47.55
X110.3Y-43.65
X110.3Y-44.95
X110.3Y-46.25
X110.3Y-47.55
T3
X57.5Y-67.95
X57.55Y-59.15
X57.6Y-77.3
X57.9Y-87.8
X58.75Y-129.3
X58.95Y-120.7
X59.0Y-93.65
X59.05Y-112.3
X59.1Y-103.2
X60.0Y-49.1
X61.1Y-36.4
X62.15Y-102.9
X62.45Y-111.0
X62.75Y-93.6
X63.05Y-134.2
X67.25Y-138.6
X70.3Y-134.05
X73.1Y-36.7
X73.45Y-42.5
X79.55Y-138.5
X88.3Y-99.2
X88.35Y-32.35
X92.1Y-52.95
X92.3Y-50.25
X92.3Y-56.45
X92.4Y-45.0
X92.5Y-47.5
X93.5Y-136.95
X94.45Y-58.25
X94.7Y-43.4
X97.4Y-45.2
X97.6Y-41.6
X97.6Y-59.05
X97.6Y-83.1
X98.3Y-69.2
X99.95Y-43.55
X101.5Y-59.15
X103.1Y-139.15
X103.3Y-69.2
X103.3Y-74.2
X103.3Y-79.2
X103.3Y-84.2
X103.3Y-109.2
X103.3Y-114.2
X103.3Y-119.2
X104.15Y-50.75
X106.2Y-59.15
X107.0Y-49.9
X107.2Y-32.35
X108.3Y-69.2
X108.3Y-74.2
X108.3Y-79.2
X108.3Y-109.2
X108.3Y-114.2
X108.3Y-119.2
X108.3Y-124.2
X108.3Y-129.2
X108.75Y-99.75
X109.5Y-50.65
X111.05Y-39.05
X112.2Y-40.95
X112.3Y-49.85
X113.3Y-69.2
X113.3Y-74.2
X113.3Y-104.2
X113.3Y-109.2
X113.3Y-114.2
X113.3Y-119.2
X113.3Y-124.2
X113.3Y-129.2
X113.75Y-95.0
X113.95Y-39.05
X114.7Y-50.95
X117.9Y-50.9
X118.3Y-99.2
X118.3Y-104.2
X118.3Y-109.2
X118.3Y-114.2
X118.3Y-119.2
X118.3Y-124.2
X118.3Y-129.2
X121.2Y-92.7
X122.05Y-51.0
X122.3Y-85.15
X124.6Y-69.6
X125.9Y-50.95
X126.75Y-32.35
X127.95Y-87.6
X128.95Y-50.35
X130.55Y-47.95
X131.5Y-70.5
X131.95Y-49.45
X132.1Y-98.8
X132.1Y-105.35
X133.3Y-124.2
X133.3Y-129.2
X133.35Y-77.3
X133.5Y-84.05
X133.75Y-46.7
X134.75Y-102.8
X136.05Y-98.6
X137.2Y-46.3
X137.2Y-49.0
X138.3Y-124.2
X138.3Y-129.2
X140.7Y-46.3
X140.7Y-49.0
X142.35Y-113.05
X142.35Y-116.2
X143.3Y-129.2
X143.9Y-32.35
X144.7Y-46.3
X144.7Y-49.0
X148.3Y-129.2
X148.75Y-46.3
X148.75Y-49.0
X152.75Y-46.3
X152.75Y-49.0
X153.3Y-129.2
X154.45Y-32.35
X156.75Y-46.3
X156.75Y-49.0
X158.3Y-109.2
X158.3Y-129.2
X163.3Y-129.2
X164.9Y-35.1
X170.245Y-86.47
X171.3Y-34.05
X172.345Y-84.97
X172.845Y-95.27
X173.75Y-126.25
X174.245Y-86.97
X174.245Y-93.445
X174.5Y-38.35
X174.65Y-118.35
X179.9Y-126.2
X180.25Y-86.05
X180.35Y-105.45
X180.6Y-92.85
X180.95Y-34.15
X181.2Y-99.65
X181.7Y-57.8
X181.7Y-61.8
X181.7Y-65.8
X181.7Y-69.85
X181.7Y-73.85
X181.7Y-77.35
X181.7Y-118.3
X183.045Y-112.07
X184.25Y-38.7
X184.4Y-57.8
X184.4Y-61.8
X184.4Y-65.8
X184.4Y-69.85
X184.4Y-73.85
X184.4Y-77.35
X185.05Y-93.5
X185.1Y-86.85
X186.65Y-127.95
X187.65Y-119.0
X188.05Y-34.6
X188.55Y-105.45
X188.65Y-130.65
X189.1Y-99.55
X189.945Y-74.295
X190.6Y-87.75
X190.9Y-93.75
X191.4Y-121.1
X192.445Y-112.27
X193.3Y-39.2
X193.4Y-86.1
X193.65Y-132.75
X194.899Y-74.275
X194.95Y-92.85
X195.4Y-98.35
X196.15Y-43.95
X196.15Y-83.6
X196.7Y-123.45
X197.35Y-105.35
X197.75Y-34.5
X199.245Y-113.27
X199.35Y-89.7
X199.75Y-54.05
X200.4Y-60.75
X200.65Y-132.85
X200.95Y-93.9
X201.075Y-85.225
X202.25Y-78.2
X202.4Y-44.1
X202.85Y-49.45
X203.05Y-39.1
X203.1Y-101.6
X203.5Y-123.6
X203.75Y-87.95
X204.1Y-79.9
X204.45Y-34.25
X204.45Y-81.85
X204.65Y-138.6
X205.445Y-113.27
X205.7Y-78.6
X206.45Y-57.5
X206.75Y-53.4
X207.65Y-84.05
X211.6Y-138.6
X211.8Y-40.3
X212.1Y-54.0
X213.05Y-34.6
X215.8Y-56.15
X217.8Y-45.95
X218.6Y-111.8
X218.65Y-101.95
X219.1Y-90.1
X219.241Y-40.2
X219.4Y-125.8
X219.4Y-138.6
X219.75Y-35.1
X220.0Y-49.9
X221.65Y-60.7
X221.7Y-118.2
X221.75Y-67.35
X221.75Y-85.2
X221.8Y-72.45
X221.8Y-131.65
X221.9Y-79.4
X222.2Y-95.25
T4
X175.945Y-45.17
X175.945Y-50.17
T5
X95.35Y-77.407
X95.35Y-79.947
X95.35Y-82.487
X95.35Y-85.027
X95.35Y-87.567
X95.35Y-90.108
X95.35Y-92.647
X95.35Y-95.188
X95.35Y-97.727
X95.35Y-100.267
X95.35Y-102.807
X95.35Y-105.347
X95.35Y-107.887
X95.35Y-110.427
X95.35Y-112.968
X95.35Y-115.507
X95.35Y-118.047
X95.35Y-120.587
X95.35Y-123.127
X95.35Y-125.667
X125.85Y-97.733
X125.85Y-100.272
X125.85Y-102.812
X125.85Y-105.352
X125.85Y-107.892
X125.85Y-110.432
X125.85Y-112.972
X125.85Y-115.512
X125.85Y-118.052
X125.85Y-120.593
X134.8Y-53.99
X134.8Y-56.53
X134.8Y-59.07
X134.8Y-61.61
X146.15Y-54.03
X146.15Y-56.57
X146.15Y-59.11
X146.15Y-61.65
X148.255Y-73.84
X148.255Y-76.38
X148.255Y-78.92
X148.255Y-81.46
X148.255Y-84.0
X148.255Y-86.54
X148.255Y-89.08
X148.255Y-91.62
X148.255Y-94.16
X148.255Y-96.7
X148.255Y-99.24
X148.255Y-101.78
X148.255Y-104.32
X148.255Y-106.86
X148.255Y-109.4
X148.255Y-111.94
X148.255Y-114.48
X148.255Y-117.02
X148.255Y-119.56
X148.255Y-122.1
X166.035Y-73.84
X166.035Y-76.38
X166.035Y-78.92
X166.035Y-81.46
X166.035Y-84.0
X166.035Y-86.54
X166.035Y-89.08
X166.035Y-91.62
X166.035Y-94.16
X166.035Y-96.7
X166.035Y-99.24
X166.035Y-101.78
X166.035Y-104.32
X166.035Y-106.86
X166.035Y-109.4
X166.035Y-111.94
X166.035Y-114.48
X166.035Y-117.02
X166.035Y-119.56
X166.035Y-122.1
X209.505Y-118.17
X209.505Y-130.07
X209.565Y-94.37
X209.565Y-106.27
X212.045Y-118.17
X212.045Y-130.07
X212.105Y-94.37
X212.105Y-106.27
X214.585Y-118.17
X214.585Y-130.07
X214.645Y-94.37
X214.645Y-106.27
T6
X161.75Y-55.09
X161.75Y-65.25
X175.65Y-60.67
X175.65Y-70.83
T7
X69.645Y-60.73
X69.645Y-63.27
X69.645Y-65.81
X69.645Y-72.165
X69.645Y-74.705
X69.645Y-77.245
X69.645Y-83.6
X69.645Y-86.14
X69.645Y-88.68
X69.645Y-95.035
X69.645Y-97.575
X69.645Y-100.115
X69.645Y-106.46
X69.645Y-109.0
X69.645Y-115.4
X69.645Y-117.94
X69.645Y-124.2
X69.645Y-126.74
X214.632Y-60.255
X214.632Y-62.795
X214.632Y-65.335
X214.632Y-75.41
X214.632Y-77.95
X214.632Y-80.49
T8
X191.2Y-44.9
X191.2Y-49.9
M30
