G04 #@! TF.GenerationSoftware,KiCad,Pcbnew,9.0.3*
G04 #@! TF.CreationDate,2025-11-21T02:37:49-06:00*
G04 #@! TF.ProjectId,GSECPM,47534543-504d-42e6-9b69-6361645f7063,rev?*
G04 #@! TF.SameCoordinates,Original*
G04 #@! TF.FileFunction,Soldermask,Top*
G04 #@! TF.FilePolarity,Negative*
%FSLAX46Y46*%
G04 Gerber Fmt 4.6, Leading zero omitted, Abs format (unit mm)*
G04 Created by KiCad (PCBNEW 9.0.3) date 2025-11-21 02:37:49*
%MOMM*%
%LPD*%
G01*
G04 APERTURE LIST*
G04 Aperture macros list*
%AMRoundRect*
0 Rectangle with rounded corners*
0 $1 Rounding radius*
0 $2 $3 $4 $5 $6 $7 $8 $9 X,Y pos of 4 corners*
0 Add a 4 corners polygon primitive as box body*
4,1,4,$2,$3,$4,$5,$6,$7,$8,$9,$2,$3,0*
0 Add four circle primitives for the rounded corners*
1,1,$1+$1,$2,$3*
1,1,$1+$1,$4,$5*
1,1,$1+$1,$6,$7*
1,1,$1+$1,$8,$9*
0 Add four rect primitives between the rounded corners*
20,1,$1+$1,$2,$3,$4,$5,0*
20,1,$1+$1,$4,$5,$6,$7,0*
20,1,$1+$1,$6,$7,$8,$9,0*
20,1,$1+$1,$8,$9,$2,$3,0*%
%AMFreePoly0*
4,1,37,0.800000,0.796148,0.878414,0.796148,1.032228,0.765552,1.177117,0.705537,1.307515,0.618408,1.418408,0.507515,1.505537,0.377117,1.565552,0.232228,1.596148,0.078414,1.596148,-0.078414,1.565552,-0.232228,1.505537,-0.377117,1.418408,-0.507515,1.307515,-0.618408,1.177117,-0.705537,1.032228,-0.765552,0.878414,-0.796148,0.800000,-0.796148,0.800000,-0.800000,-1.400000,-0.800000,
-1.403843,-0.796157,-1.439018,-0.796157,-1.511114,-0.766294,-1.566294,-0.711114,-1.596157,-0.639018,-1.596157,-0.603843,-1.600000,-0.600000,-1.600000,0.600000,-1.596157,0.603843,-1.596157,0.639018,-1.566294,0.711114,-1.511114,0.766294,-1.439018,0.796157,-1.403843,0.796157,-1.400000,0.800000,0.800000,0.800000,0.800000,0.796148,0.800000,0.796148,$1*%
%AMFreePoly1*
4,1,37,1.403843,0.796157,1.439018,0.796157,1.511114,0.766294,1.566294,0.711114,1.596157,0.639018,1.596157,0.603843,1.600000,0.600000,1.600000,-0.600000,1.596157,-0.603843,1.596157,-0.639018,1.566294,-0.711114,1.511114,-0.766294,1.439018,-0.796157,1.403843,-0.796157,1.400000,-0.800000,-0.800000,-0.800000,-0.800000,-0.796148,-0.878414,-0.796148,-1.032228,-0.765552,-1.177117,-0.705537,
-1.307515,-0.618408,-1.418408,-0.507515,-1.505537,-0.377117,-1.565552,-0.232228,-1.596148,-0.078414,-1.596148,0.078414,-1.565552,0.232228,-1.505537,0.377117,-1.418408,0.507515,-1.307515,0.618408,-1.177117,0.705537,-1.032228,0.765552,-0.878414,0.796148,-0.800000,0.796148,-0.800000,0.800000,1.400000,0.800000,1.403843,0.796157,1.403843,0.796157,$1*%
%AMFreePoly2*
4,1,37,0.603843,0.796157,0.639018,0.796157,0.711114,0.766294,0.766294,0.711114,0.796157,0.639018,0.796157,0.603843,0.800000,0.600000,0.800000,-0.600000,0.796157,-0.603843,0.796157,-0.639018,0.766294,-0.711114,0.711114,-0.766294,0.639018,-0.796157,0.603843,-0.796157,0.600000,-0.800000,0.000000,-0.800000,0.000000,-0.796148,-0.078414,-0.796148,-0.232228,-0.765552,-0.377117,-0.705537,
-0.507515,-0.618408,-0.618408,-0.507515,-0.705537,-0.377117,-0.765552,-0.232228,-0.796148,-0.078414,-0.796148,0.078414,-0.765552,0.232228,-0.705537,0.377117,-0.618408,0.507515,-0.507515,0.618408,-0.377117,0.705537,-0.232228,0.765552,-0.078414,0.796148,0.000000,0.796148,0.000000,0.800000,0.600000,0.800000,0.603843,0.796157,0.603843,0.796157,$1*%
%AMFreePoly3*
4,1,37,0.000000,0.796148,0.078414,0.796148,0.232228,0.765552,0.377117,0.705537,0.507515,0.618408,0.618408,0.507515,0.705537,0.377117,0.765552,0.232228,0.796148,0.078414,0.796148,-0.078414,0.765552,-0.232228,0.705537,-0.377117,0.618408,-0.507515,0.507515,-0.618408,0.377117,-0.705537,0.232228,-0.765552,0.078414,-0.796148,0.000000,-0.796148,0.000000,-0.800000,-0.600000,-0.800000,
-0.603843,-0.796157,-0.639018,-0.796157,-0.711114,-0.766294,-0.766294,-0.711114,-0.796157,-0.639018,-0.796157,-0.603843,-0.800000,-0.600000,-0.800000,0.600000,-0.796157,0.603843,-0.796157,0.639018,-0.766294,0.711114,-0.711114,0.766294,-0.639018,0.796157,-0.603843,0.796157,-0.600000,0.800000,0.000000,0.800000,0.000000,0.796148,0.000000,0.796148,$1*%
G04 Aperture macros list end*
%ADD10RoundRect,0.250000X0.325000X1.100000X-0.325000X1.100000X-0.325000X-1.100000X0.325000X-1.100000X0*%
%ADD11R,1.700000X1.700000*%
%ADD12C,1.700000*%
%ADD13RoundRect,0.250000X0.250000X0.475000X-0.250000X0.475000X-0.250000X-0.475000X0.250000X-0.475000X0*%
%ADD14RoundRect,0.250000X-0.750000X0.750000X-0.750000X-0.750000X0.750000X-0.750000X0.750000X0.750000X0*%
%ADD15C,2.000000*%
%ADD16RoundRect,0.250000X0.475000X-0.250000X0.475000X0.250000X-0.475000X0.250000X-0.475000X-0.250000X0*%
%ADD17RoundRect,0.250000X-0.475000X0.250000X-0.475000X-0.250000X0.475000X-0.250000X0.475000X0.250000X0*%
%ADD18RoundRect,0.760000X-1.140000X1.140000X-1.140000X-1.140000X1.140000X-1.140000X1.140000X1.140000X0*%
%ADD19C,3.800000*%
%ADD20RoundRect,0.225000X-0.225000X-0.250000X0.225000X-0.250000X0.225000X0.250000X-0.225000X0.250000X0*%
%ADD21RoundRect,0.200000X0.275000X-0.200000X0.275000X0.200000X-0.275000X0.200000X-0.275000X-0.200000X0*%
%ADD22RoundRect,0.200000X0.200000X0.275000X-0.200000X0.275000X-0.200000X-0.275000X0.200000X-0.275000X0*%
%ADD23RoundRect,0.200000X-0.275000X0.200000X-0.275000X-0.200000X0.275000X-0.200000X0.275000X0.200000X0*%
%ADD24RoundRect,0.225000X0.250000X-0.225000X0.250000X0.225000X-0.250000X0.225000X-0.250000X-0.225000X0*%
%ADD25C,3.200000*%
%ADD26RoundRect,0.200000X-0.200000X-0.275000X0.200000X-0.275000X0.200000X0.275000X-0.200000X0.275000X0*%
%ADD27RoundRect,0.250000X-1.100000X0.325000X-1.100000X-0.325000X1.100000X-0.325000X1.100000X0.325000X0*%
%ADD28RoundRect,0.250000X-0.850000X-0.350000X0.850000X-0.350000X0.850000X0.350000X-0.850000X0.350000X0*%
%ADD29RoundRect,0.249997X-2.950003X-2.650003X2.950003X-2.650003X2.950003X2.650003X-2.950003X2.650003X0*%
%ADD30RoundRect,0.250000X-0.312500X-0.625000X0.312500X-0.625000X0.312500X0.625000X-0.312500X0.625000X0*%
%ADD31RoundRect,0.112500X-0.237500X0.112500X-0.237500X-0.112500X0.237500X-0.112500X0.237500X0.112500X0*%
%ADD32RoundRect,0.249999X0.850001X-0.850001X0.850001X0.850001X-0.850001X0.850001X-0.850001X-0.850001X0*%
%ADD33C,2.200000*%
%ADD34R,0.533400X1.168400*%
%ADD35RoundRect,0.102000X0.600000X-0.600000X0.600000X0.600000X-0.600000X0.600000X-0.600000X-0.600000X0*%
%ADD36C,1.404000*%
%ADD37R,1.549400X0.558800*%
%ADD38R,4.902200X4.470400*%
%ADD39RoundRect,0.249999X-0.850001X0.850001X-0.850001X-0.850001X0.850001X-0.850001X0.850001X0.850001X0*%
%ADD40RoundRect,0.102000X-1.100000X1.350000X-1.100000X-1.350000X1.100000X-1.350000X1.100000X1.350000X0*%
%ADD41RoundRect,0.225000X-0.250000X0.225000X-0.250000X-0.225000X0.250000X-0.225000X0.250000X0.225000X0*%
%ADD42FreePoly0,0.000000*%
%ADD43RoundRect,0.200000X-0.600000X-0.600000X0.600000X-0.600000X0.600000X0.600000X-0.600000X0.600000X0*%
%ADD44RoundRect,0.800000X-0.800000X-0.000010X0.800000X-0.000010X0.800000X0.000010X-0.800000X0.000010X0*%
%ADD45C,1.600000*%
%ADD46FreePoly1,0.000000*%
%ADD47FreePoly2,0.000000*%
%ADD48FreePoly3,0.000000*%
%ADD49R,2.600000X3.100000*%
%ADD50R,1.550000X0.600000*%
G04 APERTURE END LIST*
D10*
X81575000Y-41750000D03*
X78625000Y-41750000D03*
X84200000Y-55900000D03*
X81250000Y-55900000D03*
D11*
X134800000Y-53990000D03*
D12*
X134800000Y-56530000D03*
X134800000Y-59070000D03*
X134800000Y-61610000D03*
D13*
X103650000Y-43650000D03*
X101750000Y-43650000D03*
D14*
X69645000Y-115400000D03*
D15*
X69645000Y-117940000D03*
D16*
X104450000Y-54650000D03*
X104450000Y-52750000D03*
D17*
X115800000Y-46300000D03*
X115800000Y-48200000D03*
D11*
X214645000Y-94370000D03*
D12*
X212105000Y-94370000D03*
X209565000Y-94370000D03*
D18*
X191200000Y-44900000D03*
D19*
X191200000Y-49900000D03*
D20*
X212755000Y-99070000D03*
X214305000Y-99070000D03*
D21*
X118400000Y-44475000D03*
X118400000Y-42825000D03*
D22*
X184847500Y-96370000D03*
X183197500Y-96370000D03*
D23*
X115700000Y-41600000D03*
X115700000Y-43250000D03*
D24*
X207800000Y-77900000D03*
X207800000Y-76350000D03*
D25*
X81350000Y-132350000D03*
D20*
X212755000Y-111070000D03*
X214305000Y-111070000D03*
D22*
X184747500Y-90370000D03*
X183097500Y-90370000D03*
D26*
X107150000Y-40450000D03*
X108800000Y-40450000D03*
D27*
X120000000Y-46425000D03*
X120000000Y-49375000D03*
D25*
X67045000Y-42670000D03*
D28*
X77570000Y-46865000D03*
D29*
X83870000Y-49145000D03*
D28*
X77570000Y-51425000D03*
D30*
X81782500Y-61270000D03*
X84707500Y-61270000D03*
D14*
X69645000Y-83600000D03*
D15*
X69645000Y-86140000D03*
X69645000Y-88679999D03*
D26*
X173595000Y-109370000D03*
X175245000Y-109370000D03*
D14*
X214632500Y-75410000D03*
D15*
X214632500Y-77950000D03*
X214632500Y-80490000D03*
D27*
X124850000Y-46425000D03*
X124850000Y-49375000D03*
D16*
X127150000Y-54650000D03*
X127150000Y-52750000D03*
D26*
X173695000Y-114470000D03*
X175345000Y-114470000D03*
D31*
X187945000Y-82270000D03*
X187945000Y-83570000D03*
X189945000Y-82920000D03*
D25*
X209780000Y-46625000D03*
D16*
X123366667Y-54650000D03*
X123366667Y-52750000D03*
D14*
X214632500Y-60255000D03*
D15*
X214632500Y-62795000D03*
X214632500Y-65335000D03*
D14*
X69645000Y-95035000D03*
D15*
X69645000Y-97575000D03*
X69645000Y-100115000D03*
D14*
X69645000Y-124200000D03*
D15*
X69645000Y-126740000D03*
D26*
X173695000Y-122070000D03*
X175345000Y-122070000D03*
D25*
X179245000Y-132470000D03*
D32*
X175650000Y-70830000D03*
D33*
X175650000Y-60670000D03*
D16*
X115800000Y-54650000D03*
X115800000Y-52750000D03*
D34*
X178950000Y-88341300D03*
X177045000Y-88341300D03*
X177997500Y-90398700D03*
D16*
X119583333Y-54650000D03*
X119583333Y-52750000D03*
D22*
X182345000Y-82270000D03*
X180695000Y-82270000D03*
D35*
X175945000Y-50170000D03*
D36*
X175945000Y-45170000D03*
D21*
X104400000Y-40425000D03*
X104400000Y-38775000D03*
D11*
X214645000Y-106270000D03*
D12*
X212105000Y-106270000D03*
X209565000Y-106270000D03*
D37*
X194898600Y-70465000D03*
X194898600Y-71735000D03*
X194898600Y-73005000D03*
X194898600Y-74275000D03*
D38*
X199267400Y-72370000D03*
D11*
X214585000Y-130070000D03*
D12*
X212045000Y-130070000D03*
X209505000Y-130070000D03*
D16*
X108233333Y-54650000D03*
X108233333Y-52750000D03*
D14*
X69645000Y-60730000D03*
D15*
X69645000Y-63270000D03*
X69645000Y-65810000D03*
D39*
X161750000Y-55090000D03*
D33*
X161750000Y-65250000D03*
D23*
X189945000Y-72645000D03*
X189945000Y-74295000D03*
D20*
X212695000Y-123070000D03*
X214245000Y-123070000D03*
D33*
X102350000Y-127632500D03*
X126050000Y-77932500D03*
X126050000Y-128032500D03*
D11*
X95350000Y-77407500D03*
D12*
X95350000Y-79947500D03*
X95350000Y-82487500D03*
X95350000Y-85027500D03*
X95350000Y-87567500D03*
X95350000Y-90107500D03*
X95350000Y-92647500D03*
X95350000Y-95187500D03*
X95350000Y-97727500D03*
X95350000Y-100267500D03*
X95350000Y-102807500D03*
X95350000Y-105347500D03*
X95350000Y-107887500D03*
X95350000Y-110427500D03*
X95350000Y-112967500D03*
X95350000Y-115507500D03*
X95350000Y-118047500D03*
X95350000Y-120587500D03*
X95350000Y-123127500D03*
X95350000Y-125667500D03*
D11*
X125850000Y-97732500D03*
D12*
X125850000Y-100272500D03*
X125850000Y-102812500D03*
X125850000Y-105352500D03*
X125850000Y-107892500D03*
X125850000Y-110432500D03*
X125850000Y-112972500D03*
X125850000Y-115512500D03*
X125850000Y-118052500D03*
X125850000Y-120592500D03*
D24*
X208350000Y-64500000D03*
X208350000Y-62950000D03*
D11*
X146150000Y-54030000D03*
D12*
X146150000Y-56570000D03*
X146150000Y-59110000D03*
X146150000Y-61650000D03*
D16*
X101100000Y-40400000D03*
X101100000Y-38500000D03*
D14*
X69645000Y-72165000D03*
D15*
X69645000Y-74705000D03*
X69645000Y-77244999D03*
D16*
X112016667Y-54650000D03*
X112016667Y-52750000D03*
D40*
X98250000Y-48600000D03*
X98250000Y-53700000D03*
D11*
X214585000Y-118170000D03*
D12*
X212045000Y-118170000D03*
X209505000Y-118170000D03*
D34*
X178950000Y-94370000D03*
X177045000Y-94370000D03*
X177997500Y-96427400D03*
D41*
X104050000Y-46150000D03*
X104050000Y-47700000D03*
D42*
X147455000Y-73840000D03*
D43*
X148255000Y-73840000D03*
D44*
X147455000Y-76380000D03*
D45*
X148255000Y-76380000D03*
D46*
X147455000Y-78920000D03*
D47*
X148255000Y-78920000D03*
D44*
X147455000Y-81460000D03*
D45*
X148255000Y-81460000D03*
D44*
X147455000Y-84000000D03*
D45*
X148255000Y-84000000D03*
D44*
X147455000Y-86540000D03*
D45*
X148255000Y-86540000D03*
D44*
X147455000Y-89080000D03*
D45*
X148255000Y-89080000D03*
D46*
X147455000Y-91620000D03*
D47*
X148255000Y-91620000D03*
D44*
X147455000Y-94160000D03*
D45*
X148255000Y-94160000D03*
D44*
X147455000Y-96700000D03*
D45*
X148255000Y-96700000D03*
D44*
X147455000Y-99240000D03*
D45*
X148255000Y-99240000D03*
D44*
X147455000Y-101780000D03*
D45*
X148255000Y-101780000D03*
D46*
X147455000Y-104320000D03*
D47*
X148255000Y-104320000D03*
D44*
X147455000Y-106860000D03*
D45*
X148255000Y-106860000D03*
D44*
X147455000Y-109400000D03*
D45*
X148255000Y-109400000D03*
D44*
X147455000Y-111940000D03*
D45*
X148255000Y-111940000D03*
D44*
X147455000Y-114480000D03*
D45*
X148255000Y-114480000D03*
D46*
X147455000Y-117020000D03*
D47*
X148255000Y-117020000D03*
D44*
X147455000Y-119560000D03*
D45*
X148255000Y-119560000D03*
D44*
X147455000Y-122100000D03*
D45*
X148255000Y-122100000D03*
X166035000Y-122100000D03*
D44*
X166835000Y-122100000D03*
D45*
X166035000Y-119560000D03*
D44*
X166835000Y-119560000D03*
D48*
X166035000Y-117020000D03*
D42*
X166835000Y-117020000D03*
D45*
X166035000Y-114480000D03*
D44*
X166835000Y-114480000D03*
D45*
X166035000Y-111940000D03*
D44*
X166835000Y-111940000D03*
D45*
X166035000Y-109400000D03*
D44*
X166835000Y-109400000D03*
D45*
X166035000Y-106860000D03*
D44*
X166835000Y-106860000D03*
D48*
X166035000Y-104320000D03*
D42*
X166835000Y-104320000D03*
D45*
X166035000Y-101780000D03*
D44*
X166835000Y-101780000D03*
D45*
X166035000Y-99240000D03*
D44*
X166835000Y-99240000D03*
D45*
X166035000Y-96700000D03*
D44*
X166835000Y-96700000D03*
D45*
X166035000Y-94160000D03*
D44*
X166835000Y-94160000D03*
D48*
X166035000Y-91620000D03*
D42*
X166835000Y-91620000D03*
D45*
X166035000Y-89080000D03*
D44*
X166835000Y-89080000D03*
D45*
X166035000Y-86540000D03*
D44*
X166835000Y-86540000D03*
D45*
X166035000Y-84000000D03*
D44*
X166835000Y-84000000D03*
D45*
X166035000Y-81460000D03*
D44*
X166835000Y-81460000D03*
D48*
X166035000Y-78920000D03*
D42*
X166835000Y-78920000D03*
D45*
X166035000Y-76380000D03*
D44*
X166835000Y-76380000D03*
D45*
X166035000Y-73840000D03*
D44*
X166835000Y-73840000D03*
D20*
X212570000Y-135070000D03*
X214120000Y-135070000D03*
D49*
X109650000Y-45600000D03*
D50*
X112350000Y-47505000D03*
X112350000Y-46235000D03*
X112350000Y-44965000D03*
X112350000Y-43695000D03*
X106950000Y-43695000D03*
X106950000Y-44965000D03*
X106950000Y-46235000D03*
X106950000Y-47505000D03*
D26*
X173795000Y-101770000D03*
X175445000Y-101770000D03*
D14*
X69645000Y-106460000D03*
D15*
X69645000Y-109000000D03*
M02*
